<?xml version="1.0" standalone="no"?>
<!DOCTYPE svg PUBLIC "-//W3C//DTD SVG 20010904//EN"
 "http://www.w3.org/TR/2001/REC-SVG-20010904/DTD/svg10.dtd">
<svg version="1.0" xmlns="http://www.w3.org/2000/svg"
 width="474.000000pt" height="488.000000pt" viewBox="0 0 474.000000 488.000000"
 preserveAspectRatio="xMidYMid meet">
<metadata>
Created by potrace 1.16, written by Peter Selinger 2001-2019
</metadata>
<g transform="translate(0.000000,488.000000) scale(0.100000,-0.100000)"
fill="#000000" stroke="none">
<path d="M2360 4865 c-11 -13 -10 -14 4 -9 9 3 16 10 16 15 0 13 -6 11 -20 -6z"/>
<path d="M2370 4700 c0 -84 2 -151 5 -149 6 7 8 289 1 296 -3 4 -6 -63 -6
-147z"/>
<path d="M2407 4809 c7 -7 15 -10 18 -7 3 3 -2 9 -12 12 -14 6 -15 5 -6 -5z"/>
<path d="M2623 4672 c8 -9 17 -26 19 -37 3 -17 5 -16 9 6 4 20 0 28 -19 37
-23 10 -23 10 -9 -6z"/>
<path d="M2100 4639 c0 -5 5 -7 10 -4 6 3 10 8 10 11 0 2 -4 4 -10 4 -5 0 -10
-5 -10 -11z"/>
<path d="M2864 4555 c-10 -36 -23 -65 -29 -65 -5 0 -57 10 -115 21 -88 18
-142 22 -330 23 -195 1 -242 -2 -354 -23 -70 -13 -131 -19 -136 -14 -4 4 -13
29 -20 55 -8 33 -18 48 -33 52 -12 3 -23 4 -25 2 -6 -6 31 -111 42 -118 7 -4
5 -9 -4 -12 -8 -2 -66 -21 -127 -41 -62 -20 -116 -34 -121 -31 -5 3 -14 30
-21 61 -7 30 -16 55 -21 55 -5 0 -7 7 -3 17 5 12 -1 10 -25 -7 -18 -13 -32
-27 -32 -30 0 -4 9 -33 20 -65 11 -32 20 -60 20 -62 0 -2 -44 -24 -97 -50 -54
-25 -99 -50 -101 -54 -2 -5 -8 -9 -13 -9 -16 0 -140 -81 -244 -159 -54 -42
-145 -122 -201 -179 l-102 -102 -29 23 c-44 37 -71 49 -89 39 -9 -5 -16 -11
-17 -13 -2 -8 54 -59 79 -72 l25 -13 -81 -112 c-85 -117 -102 -135 -93 -102 4
14 -1 22 -18 29 -13 5 -35 21 -48 35 -31 33 -49 33 -62 0 -5 -15 -8 -27 -7
-28 17 -9 118 -88 118 -92 0 -3 -19 -40 -42 -82 -79 -143 -143 -308 -190 -486
-24 -93 -23 -89 -40 -218 l-12 -98 -62 0 c-60 0 -63 -1 -83 -36 -12 -19 -15
-32 -9 -27 7 4 38 8 69 9 30 0 60 4 67 8 9 5 12 -29 12 -143 0 -130 -2 -150
-15 -145 -8 4 -15 10 -15 15 0 9 -87 5 -97 -5 -13 -12 -22 -6 -17 12 5 14 4
15 -5 2 -9 -12 -11 -13 -11 -1 0 8 -2 12 -5 9 -3 -2 0 -19 6 -36 11 -31 13
-32 72 -33 34 -1 69 -2 77 -3 10 -1 17 -27 26 -98 13 -102 36 -209 61 -291 8
-26 12 -55 9 -63 -3 -8 -2 -13 3 -10 7 4 59 -124 87 -215 4 -11 -13 -24 -63
-47 -37 -18 -62 -32 -55 -32 7 0 39 14 72 30 l60 30 37 -72 c68 -132 67 -120
17 -154 -38 -26 -44 -33 -44 -66 0 -37 1 -37 19 -20 47 43 73 62 81 57 4 -3 6
5 3 17 -6 22 -5 22 14 -2 24 -30 146 -199 158 -219 6 -11 4 -13 -9 -8 -12 5
-31 -4 -59 -25 -23 -18 -45 -33 -51 -33 -20 0 -14 -21 10 -38 25 -19 25 -19
79 22 30 23 58 41 63 41 5 0 24 -17 42 -37 18 -21 48 -54 67 -74 l34 -36 -45
-49 c-25 -27 -46 -55 -46 -63 0 -8 10 -2 23 15 38 50 70 84 80 84 6 0 34 -21
62 -48 29 -26 69 -60 89 -77 l37 -30 -47 -58 c-25 -31 -51 -54 -56 -51 -6 4
-8 2 -4 -4 3 -6 1 -22 -5 -36 -11 -24 -21 -30 -41 -27 -5 0 -7 -2 -6 -7 4 -13
-13 -52 -23 -52 -5 0 -9 -8 -9 -17 0 -14 4 -12 17 7 9 14 28 39 42 56 14 17
51 65 81 107 30 43 57 77 60 77 4 0 38 -22 77 -49 39 -27 129 -79 200 -116
129 -68 130 -69 118 -94 -26 -55 -26 -76 3 -107 15 -16 24 -25 20 -20 -12 16
-9 28 4 20 7 -4 10 -4 6 0 -3 4 0 26 8 49 8 23 12 47 10 54 -3 7 -2 13 2 13 6
0 254 -81 259 -84 1 -1 -7 -21 -18 -43 -11 -23 -21 -52 -22 -64 0 -13 -6 -27
-12 -31 -5 -4 7 -8 27 -8 36 0 36 0 57 68 l21 67 103 -20 103 -20 -3 -60 -2
-60 9 59 c6 32 11 60 12 62 2 1 39 -2 83 -8 103 -13 362 -4 490 18 150 26 144
27 164 -30 16 -47 35 -64 71 -65 11 -1 11 2 3 7 -6 4 -14 20 -17 35 -3 15 -12
41 -20 58 -11 22 -12 31 -3 34 7 2 64 19 129 39 134 41 125 40 125 24 0 -7 7
-36 16 -65 8 -28 13 -54 10 -57 -16 -15 25 -3 44 13 l23 19 -21 61 c-19 59
-19 81 2 81 5 0 45 18 89 39 70 35 103 40 86 12 -3 -4 6 -19 19 -31 30 -28 32
-21 5 22 -26 43 -26 45 13 64 57 30 139 86 256 177 l114 89 45 -46 c24 -25 48
-46 53 -46 4 0 -15 23 -42 51 l-51 52 78 78 78 78 42 -34 c41 -34 43 -34 76
-20 27 12 26 20 -3 17 -4 -1 -21 12 -38 28 -17 17 -35 30 -41 30 -19 0 -10 17
38 77 26 33 61 81 79 106 l32 46 33 -32 c19 -18 45 -41 59 -53 l26 -21 10 39
c11 42 18 34 -90 109 -4 3 15 48 42 99 28 51 51 95 51 97 0 2 12 30 26 61 66
143 131 377 154 549 l13 93 46 1 c25 1 49 1 53 0 16 -2 30 40 18 54 -9 11 -19
11 -60 0 l-50 -13 0 145 c0 119 2 143 13 135 7 -6 40 -10 73 -9 l61 2 -10 32
-10 33 -69 0 c-48 0 -68 4 -68 13 -3 103 -66 376 -122 524 -37 100 -138 314
-161 342 -9 10 -7 16 6 26 64 46 67 50 67 83 0 30 -2 32 -20 22 -11 -6 -35
-26 -53 -44 l-33 -33 -65 90 c-100 139 -97 134 -74 151 11 9 41 25 67 37 l47
22 -36 24 c-20 13 -39 21 -42 16 -3 -4 -26 -23 -50 -42 l-44 -34 -62 64 c-58
62 -230 213 -271 238 -13 9 -15 14 -6 17 6 3 12 11 12 19 0 7 8 19 17 26 15
12 16 12 10 -3 -9 -25 0 -22 14 3 8 15 8 19 0 15 -18 -12 -13 3 15 40 14 18
31 31 37 27 6 -4 7 -1 2 6 -4 8 5 27 22 49 17 20 35 48 42 62 11 22 10 21 -13
-5 -14 -16 -49 -64 -78 -105 -29 -41 -58 -81 -65 -88 -7 -7 -17 -20 -22 -29
-8 -15 -22 -8 -108 47 -54 35 -100 65 -102 67 -2 2 8 26 23 54 16 28 25 53 22
56 -3 3 -13 -9 -21 -28 -8 -19 -21 -43 -28 -54 -6 -11 -13 -22 -14 -24 -2 -2
-8 1 -15 7 -7 5 -50 29 -95 51 l-82 41 19 54 c18 53 18 55 -1 72 -15 13 -19
14 -22 3 -2 -8 -9 -30 -16 -50 -6 -19 -11 -42 -11 -51 0 -13 -21 -9 -122 23
-68 22 -129 41 -136 44 -9 3 -5 16 13 46 15 22 24 43 21 46 -2 3 -1 16 4 29 9
22 7 24 -24 24 -33 0 -34 -2 -52 -65z m-353 -125 c393 -28 754 -163 1067 -397
106 -80 292 -262 366 -358 237 -309 376 -651 417 -1024 16 -152 7 -422 -20
-566 -52 -281 -166 -555 -326 -786 -134 -192 -353 -404 -555 -534 -637 -413
-1463 -426 -2117 -34 -394 236 -714 631 -862 1065 -122 358 -137 756 -45 1134
160 649 672 1199 1310 1405 183 60 363 91 604 103 14 1 86 -3 161 -8z"/>
<path d="M2155 4394 c-344 -49 -614 -148 -871 -320 -411 -275 -694 -676 -819
-1163 -75 -290 -73 -676 5 -966 211 -786 863 -1354 1670 -1454 109 -14 360
-14 475 0 287 34 594 148 839 310 300 199 518 445 675 764 103 207 147 339
188 565 22 119 24 474 5 595 -99 603 -441 1108 -957 1411 -196 115 -401 191
-645 240 -61 12 -148 17 -310 19 -124 2 -238 1 -255 -1z m175 -89 c0 -8 -5
-15 -11 -15 -8 0 -10 -28 -7 -90 l4 -91 -63 63 -63 62 0 -36 c0 -23 5 -38 15
-42 8 -3 15 -13 15 -21 0 -13 -9 -15 -42 -13 -39 3 -69 28 -34 28 14 0 15 9
10 58 -4 31 -13 62 -20 68 -25 20 -15 34 24 34 30 0 45 -7 72 -35 40 -42 49
-44 42 -10 -2 14 -8 25 -13 25 -5 0 -9 7 -9 15 0 11 11 15 40 15 29 0 40 -4
40 -15z m210 -25 c0 -33 -3 -40 -20 -40 -15 0 -20 7 -20 25 0 43 -17 27 -24
-21 -9 -69 -8 -84 9 -84 8 0 15 -7 15 -15 0 -12 -13 -15 -55 -15 -42 0 -55 3
-55 15 0 8 7 15 15 15 10 0 15 10 15 34 0 18 3 48 6 65 5 24 3 31 -10 31 -9 0
-16 -8 -16 -19 0 -11 -4 -22 -8 -25 -16 -10 -30 10 -29 42 l2 32 87 0 88 0 0
-40z m-480 -27 c0 -25 -25 -32 -33 -9 -8 20 -57 8 -57 -13 0 -25 11 -33 27
-19 11 9 17 9 24 -3 13 -21 11 -42 -4 -36 -21 8 -37 -7 -31 -29 4 -16 12 -19
35 -16 20 3 28 9 25 17 -3 8 2 16 11 19 19 8 20 7 28 -26 7 -29 9 -28 -88 -49
-45 -10 -60 -10 -70 0 -9 9 -9 14 2 20 18 12 -5 121 -26 121 -8 0 -13 7 -11
17 2 12 24 21 78 33 80 18 90 15 90 -27z m808 -2 c50 -26 57 -95 15 -140 -42
-45 -110 -46 -154 -2 -31 32 -39 84 -18 122 23 44 95 53 157 20z m-1042 -36
c-9 -37 24 -125 46 -125 33 0 18 -27 -21 -38 -21 -7 -43 -12 -50 -12 -14 0
-15 27 -1 32 11 3 -9 68 -20 68 -4 0 -12 -28 -18 -61 -6 -34 -14 -64 -17 -67
-3 -3 -26 14 -50 38 -45 44 -55 43 -33 -5 6 -14 17 -24 24 -21 7 3 15 -2 18
-10 8 -20 -61 -51 -78 -34 -8 8 -7 13 2 19 19 11 -16 112 -40 119 -29 7 -21
27 18 45 36 17 36 17 74 -13 21 -16 40 -30 43 -30 3 0 8 22 12 49 6 42 11 51
33 60 50 18 65 14 58 -14z m1276 -37 c25 -9 26 -12 15 -36 -6 -15 -12 -28 -13
-30 -5 -10 -32 12 -27 24 4 11 -30 34 -51 34 -9 0 -13 -40 -5 -41 5 -1 14 -3
19 -4 6 -1 12 -3 15 -4 3 0 1 -10 -5 -21 -9 -16 -15 -18 -30 -10 -15 8 -21 6
-30 -9 -13 -26 -13 -31 4 -31 19 0 27 -13 17 -28 -5 -9 -20 -7 -56 7 -28 11
-49 22 -47 25 1 3 2 11 2 16 0 6 6 10 14 10 16 0 57 102 44 111 -5 3 -6 13 -2
22 5 14 11 14 57 -5 29 -11 64 -25 79 -30z m-1569 -100 c14 -25 15 -33 5 -39
-8 -6 -19 -1 -29 13 -29 38 -31 0 -3 -52 19 -35 32 -49 42 -45 9 3 19 0 23 -7
11 -17 -79 -74 -94 -59 -7 7 -7 14 1 24 15 18 -44 125 -60 109 -8 -8 -8 -15 1
-25 9 -11 8 -17 -3 -26 -12 -10 -18 -8 -30 11 -8 13 -16 28 -18 35 -3 11 114
90 137 92 6 0 18 -13 28 -31z m1815 -23 c8 -7 -12 -33 -23 -29 -8 3 -25 -16
-45 -50 -38 -68 -60 -82 -98 -64 -20 10 -27 21 -27 42 0 16 6 31 13 34 7 2 12
-5 12 -17 0 -37 27 -22 58 32 20 36 27 56 20 64 -21 26 3 33 45 12 23 -12 43
-23 45 -24z m-749 4 c525 -63 1019 -422 1253 -910 179 -372 209 -818 82 -1210
-162 -500 -550 -891 -1049 -1053 -181 -59 -262 -71 -505 -71 -200 0 -237 3
-330 23 -164 37 -254 69 -395 138 -328 161 -576 410 -740 739 -128 259 -169
435 -169 725 -1 154 3 205 22 300 106 529 440 958 922 1184 280 130 577 175
909 135z m836 -61 c40 -26 43 -36 15 -46 -31 -12 -82 -93 -68 -109 6 -7 14
-13 19 -13 12 0 74 90 74 108 0 22 14 21 44 0 24 -17 23 -52 -1 -43 -8 3 -29
-16 -51 -45 -46 -62 -81 -67 -121 -20 -28 34 -27 45 17 107 16 23 26 46 23 52
-7 10 0 31 10 31 2 0 20 -10 39 -22z m-2110 -42 c11 -8 18 -25 17 -44 0 -25 4
-32 26 -38 15 -4 32 -6 39 -5 23 3 26 -22 4 -41 -22 -17 -24 -17 -48 2 -23 18
-73 28 -73 15 0 -18 26 -42 42 -37 30 8 21 -21 -18 -52 -27 -22 -38 -25 -44
-16 -5 7 -6 19 -3 26 8 20 -59 104 -79 98 -39 -11 -24 18 29 61 62 48 78 53
108 31z m2302 -109 c10 -13 26 -26 36 -30 22 -8 22 -20 -2 -41 -24 -21 -41
-13 -41 18 0 29 -26 54 -41 39 -7 -7 -4 -23 10 -49 50 -93 -3 -152 -78 -88
-33 28 -40 64 -17 83 12 10 15 6 21 -21 8 -35 22 -58 36 -58 14 0 10 42 -6 70
-19 33 -19 60 2 82 22 25 58 23 80 -5z m-2401 -116 c7 6 15 4 22 -4 9 -10 4
-21 -22 -46 -33 -32 -63 -35 -52 -5 9 24 -15 27 -40 3 -27 -25 -27 -41 0 -45
31 -4 31 -14 -1 -46 -31 -31 -58 -31 -48 1 3 9 -11 56 -30 104 -19 48 -35 91
-35 96 0 5 44 -8 98 -29 61 -24 101 -35 108 -29z m2584 -128 c-26 -21 -33 -24
-40 -12 -6 8 -3 20 6 30 11 12 12 19 4 24 -14 9 -99 -66 -94 -83 10 -33 -11
-31 -47 4 -30 29 -36 41 -27 51 7 9 14 10 23 3 16 -14 111 68 96 83 -7 7 -15
6 -26 -3 -12 -10 -19 -10 -28 -1 -9 9 -5 17 17 34 l29 23 59 -63 59 -64 -31
-26z m-2805 32 c30 -29 31 -38 4 -81 -22 -36 -16 -46 26 -41 27 3 25 -13 -8
-52 -27 -32 -63 -38 -51 -8 7 18 -79 89 -99 81 -31 -12 -25 16 13 64 56 70 76
77 115 37z m2894 -87 c24 -32 28 -44 19 -55 -9 -11 -13 -11 -19 -1 -12 18
-109 -50 -106 -76 3 -33 -17 -27 -46 14 -28 40 -28 66 0 55 19 -7 115 53 107
66 -6 10 2 39 10 39 2 0 18 -19 35 -42z m-3054 -71 c19 -15 12 -42 -10 -33
-18 6 -42 -41 -28 -55 14 -14 33 -3 33 17 0 18 10 17 34 -1 20 -15 20 -15 0
-30 -16 -13 -17 -16 -4 -25 23 -15 34 -12 49 11 9 16 10 24 2 29 -7 3 -9 14
-5 23 5 15 9 15 35 2 l29 -15 -43 -70 c-26 -43 -48 -69 -57 -67 -8 1 -14 9
-13 17 3 17 -80 65 -112 65 -28 0 -24 22 18 88 40 61 44 64 72 44z m3139 -68
c15 -11 34 -37 43 -57 9 -21 19 -40 21 -44 2 -4 -9 -15 -23 -24 -22 -14 -28
-15 -35 -4 -5 8 -6 27 -3 42 7 36 -11 58 -48 58 -31 0 -69 -30 -69 -56 0 -32
20 -54 50 -54 23 0 30 -4 30 -20 0 -33 -56 -27 -91 11 -43 47 -43 100 2 142
36 33 85 36 123 6z m-3175 -165 c23 -19 31 -34 31 -59 0 -44 -45 -145 -65
-145 -9 0 -15 7 -13 17 4 23 -89 69 -112 56 -34 -22 -39 -2 -14 55 44 102 109
130 173 76z m3310 -79 c17 -41 31 -76 31 -79 0 -2 -12 -7 -26 -10 -28 -7 -61
12 -36 21 14 5 16 32 4 51 -10 15 -42 5 -42 -13 0 -7 6 -16 13 -18 9 -4 8 -8
-3 -16 -24 -17 -40 -13 -40 10 0 16 -4 19 -22 13 -31 -9 -30 -8 -19 -37 7 -17
16 -25 24 -21 8 3 17 -3 21 -12 8 -21 5 -24 -29 -27 -24 -2 -29 4 -55 68 -17
42 -25 74 -19 80 6 5 13 5 20 -2 14 -14 106 23 120 49 5 10 13 18 18 18 5 0
22 -34 40 -75z m-3589 -419 c0 -20 104 -33 125 -16 27 22 33 -1 23 -82 -10
-77 -11 -78 -39 -78 -22 0 -29 5 -29 20 0 11 6 20 14 20 13 0 28 45 18 55 -3
3 -14 5 -25 5 -14 0 -18 -5 -14 -20 6 -23 -5 -33 -27 -24 -11 4 -14 13 -10 30
5 21 3 24 -20 24 -16 0 -26 -6 -26 -15 0 -8 -9 -15 -21 -15 -15 0 -19 5 -16
18 3 9 8 34 12 55 4 23 11 37 20 37 8 0 15 -6 15 -14z m3570 -2 c0 -13 11 -14
73 -9 39 4 78 8 85 10 21 7 14 -5 -38 -65 -27 -32 -50 -60 -50 -62 0 -11 66 7
77 21 15 21 21 14 29 -37 5 -34 4 -42 -9 -42 -8 0 -17 6 -20 14 -3 8 -14 13
-24 11 -10 -3 -36 -6 -57 -9 -22 -2 -43 -11 -48 -20 -14 -26 -25 -19 -33 20
-6 33 -3 41 29 73 41 42 44 51 16 51 -11 0 -20 -7 -20 -15 0 -8 -9 -15 -20
-15 -17 0 -20 7 -20 38 0 21 3 42 7 45 11 12 23 8 23 -9z m-3590 -214 c0 -14
117 -13 122 2 3 7 12 9 22 5 15 -6 17 -14 12 -45 -3 -20 -6 -56 -6 -79 0 -41
-1 -43 -30 -43 -23 0 -30 4 -30 20 0 11 7 20 15 20 10 0 15 10 15 30 0 24 -4
30 -21 30 -18 0 -20 -4 -15 -25 6 -23 3 -25 -24 -25 -30 0 -40 13 -20 25 15 9
2 25 -21 25 -14 0 -19 -7 -19 -30 0 -16 5 -30 10 -30 6 0 10 -9 10 -21 0 -16
-5 -20 -27 -17 -28 3 -28 4 -31 86 -3 77 -2 82 18 82 11 0 20 -4 20 -10z
m3748 -55 c32 -38 31 -113 -3 -148 -14 -13 -36 -27 -49 -29 -29 -6 -84 16
-102 40 -16 20 -18 96 -4 122 29 54 117 62 158 15z m-3593 -164 c3 -11 7 -47
8 -81 1 -57 -1 -64 -26 -86 -19 -16 -41 -24 -65 -24 -68 0 -93 34 -106 143 -5
42 -4 47 14 47 11 0 20 -4 20 -10 0 -5 13 -10 29 -10 49 0 91 12 91 26 0 21
28 17 35 -5z m3445 -56 c0 -15 14 -19 83 -29 28 -3 40 -1 44 10 7 20 33 18 33
-3 0 -46 -14 -93 -26 -93 -8 0 -14 7 -14 15 0 13 -14 17 -98 29 -13 2 -26 -2
-29 -10 -3 -8 -12 -14 -20 -14 -12 0 -14 8 -9 38 3 20 6 45 6 55 0 9 7 17 15
17 8 0 15 -7 15 -15z m-3397 -217 c22 -93 22 -95 -9 -101 -28 -5 -46 19 -24
33 8 5 10 17 6 34 -7 28 -13 31 -36 16 -12 -7 -12 -12 -2 -22 18 -18 15 -25
-13 -30 -21 -4 -25 -1 -25 18 0 25 -15 30 -39 15 -16 -10 -6 -51 14 -51 7 0
16 -7 19 -16 8 -20 8 -19 -26 -28 -25 -6 -28 -3 -38 34 -5 22 -15 58 -21 81
-12 47 -6 58 21 41 11 -6 25 -10 32 -7 7 2 32 9 56 15 23 6 40 15 37 20 -4 7
8 17 26 19 3 1 13 -32 22 -71z m3401 66 c26 -10 19 -34 -10 -34 -44 0 -21 -23
36 -38 38 -9 56 -10 58 -3 4 11 42 16 42 5 0 -3 -5 -25 -11 -50 -9 -33 -16
-44 -31 -44 -14 0 -18 5 -14 15 4 10 -3 17 -22 21 -15 3 -41 10 -59 14 -17 4
-34 5 -37 2 -11 -10 -6 -20 14 -25 11 -3 20 -13 20 -22 0 -13 -6 -15 -32 -10
-45 10 -49 15 -38 55 5 19 14 54 20 78 11 43 26 51 64 36z m-3346 -266 c12
-35 22 -71 22 -80 0 -23 -36 -41 -70 -34 -30 6 -55 -14 -61 -48 -6 -31 -24
-29 -36 4 -10 28 -9 32 18 51 27 19 40 59 20 59 -22 0 -39 -13 -34 -26 3 -9
-2 -14 -14 -14 -25 0 -52 75 -33 94 8 8 13 7 19 -3 7 -11 18 -11 62 5 30 11
54 26 57 37 9 34 29 16 50 -45z m3427 43 c3 -5 -2 -28 -11 -50 -11 -28 -20
-38 -30 -34 -9 3 -13 12 -10 19 3 8 -1 14 -10 14 -14 0 -34 -38 -34 -66 0 -10
7 -13 25 -8 29 7 31 -2 11 -51 -11 -25 -19 -33 -31 -29 -9 4 -14 12 -12 18 3
6 -29 45 -70 87 l-75 76 106 8 c58 4 109 11 112 16 7 12 21 12 29 0z m-230
-173 c30 -13 30 -41 0 -46 -46 -8 -60 -70 -23 -96 45 -32 98 -15 98 31 0 24
-15 31 -23 11 -4 -10 -7 -10 -17 -1 -11 10 -10 19 6 48 22 41 27 42 54 15 43
-43 11 -147 -51 -169 -57 -20 -129 28 -129 86 0 37 25 93 41 93 6 0 7 5 4 10
-6 9 1 30 10 30 2 0 16 -5 30 -12z m-3171 -81 c58 5 106 7 106 5 0 -2 -28 -40
-63 -85 -34 -45 -62 -88 -62 -96 0 -31 -25 -20 -44 18 -21 40 -16 56 12 45 8
-3 17 -1 20 4 9 13 -32 74 -43 67 -6 -4 -8 -10 -5 -15 3 -4 -2 -11 -11 -14
-20 -8 -17 -10 -39 33 -14 27 -14 35 -4 42 8 4 16 3 20 -3 4 -7 40 -7 113 -1z
m3050 -121 c-2 -22 95 -89 111 -76 6 5 16 6 23 1 10 -6 -11 -49 -44 -90 -2 -2
-11 -1 -20 3 -12 5 -14 9 -5 20 9 10 0 21 -43 49 -37 25 -57 32 -64 25 -6 -6
-15 -7 -21 -4 -6 4 0 23 17 51 27 44 48 54 46 21z m-2879 -37 c21 -32 24 -43
14 -50 -7 -4 -18 -4 -24 1 -8 6 -28 -2 -58 -23 -26 -17 -47 -35 -47 -38 0 -3
6 -14 14 -24 13 -18 15 -18 39 -2 46 30 53 -11 7 -43 -36 -26 -41 -23 -95 55
-29 43 -35 59 -26 68 9 9 14 9 19 0 6 -9 22 -2 57 23 28 19 50 40 51 47 3 40
15 36 49 -14z m2825 -84 c20 -22 21 -25 6 -31 -9 -3 -23 -1 -30 5 -10 8 -16 9
-21 1 -3 -5 8 -23 26 -38 56 -47 63 -51 75 -41 7 6 15 5 22 -3 7 -10 1 -23
-23 -52 -32 -38 -61 -43 -51 -8 6 23 -84 97 -96 79 -4 -7 -1 -17 9 -25 13 -9
14 -15 6 -23 -9 -9 -20 -6 -42 11 l-31 22 42 50 c24 27 47 56 53 64 14 20 28
17 55 -11z m-2631 -150 c41 -45 52 -80 29 -103 -7 -7 -20 -12 -30 -12 -11 0
-15 -5 -12 -14 7 -17 -29 -56 -51 -56 -14 0 -98 69 -117 95 -10 14 2 26 21 20
21 -6 109 79 92 90 -14 8 -5 25 13 25 8 0 32 -20 55 -45z m2485 -4 c14 -16 15
-20 2 -30 -8 -7 -19 -10 -24 -7 -15 9 -55 -25 -44 -36 7 -7 27 -5 61 8 40 14
55 15 76 6 37 -17 34 -62 -6 -96 -34 -29 -50 -32 -78 -14 -18 11 -15 13 27 27
49 17 68 41 32 41 -11 0 -35 -7 -52 -16 -25 -13 -35 -13 -59 -4 -44 19 -50 57
-13 88 16 14 30 29 30 34 3 16 4 18 17 18 8 0 21 -8 31 -19z m-2347 -124 c20
-17 22 -54 3 -42 -5 3 -25 -15 -45 -40 -37 -44 -41 -75 -11 -75 17 0 82 79 78
96 -5 22 18 26 44 9 26 -17 28 -40 3 -40 -8 0 -31 -21 -51 -46 -21 -26 -45
-50 -54 -53 -22 -8 -67 18 -84 48 -12 24 -11 30 26 83 21 31 39 61 40 67 2 24
5 27 17 20 6 -4 22 -16 34 -27z m2223 13 c13 -25 4 -43 -18 -36 -24 7 -54 -18
-46 -38 8 -21 20 -20 33 2 10 16 12 16 26 -2 20 -26 19 -33 -7 -39 -21 -6 -21
-7 -3 -27 17 -19 19 -19 37 -3 10 9 17 22 14 29 -3 7 1 17 8 23 9 8 18 5 35
-13 l21 -23 -66 -51 c-64 -49 -92 -58 -80 -25 8 19 -60 108 -82 108 -9 0 -17
5 -17 11 0 12 112 104 126 104 5 0 13 -9 19 -20z m-168 -131 c-1 -12 5 -61 13
-107 9 -46 14 -86 12 -88 -2 -2 -39 22 -82 55 -43 32 -85 58 -93 57 -31 -2
-21 21 19 43 33 19 43 21 50 10 4 -8 4 -16 -2 -20 -6 -3 7 -19 27 -34 l37 -28
-6 24 c-4 13 -7 31 -7 40 0 9 -9 19 -20 22 -27 7 -25 19 8 39 34 22 48 18 44
-13z m-1866 -11 c30 -18 57 -41 60 -50 9 -29 -6 -58 -33 -69 -24 -9 -25 -13
-20 -54 7 -50 -1 -61 -31 -39 -18 13 -21 21 -16 58 4 28 2 46 -5 51 -16 9 -42
-26 -31 -40 5 -6 6 -16 2 -22 -5 -8 -19 -4 -47 13 -43 25 -52 49 -21 49 26 0
76 82 69 113 -7 30 9 28 73 -10z m1677 -82 c3 -7 1 -18 -4 -23 -9 -9 4 -50 46
-156 6 -15 -6 -12 -65 18 -39 20 -75 34 -78 31 -10 -10 17 -56 33 -56 28 0 15
-26 -20 -43 -33 -15 -36 -16 -42 -1 -3 9 -1 19 4 23 15 9 -32 111 -50 111 -26
0 -27 27 -1 39 35 15 49 14 95 -10 23 -11 43 -18 45 -16 9 9 -8 35 -27 40 -28
7 -23 21 14 40 40 20 44 20 50 3z m-1481 -23 c80 -33 81 -34 69 -66 -12 -30
-41 -27 -41 3 0 23 -39 37 -51 19 -14 -22 -11 -29 11 -29 22 0 26 -16 10 -40
-8 -13 -11 -13 -19 -1 -12 19 -41 6 -41 -18 0 -22 38 -35 57 -19 22 18 36 -4
22 -34 l-11 -26 -74 31 c-53 22 -74 36 -71 47 2 8 8 14 14 13 16 -3 54 95 47
123 -8 30 0 30 78 -3z m235 -150 c7 -53 17 -100 24 -104 7 -4 9 -14 6 -23 -5
-14 -10 -14 -52 0 -25 9 -45 18 -45 20 0 2 9 12 21 23 23 21 19 25 -28 35 -30
7 -54 -6 -34 -19 6 -3 8 -12 5 -20 -5 -11 -12 -11 -42 -1 -34 12 -54 44 -25
39 7 -2 43 33 80 77 37 43 70 77 73 74 3 -3 10 -49 17 -101z m1008 61 c-22
-16 10 -124 36 -124 38 0 19 -30 -26 -41 -24 -6 -48 -11 -52 -11 -15 1 -15 32
0 32 22 0 -11 111 -35 118 -32 8 -19 28 30 43 49 16 77 6 47 -17z m-872 -28
c26 -6 38 -31 17 -38 -5 -1 -14 -27 -20 -57 -8 -42 -7 -57 2 -63 7 -4 17 -6
23 -5 14 5 36 109 25 122 -15 19 4 33 38 28 31 -5 47 -33 18 -33 -9 0 -16 -17
-21 -52 -10 -74 -27 -98 -70 -98 -22 0 -43 8 -55 20 -23 23 -23 21 -10 90 7
40 7 56 -1 61 -15 9 -4 40 13 35 7 -3 25 -7 41 -10z m647 -31 c0 -37 -15 -46
-34 -20 -15 21 -56 8 -56 -17 0 -17 5 -19 25 -14 22 6 25 3 25 -18 0 -19 -4
-23 -20 -19 -16 4 -20 0 -20 -20 0 -19 6 -26 22 -29 30 -4 34 -24 6 -32 -44
-11 -98 -7 -98 8 0 8 5 16 11 18 17 6 1 118 -17 118 -8 0 -14 8 -14 19 0 15
12 20 83 28 45 6 83 11 85 12 1 0 2 -15 2 -34z m-241 -9 c53 -28 66 -97 26
-144 -31 -37 -81 -48 -129 -28 -40 17 -56 42 -56 88 0 78 84 123 159 84z"/>
<path d="M2776 4224 c-19 -19 -30 -58 -22 -79 3 -8 17 -20 31 -27 22 -10 29
-9 45 8 31 31 35 69 11 93 -25 25 -44 27 -65 5z"/>
<path d="M2101 4019 c-271 -49 -523 -163 -731 -333 -647 -526 -787 -1445 -325
-2136 236 -352 588 -588 1016 -682 90 -19 132 -22 319 -22 194 0 226 3 330 26
428 96 784 343 1024 711 92 141 181 368 223 567 28 132 25 469 -5 606 -46 212
-137 426 -254 596 -225 329 -592 571 -996 659 -148 32 -447 36 -601 8z m368
-137 l64 -3 -51 -36 -51 -35 19 -51 c11 -28 17 -53 15 -56 -3 -2 -23 10 -44
27 -22 18 -43 32 -47 32 -3 0 -28 -16 -55 -36 l-48 -35 19 57 c11 31 20 59 20
60 0 2 -24 19 -52 39 l-53 35 66 0 c65 0 67 1 72 28 3 15 11 41 17 57 l12 30
17 -55 17 -55 63 -3z m-718 -135 c3 -5 29 6 58 22 28 17 54 31 56 31 2 0 -9
-25 -26 -55 l-30 -55 41 -41 c44 -45 48 -53 23 -45 -10 2 -36 7 -59 11 l-40 6
-24 -51 c-27 -57 -30 -54 -45 33 -5 33 -9 37 -38 38 -18 1 -43 4 -57 8 -24 7
-22 9 25 32 29 14 50 30 49 39 0 8 -4 35 -8 60 l-7 45 38 -35 c21 -19 40 -39
44 -43z m1315 43 c-19 -96 -23 -85 40 -110 46 -19 54 -25 38 -31 -10 -4 -32
-8 -49 -8 -45 -2 -57 -14 -62 -65 -3 -26 -9 -48 -13 -51 -4 -2 -17 18 -30 45
-26 55 -22 54 -120 34 -23 -5 -21 -1 18 39 l44 44 -26 52 c-15 28 -23 51 -19
51 5 0 28 -12 52 -26 l45 -25 40 41 c22 22 42 40 44 40 2 0 1 -13 -2 -30z
m-1696 -520 c60 -17 59 -21 -12 -40 l-48 -13 -1 -61 0 -61 -22 29 c-56 73 -48
69 -92 53 -22 -8 -49 -18 -60 -23 -15 -6 -10 5 19 44 l38 52 -37 50 c-20 28
-34 50 -31 50 3 0 28 -9 56 -20 28 -11 52 -20 54 -20 2 0 19 24 37 52 l34 53
5 -65 5 -64 55 -16z m2128 70 l18 -22 54 21 c68 26 68 26 43 -1 -11 -13 -28
-35 -38 -50 -17 -27 -17 -28 20 -78 20 -27 35 -50 32 -50 -2 0 -29 9 -59 19
l-56 19 -33 -46 -34 -47 -5 60 -5 59 -55 16 c-60 17 -59 21 13 40 l47 13 0 61
1 61 20 -27 c11 -14 27 -36 37 -48z m-1087 14 l24 -37 200 1 200 2 48 -61 c27
-33 47 -62 45 -63 -1 -1 -16 -10 -31 -20 -53 -33 -67 -70 -67 -183 l0 -103
-90 0 -90 0 0 -360 0 -360 -90 0 -90 0 0 360 0 360 -90 0 -90 0 0 -360 0 -360
-90 0 -90 0 0 360 0 360 -84 0 -84 0 -4 103 c-4 116 -20 154 -75 184 l-33 18
63 63 62 63 174 -2 175 -1 23 28 c13 16 23 32 23 37 0 21 40 2 61 -29z m-1316
-629 l60 7 -41 -42 -41 -42 29 -54 30 -55 -56 28 -56 27 -44 -43 -43 -42 8 48
c4 26 8 54 8 60 1 7 -23 25 -51 40 l-53 27 60 10 c53 10 60 14 63 36 1 14 5
41 8 60 l6 35 27 -53 26 -53 60 6z m2691 -2 c3 -18 13 -22 66 -28 l62 -7 -57
-30 c-58 -29 -58 -29 -52 -66 4 -20 9 -45 12 -54 7 -26 -4 -22 -43 17 -19 19
-40 35 -47 35 -7 0 -30 -11 -52 -25 -22 -13 -43 -25 -47 -25 -3 0 7 24 22 53
l29 52 -42 43 -42 44 60 -7 61 -6 24 52 25 52 8 -39 c4 -21 10 -49 13 -61z
m-2769 -608 l45 -34 46 34 c25 20 47 34 48 32 2 -2 -5 -26 -16 -54 l-19 -52
41 -30 c23 -17 46 -31 52 -31 5 0 6 -3 3 -7 -4 -4 -32 -6 -61 -4 l-55 2 -17
-55 c-10 -31 -20 -53 -23 -50 -3 3 -13 26 -22 52 l-16 47 -60 -1 -61 -1 47 35
c25 19 47 36 49 37 1 1 -7 27 -17 58 -11 32 -18 57 -15 57 3 0 26 -16 51 -35z
m2666 -25 c5 0 27 14 49 31 21 17 41 29 44 27 2 -3 -3 -24 -11 -48 -8 -23 -15
-48 -15 -54 0 -7 21 -25 47 -42 l47 -29 -61 -3 -60 -3 -17 -54 c-9 -30 -19
-55 -21 -55 -2 0 -12 25 -21 55 l-18 55 -60 0 c-53 1 -58 2 -40 13 11 7 33 22
48 34 l28 22 -16 48 c-23 66 -21 68 26 34 23 -17 46 -31 51 -31z m-2172 10
c19 0 8 -20 -26 -45 l-34 -27 -25 29 c-13 15 -23 30 -21 32 8 7 71 19 83 15 8
-2 18 -4 23 -4z m1867 -4 c2 -3 -6 -19 -18 -36 l-22 -30 -31 22 c-18 12 -34
23 -36 24 -2 2 -1 11 3 20 5 14 15 16 53 10 25 -3 48 -8 51 -10z m-1232 -4
c20 -13 36 -54 30 -77 -7 -27 -73 -88 -87 -80 -5 4 -9 14 -9 24 0 21 -30 84
-37 77 -2 -2 1 -15 8 -27 18 -34 28 -88 18 -95 -5 -3 -9 -13 -9 -22 0 -12 -20
-23 -72 -40 -39 -12 -129 -49 -199 -83 -179 -85 -181 -85 -276 51 -40 58 -73
105 -73 105 120 0 124 1 320 82 107 44 204 83 215 86 32 8 159 7 171 -1z m784
-47 c63 -26 153 -63 200 -83 65 -27 100 -35 147 -36 35 -1 63 -2 63 -4 0 -1
-32 -50 -72 -107 -71 -104 -73 -105 -112 -105 -29 0 -79 18 -176 65 -85 40
-157 68 -190 72 -43 7 -56 12 -58 28 -2 11 -10 27 -18 36 -8 9 -11 19 -7 22 3
4 -3 7 -15 7 -20 0 -22 5 -22 50 0 28 -3 50 -8 50 -4 0 -6 -18 -4 -40 5 -44
-6 -50 -33 -20 -27 29 -24 79 6 103 21 17 35 19 104 15 66 -4 99 -13 195 -53z
m-1375 -42 c11 -29 16 -56 12 -59 -4 -4 -28 -9 -54 -11 -38 -4 -54 -1 -73 15
-19 16 -22 24 -15 41 11 23 97 82 106 72 3 -3 14 -30 24 -58z m1750 36 c25
-17 50 -40 56 -52 10 -17 8 -24 -12 -40 -19 -15 -35 -18 -76 -15 -29 3 -55 7
-57 9 -4 4 36 129 41 129 1 0 22 -14 48 -31z m-1100 -196 c-7 -28 -10 -28 -80
-2 -63 23 -72 47 -29 76 15 10 41 32 58 48 l31 30 13 -64 c7 -36 11 -75 7 -88z
m493 65 c12 -10 22 -22 22 -28 0 -25 -131 -63 -144 -42 -6 9 -1 42 19 130 6
24 6 24 44 -10 21 -18 48 -41 59 -50z m37 -175 l7 -102 -41 -20 c-22 -12 -71
-28 -108 -37 -98 -23 -318 -15 -438 15 -134 33 -130 28 -109 156 14 90 20 105
33 99 67 -30 204 -57 291 -57 96 1 312 41 334 63 17 17 23 -8 31 -117z m638
-186 c5 -14 14 -17 37 -13 16 3 45 9 63 12 l32 6 -44 -45 -44 -46 28 -46 c14
-26 24 -49 21 -52 -3 -3 -26 7 -52 22 l-46 27 -45 -43 -44 -44 6 45 c4 25 8
51 11 57 2 7 -19 24 -46 38 -28 14 -50 27 -50 29 0 3 25 10 55 16 l54 11 7 60
7 60 21 -38 c12 -21 25 -46 29 -56z m-1864 -42 l63 -10 -57 -28 c-63 -31 -61
-25 -38 -127 5 -22 0 -20 -41 20 l-47 45 -48 -28 c-27 -15 -51 -27 -54 -27 -3
0 8 24 23 53 l29 52 -41 43 c-46 46 -41 50 35 33 l38 -9 27 55 27 55 10 -58
11 -59 63 -10z m440 -266 c17 -22 21 -22 61 -10 23 7 49 15 58 18 9 4 3 -11
-16 -40 -18 -25 -32 -49 -32 -52 0 -4 16 -27 36 -51 40 -48 37 -51 -26 -29
-23 8 -46 15 -50 15 -5 0 -21 -20 -37 -45 -15 -25 -31 -45 -35 -45 -4 0 -8 25
-10 56 l-3 57 -55 16 -55 17 55 20 55 20 -3 64 -2 65 20 -27 c11 -14 29 -37
39 -49z m909 -10 l-3 -62 40 -13 c72 -25 72 -26 15 -43 l-55 -17 -5 -63 -5
-63 -30 51 c-16 28 -32 51 -35 51 -3 0 -27 -7 -54 -15 -27 -8 -51 -13 -54 -11
-2 3 10 23 28 44 36 45 35 63 -7 112 -28 34 -22 37 30 15 53 -22 63 -19 98 30
18 25 34 45 36 45 3 0 3 -28 1 -61z"/>
<path d="M2335 3296 c-10 -15 -14 -33 -9 -50 3 -14 4 -26 1 -26 -26 0 -204
-43 -214 -52 -20 -17 -54 -17 -60 -1 -6 15 -29 18 -37 4 -3 -5 3 -20 14 -34
l20 -25 -36 -30 c-43 -36 -42 -57 5 -89 42 -28 76 -29 119 -3 49 30 51 48 8
87 -36 33 -37 36 -20 51 15 14 31 16 108 10 50 -3 94 -7 98 -7 4 -1 14 -8 23
-17 15 -15 17 -15 35 1 29 27 201 37 229 14 20 -17 20 -17 -22 -53 l-42 -36
32 -30 c36 -33 71 -45 105 -36 27 7 78 49 78 64 0 6 -16 24 -36 40 -35 29 -36
31 -20 53 9 13 16 29 16 36 0 17 -26 17 -33 0 -6 -16 -39 -16 -59 0 -7 6 -51
18 -98 27 -119 23 -128 28 -123 63 9 57 -52 85 -82 39z m63 -24 c4 -28 -24
-40 -45 -19 -14 13 -14 19 -3 32 18 22 44 15 48 -13z m-328 -196 c0 -28 -4
-35 -22 -38 -13 -2 -22 -9 -20 -16 3 -18 -16 -14 -27 6 -8 14 -3 23 27 49 20
18 38 32 40 33 1 0 2 -15 2 -34z m70 -11 l25 -26 -40 3 c-37 3 -40 5 -43 36
-3 30 -1 32 15 24 10 -6 29 -22 43 -37z m517 -21 c-2 -2 -15 -5 -30 -6 -20 -2
-23 -5 -15 -15 7 -9 7 -13 0 -13 -6 0 -16 9 -22 19 -8 16 -4 24 28 49 l37 30
3 -30 c2 -16 2 -32 -1 -34z m83 11 c12 -15 10 -16 -26 -13 -36 3 -39 5 -42 37
l-3 33 29 -20 c16 -12 35 -28 42 -37z"/>
<path d="M1968 2023 c-10 -2 -18 -8 -18 -13 0 -5 6 -7 14 -4 11 4 17 -6 23
-37 5 -23 14 -44 22 -47 10 -3 11 0 3 14 -5 11 -12 33 -15 51 -5 25 -2 33 11
36 13 4 13 5 -3 5 -11 0 -28 -2 -37 -5z"/>
<path d="M1910 2002 c0 -20 33 -102 40 -102 5 0 2 16 -6 35 -7 19 -14 44 -14
55 0 11 -4 20 -10 20 -5 0 -10 -4 -10 -8z"/>
<path d="M1841 1930 c10 -21 19 -44 19 -50 0 -5 6 -10 13 -10 10 0 7 14 -11
50 -13 28 -28 50 -32 50 -5 0 0 -18 11 -40z"/>
<path d="M1775 1948 c-11 -6 -21 -12 -23 -13 -8 -7 44 -95 56 -95 10 0 10 3
-2 16 -21 20 -20 30 2 44 15 9 14 10 -6 5 -15 -5 -24 -1 -29 10 -6 18 15 38
31 28 5 -3 6 -1 2 5 -8 14 -6 14 -31 0z"/>
<path d="M1685 1902 c-7 -5 -4 -25 10 -59 21 -51 22 -52 43 -37 38 27 23 104
-21 104 -12 0 -27 -4 -32 -8z m55 -23 c13 -24 10 -61 -6 -66 -7 -2 -16 9 -22
24 -5 15 -13 36 -17 46 -11 25 31 23 45 -4z"/>
<path d="M1647 1826 c15 -30 30 -53 34 -51 8 6 -42 105 -53 105 -4 0 4 -25 19
-54z"/>
<path d="M1830 1859 c0 -5 5 -7 10 -4 6 3 10 8 10 11 0 2 -4 4 -10 4 -5 0 -10
-5 -10 -11z"/>
<path d="M1573 1806 c18 -30 34 -50 36 -44 2 5 -2 15 -8 21 -16 16 -14 27 5
27 8 0 12 5 9 10 -5 8 -11 8 -20 0 -9 -8 -15 -6 -20 7 -5 10 -7 21 -7 26 1 4
-5 7 -13 7 -10 0 -5 -15 18 -54z"/>
<path d="M2700 2026 c0 -8 3 -16 8 -18 4 -1 15 -20 25 -42 10 -21 20 -36 23
-33 3 3 -5 28 -18 56 -22 50 -38 65 -38 37z"/>
<path d="M2793 2023 c17 -5 16 -24 -4 -80 -5 -14 -5 -23 1 -23 9 0 30 62 30
89 0 11 3 11 15 1 9 -7 15 -8 15 -2 0 12 -25 22 -53 21 -17 -1 -18 -2 -4 -6z"/>
<path d="M2855 1968 c-9 -24 -19 -49 -22 -55 -3 -7 -1 -13 5 -13 5 0 13 12 16
26 5 20 11 24 29 19 20 -7 21 -6 4 7 -26 20 -13 51 16 37 21 -10 21 -10 3 5
-28 23 -32 21 -51 -26z"/>
<path d="M2931 1959 c-16 -16 -21 -30 -19 -57 2 -19 9 -37 16 -38 7 -1 8 0 2
3 -18 8 -11 62 11 84 27 27 19 35 -10 8z"/>
<path d="M2977 1955 c3 -8 9 -12 14 -9 12 7 11 11 -5 17 -10 4 -13 1 -9 -8z"/>
<path d="M2997 1898 c-9 -29 -14 -54 -11 -57 2 -3 7 5 11 17 8 32 23 27 23 -8
0 -16 4 -30 8 -30 5 0 7 13 4 28 -2 18 2 33 12 41 20 17 20 26 0 45 -24 24
-29 20 -47 -36z m46 26 c9 -10 -4 -34 -19 -34 -16 0 -16 2 -8 24 6 17 16 20
27 10z"/>
<path d="M2960 1901 c0 -5 -3 -18 -6 -28 -5 -16 -4 -16 10 1 18 23 20 36 6 36
-5 0 -10 -4 -10 -9z"/>
<path d="M3077 1859 c-10 -28 -16 -53 -14 -55 4 -4 14 16 44 94 3 6 1 12 -4
12 -4 0 -16 -23 -26 -51z"/>
<path d="M2868 1893 c7 -3 16 -2 19 1 4 3 -2 6 -13 5 -11 0 -14 -3 -6 -6z"/>
<path d="M3125 1890 c-3 -6 1 -10 9 -10 20 0 20 1 -4 -54 -10 -25 -16 -46 -11
-46 5 0 16 21 26 46 12 31 22 44 31 40 25 -10 15 3 -15 19 -19 9 -32 11 -36 5z"/>
<path d="M3200 1826 c0 -25 -4 -48 -10 -51 -12 -7 -13 -25 -2 -25 10 0 32 60
32 88 0 11 -4 24 -10 27 -6 4 -10 -11 -10 -39z"/>
<path d="M2078 1737 l-14 -62 26 -11 c31 -14 54 1 46 30 -3 12 -1 28 4 36 11
17 -3 46 -29 60 -18 9 -21 4 -33 -53z m50 15 c2 -16 -2 -22 -14 -22 -14 0 -15
-3 -6 -12 18 -18 15 -50 -4 -46 -18 4 -18 1 -9 61 8 49 27 60 33 19z"/>
<path d="M2680 1770 c0 -11 2 -20 4 -20 2 0 6 9 9 20 3 11 1 20 -4 20 -5 0 -9
-9 -9 -20z"/>
<path d="M2627 1764 c-3 -3 6 -22 19 -42 14 -20 23 -45 20 -55 -3 -11 0 -16 7
-14 7 3 11 9 10 15 -2 6 -4 24 -5 41 -1 16 -5 28 -9 25 -4 -2 -14 5 -22 16 -7
11 -16 17 -20 14z"/>
<path d="M2170 1733 c0 -15 -4 -42 -9 -60 -7 -24 -6 -33 5 -37 10 -4 14 3 15
27 l1 32 15 -37 c18 -43 38 -53 22 -11 -7 20 -7 34 2 51 16 28 2 55 -30 60
-17 3 -21 -2 -21 -25z m44 1 c8 -20 -1 -34 -20 -34 -15 0 -17 9 -8 34 8 20 20
20 28 0z"/>
<path d="M2544 1728 c3 -13 5 -42 5 -65 1 -25 6 -43 12 -43 7 0 10 12 7 30 -6
37 4 38 26 5 10 -15 22 -23 28 -18 9 5 9 8 0 11 -22 7 -35 42 -22 58 19 22 4
44 -30 44 -26 0 -29 -3 -26 -22z m44 -10 c-5 -32 -28 -35 -28 -4 0 17 5 26 16
26 10 0 14 -7 12 -22z"/>
<path d="M2448 1674 l4 -65 31 3 c17 2 32 9 33 16 1 7 0 8 -3 2 -2 -5 -13 -10
-24 -10 -14 0 -19 7 -19 25 0 18 5 25 20 25 11 0 20 5 20 11 0 6 -9 8 -20 4
-14 -5 -20 -2 -20 9 0 9 0 19 -1 24 0 4 10 10 23 14 19 5 17 6 -12 7 l-35 1 3
-66z"/>
<path d="M2293 1718 c20 -54 20 -61 -1 -56 -14 4 -23 -1 -31 -18 -6 -15 -7
-24 -1 -24 6 0 10 7 10 15 0 8 9 15 20 15 18 0 25 -10 21 -32 0 -5 5 -8 12 -8
11 0 11 11 -2 60 -9 33 -20 60 -24 60 -5 0 -7 -6 -4 -12z"/>
<path d="M2340 1726 c0 -4 26 -80 36 -106 5 -12 8 -11 14 5 5 11 9 27 9 35 0
9 -4 7 -9 -5 -6 -17 -10 -12 -20 28 -7 26 -16 47 -21 47 -5 0 -9 -2 -9 -4z"/>
<path d="M2400 1705 c0 -14 2 -25 4 -25 2 0 6 11 8 25 3 14 1 25 -3 25 -5 0
-9 -11 -9 -25z"/>
<path d="M1253 3904 c-3 -8 -1 -20 6 -27 14 -14 47 15 37 32 -10 16 -36 13
-43 -5z"/>
<path d="M1080 3721 c0 -4 6 -15 13 -24 10 -14 15 -14 30 -3 16 13 16 15 -13
24 -16 6 -30 8 -30 3z"/>
<path d="M931 3597 c-8 -11 -6 -18 8 -31 11 -10 25 -15 30 -11 16 10 13 42 -5
49 -21 8 -20 8 -33 -7z"/>
<path d="M696 3204 c-25 -25 -19 -34 37 -58 55 -25 67 -21 67 21 0 43 -72 69
-104 37z"/>
<path d="M4160 2448 c-44 -16 -52 -46 -20 -78 25 -25 61 -26 90 -2 48 39 -8
103 -70 80z"/>
<path d="M555 2241 c-33 -5 -39 -10 -37 -26 6 -32 22 -45 57 -45 36 0 65 26
65 58 0 24 -8 25 -85 13z"/>
<path d="M712 1812 c-15 -10 -5 -42 13 -42 18 0 26 15 19 34 -7 18 -13 19 -32
8z"/>
<path d="M4052 1822 c-10 -7 -8 -12 7 -26 17 -15 19 -15 25 -1 13 34 -1 46
-32 27z"/>
<path d="M770 1569 c11 -20 12 -20 31 -3 25 23 24 24 -11 24 -28 0 -30 -2 -20
-21z"/>
<path d="M1121 1196 c-14 -17 -7 -36 14 -36 22 0 29 20 13 36 -13 13 -16 13
-27 0z"/>
<path d="M1060 1135 c-10 -11 -10 -19 -2 -27 15 -15 44 -2 40 19 -4 23 -22 27
-38 8z"/>
<path d="M1460 936 c-15 -19 -5 -36 21 -36 22 0 25 22 5 39 -10 9 -16 8 -26
-3z"/>
<path d="M1852 720 c-16 -27 -15 -30 8 -30 15 0 20 7 20 25 0 30 -11 32 -28 5z"/>
<path d="M2370 680 c-24 -24 -26 -57 -4 -88 17 -25 42 -28 69 -8 26 19 23 76
-6 98 -27 23 -35 22 -59 -2z"/>
<path d="M2630 4575 c0 -19 4 -35 8 -35 4 0 6 16 4 35 -2 19 -6 35 -8 35 -2 0
-4 -16 -4 -35z"/>
<path d="M3295 4590 c10 -11 20 -20 23 -20 3 0 -3 9 -13 20 -10 11 -20 20 -23
20 -3 0 3 -9 13 -20z"/>
<path d="M2111 4574 c0 -11 3 -14 6 -6 3 7 2 16 -1 19 -3 4 -6 -2 -5 -13z"/>
<path d="M1394 4538 l-19 -23 23 19 c21 18 27 26 19 26 -2 0 -12 -10 -23 -22z"/>
<path d="M1324 4448 l-19 -23 23 19 c21 18 27 26 19 26 -2 0 -12 -10 -23 -22z"/>
<path d="M3400 4456 c0 -2 8 -10 18 -17 15 -13 16 -12 3 4 -13 16 -21 21 -21
13z"/>
<path d="M960 4388 c11 -12 20 -25 20 -29 0 -4 6 -14 13 -21 7 -7 39 -50 70
-95 53 -75 77 -103 77 -89 0 3 -15 25 -32 50 -18 24 -59 80 -91 125 -32 44
-62 81 -68 81 -5 0 -1 -10 11 -22z"/>
<path d="M1300 4375 c0 -5 12 -28 26 -50 18 -29 23 -33 18 -15 -4 14 -10 27
-14 30 -4 3 -12 14 -18 25 -6 11 -12 16 -12 10z"/>
<path d="M1060 4296 c0 -2 8 -10 18 -17 15 -13 16 -12 3 4 -13 16 -21 21 -21
13z"/>
<path d="M3736 4248 c3 -5 10 -6 15 -3 13 9 11 12 -6 12 -8 0 -12 -4 -9 -9z"/>
<path d="M840 4087 c0 -5 102 -107 107 -107 2 0 1 5 -2 10 -4 6 -1 18 6 26 9
12 10 17 0 27 -10 9 -11 8 -6 -4 4 -10 2 -20 -4 -24 -14 -8 -63 44 -54 59 3 6
3 8 -2 4 -4 -4 -16 -3 -26 3 -11 5 -19 8 -19 6z"/>
<path d="M3855 4046 c-12 -11 -28 -30 -35 -41 -15 -19 -15 -19 12 0 25 19 53
54 46 60 -2 1 -12 -7 -23 -19z"/>
<path d="M4139 3963 c-13 -16 -12 -17 4 -4 9 7 17 15 17 17 0 8 -8 3 -21 -13z"/>
<path d="M810 3916 c0 -2 8 -10 18 -17 15 -13 16 -12 3 4 -13 16 -21 21 -21
13z"/>
<path d="M350 3384 c0 -4 96 -54 104 -54 3 0 3 7 0 15 -4 8 -17 15 -29 15 -13
0 -26 4 -29 9 -6 9 -46 22 -46 15z"/>
<path d="M4341 3365 c-30 -14 -52 -28 -49 -30 5 -5 108 42 108 50 0 7 0 7 -59
-20z"/>
<path d="M75 3191 c6 -5 24 -13 40 -17 39 -9 30 0 -15 15 -19 6 -30 7 -25 2z"/>
<path d="M4605 3170 c-25 -11 1 -11 35 0 20 6 21 8 5 8 -11 0 -29 -3 -40 -8z"/>
<path d="M170 3159 c56 -23 202 -67 194 -59 -10 9 -195 70 -210 69 -5 0 2 -5
16 -10z"/>
<path d="M4490 3135 c-36 -13 -74 -26 -85 -29 -10 -3 -16 -8 -13 -11 6 -7 53
8 143 44 69 28 34 24 -45 -4z"/>
<path d="M4550 2874 c-17 -9 -20 -14 -9 -14 9 0 22 7 29 15 15 18 13 18 -20
-1z"/>
<path d="M170 2876 c0 -2 9 -6 20 -9 11 -3 18 -1 14 4 -5 9 -34 13 -34 5z"/>
<path d="M235 2860 c11 -5 31 -9 45 -9 20 -1 22 1 10 9 -8 5 -28 9 -45 9 -26
0 -27 -2 -10 -9z"/>
<path d="M4465 2850 c-18 -8 -18 -9 5 -9 14 0 32 4 40 9 12 8 12 10 -5 9 -11
0 -29 -4 -40 -9z"/>
<path d="M105 2106 c10 -14 19 -26 22 -26 7 0 -17 39 -28 46 -6 3 -3 -5 6 -20z"/>
<path d="M260 2106 c0 -8 4 -17 9 -20 5 -4 7 3 4 14 -6 23 -13 26 -13 6z"/>
<path d="M230 2034 l-35 -14 45 6 c25 3 49 10 55 15 14 13 -24 9 -65 -7z"/>
<path d="M4450 2027 c9 -10 120 -25 125 -17 2 4 -1 7 -8 7 -7 0 -37 4 -67 8
-30 4 -53 5 -50 2z"/>
<path d="M335 1790 c-3 -5 -1 -10 4 -10 6 0 11 5 11 10 0 6 -2 10 -4 10 -3 0
-8 -4 -11 -10z"/>
<path d="M225 1755 c-108 -40 -102 -45 10 -9 83 28 91 31 84 38 -2 2 -44 -11
-94 -29z"/>
<path d="M4438 1761 c29 -9 49 -20 45 -25 -4 -4 -1 -5 7 -2 8 3 53 -7 100 -23
47 -16 87 -27 89 -25 2 2 2 5 0 7 -9 7 -275 87 -284 86 -5 -1 14 -9 43 -18z"/>
<path d="M90 1710 c-18 -12 -2 -12 25 0 13 6 15 9 5 9 -8 0 -22 -4 -30 -9z"/>
<path d="M4290 1541 c0 -5 8 -11 18 -14 9 -3 35 -12 57 -22 22 -9 36 -12 30
-7 -16 16 -105 52 -105 43z"/>
<path d="M4327 1499 c7 -7 15 -10 18 -7 3 3 -2 9 -12 12 -14 6 -15 5 -6 -5z"/>
<path d="M4335 1240 c10 -11 20 -20 23 -20 3 0 -3 9 -13 20 -10 11 -20 20 -23
20 -3 0 3 -9 13 -20z"/>
<path d="M3613 709 c-2 -23 3 -25 10 -4 4 8 3 16 -1 19 -4 3 -9 -4 -9 -15z"/>
<path d="M3627 686 c-4 -9 -1 -13 6 -10 16 6 100 -123 90 -139 -4 -8 -1 -8 9
1 15 12 11 21 -35 87 -29 41 -55 74 -58 75 -4 0 -9 -7 -12 -14z"/>
<path d="M967 597 c-3 -8 1 -14 8 -14 7 0 11 6 8 14 -3 7 -6 13 -8 13 -2 0 -5
-6 -8 -13z"/>
<path d="M1330 591 c0 -7 -4 -10 -9 -7 -5 3 -8 -2 -7 -12 0 -9 -4 -16 -11 -15
-7 2 -10 -4 -7 -12 4 -8 -1 -26 -9 -39 -15 -22 -15 -25 5 -42 21 -19 21 -19 8
2 -11 18 -9 28 14 74 15 29 24 55 21 58 -3 3 -5 0 -5 -7z"/>
<path d="M3750 536 c0 -4 11 -21 25 -38 14 -16 25 -26 25 -21 0 11 -49 70 -50
59z"/>
<path d="M3410 428 c-15 -21 -17 -28 -6 -19 16 13 41 51 33 51 -2 0 -14 -15
-27 -32z"/>
<path d="M1335 410 c10 -11 20 -20 23 -20 3 0 -3 9 -13 20 -10 11 -20 20 -23
20 -3 0 3 -9 13 -20z"/>
<path d="M2625 296 c3 -27 5 -57 5 -67 0 -11 4 -19 9 -19 10 0 5 55 -10 105
-7 24 -8 20 -4 -19z"/>
<path d="M2364 185 c0 -82 2 -115 3 -72 2 43 2 110 0 150 -1 40 -3 5 -3 -78z"/>
<path d="M3314 308 l-19 -23 23 19 c12 11 22 21 22 23 0 8 -8 2 -26 -19z"/>
<path d="M2360 10 c0 -5 5 -10 10 -10 6 0 10 5 10 10 0 6 -4 10 -10 10 -5 0
-10 -4 -10 -10z"/>
</g>
</svg>
