<svg version="1.1" id="Layer_1" xmlns="http://www.w3.org/2000/svg" xmlns:xlink="http://www.w3.org/1999/xlink" x="0px" y="0px"
	 width="100%" viewBox="0 0 200 200" enable-background="new 0 0 200 200" xml:space="preserve">
<path fill="#015CB9" opacity="1.000000" stroke="none" 
	d="
M105.000000,201.000000 
	C70.021568,201.000000 35.543133,201.000000 1.032351,201.000000 
	C1.032351,134.396591 1.032351,67.793159 1.032351,1.094864 
	C67.561630,1.094864 134.123428,1.094864 200.842621,1.094864 
	C200.842621,67.666374 200.842621,134.333145 200.842621,201.000000 
	C169.126724,201.000000 137.313370,201.000000 105.000000,201.000000 
M55.645531,85.638214 
	C55.216850,85.705162 54.788174,85.772118 53.690510,85.535942 
	C50.548344,85.220642 50.914940,87.446762 50.460079,89.935631 
	C50.370640,90.610184 50.281197,91.284744 49.991123,92.592110 
	C50.005924,92.812904 50.020725,93.033699 49.738182,93.826057 
	C49.548672,94.884979 49.359165,95.943909 48.952583,97.611473 
	C48.955399,98.039291 48.958214,98.467102 48.609455,99.452469 
	C48.715099,100.698006 48.820744,101.943550 48.960327,103.801697 
	C49.660065,104.519768 50.359806,105.237831 51.658310,106.424988 
	C56.475647,106.348007 61.292984,106.271019 66.542206,106.071373 
	C66.542206,106.071373 66.978081,105.963783 67.550423,106.209595 
	C68.345413,106.423927 69.140411,106.638260 70.450912,107.095467 
	C70.358818,107.684624 70.361252,108.750114 70.160172,108.790009 
	C67.892357,109.240051 65.603722,109.668732 63.300922,109.844925 
	C50.795677,110.801765 38.277649,111.605270 25.787394,112.722733 
	C24.571594,112.831505 23.515350,114.723686 22.438263,115.962082 
	C22.438263,115.962082 22.277742,116.047852 21.742281,116.501152 
	C20.922794,119.233223 17.833866,121.706741 21.000429,124.822258 
	C21.000429,124.822258 21.107183,125.010620 21.579531,125.401268 
	C22.737564,124.975876 23.895597,124.550484 25.631231,123.876747 
	C26.046000,123.834648 26.460768,123.792549 27.621296,123.909676 
	C29.103165,124.034615 30.642427,124.482285 32.057335,124.230675 
	C39.675991,122.875832 47.280903,121.427467 54.847481,119.809891 
	C56.329639,119.493034 57.622120,118.288910 59.186729,117.461632 
	C59.186729,117.461632 59.236080,117.642479 60.265327,117.815483 
	C65.504036,117.321182 71.136139,119.859001 76.441963,115.481071 
	C77.035652,115.514320 77.629341,115.547569 79.262474,115.801888 
	C95.711235,115.856216 112.191864,116.570358 128.599747,115.778023 
	C144.783936,114.996490 160.881714,119.603630 177.103836,116.018585 
	C169.306000,113.938446 161.743027,110.794868 153.143829,112.491936 
	C153.143829,112.491936 152.923752,112.269142 152.644638,111.530716 
	C150.659470,111.027313 148.693237,110.208473 146.685089,110.087936 
	C142.826569,109.856339 138.944305,110.020508 134.487137,110.020508 
	C136.543457,107.808060 137.811066,106.444214 139.814377,105.042084 
	C140.550674,105.020470 141.286957,104.998863 142.000565,105.001335 
	C142.000565,105.001335 142.010635,104.970428 142.315704,105.385834 
	C142.599670,105.574440 142.883652,105.763054 143.551758,105.989136 
	C143.551758,105.989136 143.915497,106.118126 144.444885,106.675392 
	C146.148544,107.109657 147.895035,108.030449 149.547653,107.884933 
	C154.097855,107.484283 158.608719,106.636963 163.538666,106.040169 
	C163.538666,106.040169 163.924759,106.178757 164.261368,106.769341 
	C166.239746,108.460854 167.869614,108.573761 168.880585,105.351517 
	C168.880585,105.351517 169.076126,104.996635 169.469040,104.381798 
	C169.573410,103.431244 169.677780,102.480690 169.729248,101.193573 
	C169.729248,101.193573 169.944336,100.929359 170.174423,100.781120 
	C170.335144,100.514328 170.299240,100.273766 169.997437,99.511612 
	C170.042419,99.333138 170.087402,99.154655 170.755997,98.648148 
	C172.467377,92.230293 174.324753,85.844452 175.745865,79.362953 
	C175.981659,78.287552 174.540955,76.012421 173.465332,75.699417 
	C172.216064,75.335892 170.515274,76.524109 168.991455,77.005058 
	C168.991455,77.005058 169.030060,77.011269 168.360367,77.280777 
	C167.210281,80.549683 166.060196,83.818581 165.267700,86.071136 
	C161.882416,85.337715 158.850449,84.186531 155.791260,84.108932 
	C145.841736,83.856560 135.882278,83.996880 125.803322,83.256226 
	C124.925529,81.162910 124.047737,79.069595 122.452461,76.834938 
	C121.970741,76.766205 121.489014,76.697472 120.776855,76.448135 
	C120.471809,76.347664 120.209038,76.416550 119.394165,76.829788 
	C118.988136,76.905090 118.582108,76.980385 117.549568,77.233734 
	C117.470161,78.740959 117.390755,80.248177 117.308594,81.815094 
	C117.308594,81.815094 117.313011,81.757080 117.170807,82.553665 
	C117.008919,83.346581 116.847031,84.139503 115.985115,84.781799 
	C113.237732,83.868233 110.490349,82.954674 107.340057,81.907135 
	C106.287903,82.725395 104.543365,84.082130 102.203323,85.434059 
	C101.825363,85.331917 101.447395,85.229767 100.590881,84.606895 
	C95.057678,79.700188 94.645561,79.720642 91.184753,84.982101 
	C87.970665,84.480118 84.756577,83.978142 81.969551,83.542862 
	C81.453003,80.959045 81.056427,78.975319 79.812172,76.838593 
	C79.534172,76.766754 79.256180,76.694916 78.635529,76.334175 
	C78.091354,76.433510 77.547188,76.532845 76.296852,76.824272 
	C76.054703,76.853775 75.812546,76.883270 74.986145,76.981880 
	C74.527122,78.051109 74.067673,79.120148 73.609161,80.189598 
	C72.763100,82.163033 71.917580,84.136703 70.546524,85.611107 
	C66.646545,84.625908 65.615051,86.577477 64.777443,90.125275 
	C63.797901,94.274208 61.631577,98.142960 59.333569,102.088104 
	C58.928589,102.224876 58.523613,102.361641 57.397671,102.368164 
	C56.910999,102.391243 56.424328,102.414322 55.518402,102.195335 
	C55.518402,102.195335 55.034431,102.183403 54.458462,101.651230 
	C54.300755,100.369789 54.143047,99.088341 54.162029,97.747276 
	C54.162029,97.747276 54.039059,97.470604 54.442608,96.663971 
	C54.658207,95.186813 54.873806,93.709656 55.477264,91.677635 
	C55.598530,90.798264 55.719791,89.918900 56.060589,88.427917 
	C56.060009,87.997803 56.059425,87.567696 56.336422,86.897522 
	C56.207798,86.641045 56.079174,86.384567 55.951405,86.045441 
	C55.951405,86.045441 55.868759,86.046593 55.645531,85.638214 
M25.136351,104.652634 
	C25.832851,105.116173 26.522623,105.969940 27.226906,105.982086 
	C33.369041,106.087997 39.513775,106.043251 45.784847,106.043251 
	C46.093502,104.312469 46.344589,102.904503 46.710243,100.854095 
	C41.637501,100.854095 36.942657,100.854095 32.179726,100.854095 
	C33.763142,92.610489 35.234043,84.952660 36.688778,77.378998 
	C32.291283,75.989746 30.395939,76.955307 29.740097,81.296684 
	C28.599781,88.845016 26.772249,96.289528 25.136351,104.652634 
z"/>
<path fill="#EFF9FD" opacity="1.000000" stroke="none" 
	d="
M26.875538,123.750458 
	C26.460768,123.792549 26.046000,123.834648 24.998825,123.975227 
	C23.280006,124.386009 22.193594,124.698311 21.107182,125.010620 
	C21.107183,125.010620 21.000429,124.822258 20.928602,124.449875 
	C21.330433,121.400948 21.804089,118.724403 22.277744,116.047852 
	C22.277742,116.047852 22.438263,115.962082 22.754288,115.641235 
	C39.551445,113.830894 56.032581,112.341385 73.014648,110.921448 
	C78.669571,110.698837 83.823570,110.406670 89.434189,110.052567 
	C93.269028,110.005035 96.647255,110.019424 100.197495,110.176559 
	C100.907089,110.221313 101.444687,110.123322 102.394485,109.958908 
	C104.198761,109.848236 105.590836,109.803978 107.309860,109.867615 
	C108.092590,109.939491 108.548363,109.903488 109.369667,109.944794 
	C110.480095,110.067787 111.225006,110.113464 112.343102,110.333313 
	C118.904938,110.638229 125.093582,110.768974 131.593658,110.984322 
	C133.605011,111.099228 135.304916,111.129524 137.264664,111.342300 
	C138.355255,112.393501 139.186020,113.262222 139.688904,114.203598 
	C136.233093,114.137512 133.105164,113.998772 129.613220,113.674721 
	C119.170135,113.627869 109.091072,113.766335 98.579292,113.978897 
	C95.300117,114.089371 92.453651,114.125748 89.140945,114.111755 
	C86.118408,114.330017 83.562119,114.598656 80.650826,114.947388 
	C79.604889,115.211929 78.913956,115.396370 78.223030,115.580811 
	C77.629341,115.547569 77.035652,115.514320 75.733795,115.560669 
	C69.762451,116.307678 64.499268,116.975075 59.236080,117.642479 
	C59.236080,117.642479 59.186729,117.461632 58.645863,117.465599 
	C47.695179,119.563202 37.285358,121.656830 26.875538,123.750458 
z"/>
<path fill="#0E60B4" opacity="1.000000" stroke="none" 
	d="
M109.004143,109.867477 
	C108.548363,109.903488 108.092590,109.939491 106.980377,109.685867 
	C103.856331,108.247177 99.858948,110.321175 99.005112,105.506805 
	C99.991684,100.924934 100.675369,96.652565 101.982285,92.580193 
	C102.433914,91.172920 104.327568,90.055336 105.811546,89.285362 
	C106.144188,89.112770 107.405640,91.124893 108.446922,91.820908 
	C109.672600,92.640175 111.124100,93.121635 112.775352,93.887672 
	C113.346100,84.905098 112.083626,83.898766 104.701149,86.163765 
	C104.189354,86.320786 103.438507,85.698662 102.798828,85.438858 
	C104.543365,84.082130 106.287903,82.725395 107.340057,81.907135 
	C110.490349,82.954674 113.237732,83.868233 116.411865,84.989403 
	C116.838608,85.197006 116.979301,85.465805 116.737373,85.794853 
	C115.113907,92.656281 113.732361,99.188652 112.612022,106.000092 
	C114.771065,106.523102 116.767845,106.481621 118.537590,107.095085 
	C120.153976,107.655380 121.524559,108.924805 122.641037,109.940125 
	C119.187386,109.941406 116.096169,109.884270 112.871933,109.549736 
	C111.493988,109.470718 110.249069,109.669098 109.004143,109.867477 
z"/>
<path fill="#1B64AC" opacity="1.000000" stroke="none" 
	d="
M125.926636,83.986046 
	C135.882278,83.996880 145.841736,83.856560 155.791260,84.108932 
	C158.850449,84.186531 161.882416,85.337715 165.267700,86.071136 
	C166.060196,83.818581 167.210281,80.549683 168.657440,77.547440 
	C167.014725,87.198174 165.074936,96.582253 163.135147,105.966339 
	C158.608719,106.636963 154.097855,107.484283 149.547653,107.884933 
	C147.895035,108.030449 146.148544,107.109657 144.644928,106.326393 
	C147.999954,105.969315 151.186752,106.242165 154.302643,105.889076 
	C159.311310,105.321495 163.620911,97.683838 162.973373,90.676193 
	C162.410141,84.580811 157.594482,86.320160 153.938644,86.031227 
	C152.615555,85.926659 151.137573,85.544243 149.986328,85.974197 
	C147.671799,86.838600 144.505219,87.614929 143.521423,89.423630 
	C140.927002,94.193459 139.617172,99.521133 142.023254,104.977249 
	C141.286957,104.998863 140.550674,105.020470 139.278046,104.916313 
	C138.741699,104.790543 138.407181,104.500755 138.374573,104.159126 
	C137.028931,103.282555 135.754410,102.595207 134.393127,102.251320 
	C132.697830,101.823051 130.930939,101.678215 128.771332,101.345764 
	C132.967010,95.281487 140.480423,93.347679 142.144318,85.446892 
	C136.827591,85.446892 132.050842,85.227150 127.321808,85.604828 
	C126.171616,85.696693 125.178345,87.753372 123.643845,88.911552 
	C122.549026,88.904129 121.923302,88.891769 121.311264,88.526070 
	C121.506805,87.491188 121.688644,86.809654 122.126465,85.903000 
	C123.563835,85.113930 124.745239,84.549988 125.926636,83.986046 
z"/>
<path fill="#F2FBFE" opacity="1.000000" stroke="none" 
	d="
M75.570396,76.912773 
	C75.812546,76.883270 76.054703,76.853775 76.973900,76.835861 
	C78.093361,76.772667 78.535782,76.697876 78.978195,76.623077 
	C79.256180,76.694916 79.534172,76.766754 80.190697,77.294754 
	C79.977684,80.511124 79.386139,83.271332 78.627823,86.296631 
	C78.626717,88.015015 78.792397,89.468300 78.970261,90.952347 
	C78.982437,90.983109 78.918831,90.964867 78.717865,91.097961 
	C78.265060,91.449944 78.102493,91.722145 78.011627,92.028778 
	C77.994049,92.009880 78.044273,92.021126 77.832954,92.261047 
	C77.463776,93.104980 77.305916,93.709007 77.129639,94.736526 
	C77.285248,97.899597 75.121132,101.664078 79.266937,102.755188 
	C81.072563,103.230400 84.721275,102.107674 85.294350,100.759262 
	C86.569641,97.758591 86.681206,94.153099 86.609352,90.808235 
	C86.598495,90.302773 83.055046,89.873207 81.090157,88.960876 
	C80.980171,87.914223 80.925667,87.315224 81.183784,86.453537 
	C83.134674,86.141136 84.772659,86.064606 86.411278,86.047188 
	C90.017776,86.008850 91.993698,87.168686 92.082115,91.416397 
	C92.276596,100.759460 89.645027,104.315193 79.683609,106.139450 
	C77.965637,105.534019 76.600830,104.619072 75.255615,104.647026 
	C73.505791,104.683395 71.771538,105.468735 70.016464,105.526855 
	C71.858368,95.718903 73.714386,86.315834 75.570396,76.912773 
z"/>
<path fill="#EBF9FE" opacity="1.000000" stroke="none" 
	d="
M25.184597,104.215103 
	C26.772249,96.289528 28.599781,88.845016 29.740097,81.296684 
	C30.395939,76.955307 32.291283,75.989746 36.688778,77.378998 
	C35.234043,84.952660 33.763142,92.610489 32.179726,100.854095 
	C36.942657,100.854095 41.637501,100.854095 46.710243,100.854095 
	C46.344589,102.904503 46.093502,104.312469 45.784847,106.043251 
	C39.513775,106.043251 33.369041,106.087997 27.226906,105.982086 
	C26.522623,105.969940 25.832851,105.116173 25.184597,104.215103 
z"/>
<path fill="#F1FDFE" opacity="1.000000" stroke="none" 
	d="
M142.011902,104.989288 
	C139.617172,99.521133 140.927002,94.193459 143.521423,89.423630 
	C144.505219,87.614929 147.671799,86.838600 149.986328,85.974197 
	C151.137573,85.544243 152.615555,85.926659 153.938644,86.031227 
	C157.594482,86.320160 162.410141,84.580811 162.973373,90.676193 
	C163.620911,97.683838 159.311310,105.321495 154.302643,105.889076 
	C151.186752,106.242165 147.999954,105.969315 144.380234,106.047760 
	C143.915497,106.118126 143.551758,105.989136 143.247101,105.722733 
	C142.631836,105.294365 142.321243,105.132393 142.010635,104.970428 
	C142.010635,104.970428 142.000565,105.001335 142.011902,104.989288 
M155.409073,100.762123 
	C155.947006,98.734245 156.485352,96.706474 157.022781,94.678459 
	C157.712860,92.074417 157.835236,89.603851 154.361694,89.169769 
	C151.342560,88.792480 148.309097,89.013809 147.447815,92.791946 
	C146.793396,95.662636 146.413071,98.595810 145.714218,102.638321 
	C149.582504,102.092735 152.235779,101.718513 155.409073,100.762123 
z"/>
<path fill="#E5F5FC" opacity="1.000000" stroke="none" 
	d="
M53.985340,97.806900 
	C54.143047,99.088341 54.300755,100.369789 54.833473,102.012772 
	C55.208485,102.374313 55.562401,102.506699 55.562401,102.506699 
	C55.562401,102.506699 55.937656,102.437401 55.937656,102.437401 
	C56.424328,102.414322 56.910999,102.391243 57.951073,102.510361 
	C58.996349,102.479454 59.488228,102.306358 59.980110,102.133263 
	C61.631577,98.142960 63.797901,94.274208 64.777443,90.125275 
	C65.615051,86.577477 66.646545,84.625908 70.737442,86.246132 
	C69.611595,93.242035 68.294838,99.602905 66.978081,105.963783 
	C66.978081,105.963783 66.542206,106.071373 65.959366,106.037064 
	C64.329590,105.659431 63.282665,105.316109 62.290428,104.843292 
	C62.371792,104.411781 62.251190,104.180359 61.615593,104.117958 
	C57.851757,104.796219 54.455650,105.376060 51.059544,105.955902 
	C50.359806,105.237831 49.660065,104.519768 48.965729,103.066429 
	C48.967766,101.185745 48.964397,100.040337 48.961029,98.894920 
	C48.958214,98.467102 48.955399,98.039291 49.267334,97.308426 
	C49.582088,97.005371 49.994534,97.006294 50.056984,97.216728 
	C50.434982,97.646530 50.750523,97.865898 51.066071,98.085266 
	C51.093086,97.951630 51.182087,97.729736 51.137318,97.698288 
	C50.774540,97.443466 50.386665,97.224373 50.008564,96.618683 
	C50.018967,95.246803 50.027248,94.250648 50.035522,93.254486 
	C50.020725,93.033699 50.005924,92.812904 50.256073,91.983170 
	C50.646088,90.714096 50.771160,90.053947 50.896233,89.393806 
	C50.914940,87.446762 50.548344,85.220642 54.402515,85.744980 
	C55.365932,85.984879 55.617344,86.015732 55.868759,86.046593 
	C55.868759,86.046593 55.951405,86.045441 55.973858,86.339539 
	C56.017155,86.801613 56.037998,86.969597 56.058842,87.137581 
	C56.059425,87.567696 56.060009,87.997803 55.775738,89.018822 
	C55.357063,90.483986 55.223236,91.358238 55.089409,92.232498 
	C54.873806,93.709656 54.658207,95.186813 54.230797,97.122269 
	C54.018982,97.580559 53.985340,97.806900 53.985340,97.806900 
z"/>
<path fill="#1C62A8" opacity="1.000000" stroke="none" 
	d="
M89.607185,114.162125 
	C92.453651,114.125748 95.300117,114.089371 99.041611,114.052734 
	C109.950165,113.988342 119.963692,113.924187 129.977219,113.860031 
	C133.105164,113.998772 136.233093,114.137512 140.070465,114.357361 
	C148.112137,114.927971 155.444397,115.417473 162.776672,115.906975 
	C162.827103,115.344826 162.877533,114.782669 162.927963,114.220512 
	C159.766739,113.614365 156.605515,113.008209 153.444290,112.402061 
	C161.743027,110.794868 169.306000,113.938446 177.103836,116.018585 
	C160.881714,119.603630 144.783936,114.996490 128.599747,115.778023 
	C112.191864,116.570358 95.711235,115.856216 78.742752,115.691345 
	C78.913956,115.396370 79.604889,115.211929 81.082153,115.008270 
	C84.448044,114.713402 87.027618,114.437767 89.607185,114.162125 
z"/>
<path fill="#1D63A9" opacity="1.000000" stroke="none" 
	d="
M70.030579,105.931740 
	C71.771538,105.468735 73.505791,104.683395 75.255615,104.647026 
	C76.600830,104.619072 77.965637,105.534019 80.024925,106.318909 
	C85.172310,106.390282 89.616493,106.172417 94.468117,105.974518 
	C96.232658,105.961258 97.589760,105.928032 98.946869,105.894814 
	C99.858948,110.321175 103.856331,108.247177 106.653419,109.577988 
	C105.590836,109.803978 104.198761,109.848236 102.072342,109.866486 
	C100.900482,109.904930 100.462982,109.969376 100.025482,110.033813 
	C96.647255,110.019424 93.269028,110.005035 88.975166,109.982994 
	C82.877594,110.267525 77.695656,110.559708 72.513718,110.851883 
	C56.032581,112.341385 39.551445,113.830894 22.727676,115.554214 
	C23.515350,114.723686 24.571594,112.831505 25.787394,112.722733 
	C38.277649,111.605270 50.795677,110.801765 63.300922,109.844925 
	C65.603722,109.668732 67.892357,109.240051 70.160172,108.790009 
	C70.361252,108.750114 70.358818,107.684624 70.220657,106.745010 
	C69.990395,106.394547 70.030579,105.931740 70.030579,105.931740 
z"/>
<path fill="#E5F5FC" opacity="1.000000" stroke="none" 
	d="
M99.005112,105.506805 
	C97.589760,105.928032 96.232658,105.961258 94.427505,105.565613 
	C94.775757,100.464485 95.572060,95.792221 96.467178,91.048752 
	C96.565979,90.977547 96.485176,90.748100 96.672348,90.412216 
	C96.928177,89.066399 96.996841,88.056465 97.264229,86.780632 
	C98.665115,86.052368 99.867271,85.589996 101.069435,85.127625 
	C101.447395,85.229767 101.825363,85.331917 102.501076,85.436462 
	C103.438507,85.698662 104.189354,86.320786 104.701149,86.163765 
	C112.083626,83.898766 113.346100,84.905098 112.775352,93.887672 
	C111.124100,93.121635 109.672600,92.640175 108.446922,91.820908 
	C107.405640,91.124893 106.144188,89.112770 105.811546,89.285362 
	C104.327568,90.055336 102.433914,91.172920 101.982285,92.580193 
	C100.675369,96.652565 99.991684,100.924934 99.005112,105.506805 
z"/>
<path fill="#E9F8FD" opacity="1.000000" stroke="none" 
	d="
M163.336914,106.003250 
	C165.074936,96.582253 167.014725,87.198174 168.992294,77.412682 
	C169.030060,77.011269 168.991455,77.005058 169.430115,76.942917 
	C171.251328,76.962433 172.633881,77.044090 174.265503,77.140457 
	C172.814148,84.808136 171.473282,91.892159 170.132401,98.976181 
	C170.087402,99.154655 170.042419,99.333138 169.933151,99.992996 
	C169.868866,100.474380 169.944336,100.929359 169.944336,100.929359 
	C169.944336,100.929359 169.729248,101.193573 169.524734,101.646042 
	C169.238861,103.064552 169.157486,104.030594 169.076126,104.996635 
	C169.076126,104.996635 168.880585,105.351517 168.461319,105.619476 
	C166.669617,105.984550 165.297195,106.081657 163.924759,106.178757 
	C163.924759,106.178757 163.538666,106.040169 163.336914,106.003250 
z"/>
<path fill="#296BAD" opacity="1.000000" stroke="none" 
	d="
M96.368370,91.119957 
	C95.572060,95.792221 94.775757,100.464485 94.020065,105.545654 
	C89.616493,106.172417 85.172310,106.390282 80.386795,106.428696 
	C89.645027,104.315193 92.276596,100.759460 92.082115,91.416397 
	C91.993698,87.168686 90.017776,86.008850 86.411278,86.047188 
	C84.772659,86.064606 83.134674,86.141136 80.862915,86.527435 
	C79.751160,86.586525 79.272881,86.309036 78.794601,86.031540 
	C79.386139,83.271332 79.977684,80.511124 80.614532,77.371246 
	C81.056427,78.975319 81.453003,80.959045 81.969551,83.542862 
	C84.756577,83.978142 87.970665,84.480118 91.798187,85.019058 
	C92.411621,85.056015 92.804924,85.051613 92.983490,85.385246 
	C94.230827,87.519241 95.299599,89.319595 96.368370,91.119957 
z"/>
<path fill="#1C62A8" opacity="1.000000" stroke="none" 
	d="
M123.003464,109.881706 
	C121.524559,108.924805 120.153976,107.655380 118.537590,107.095085 
	C116.767845,106.481621 114.771065,106.523102 113.000809,106.084396 
	C114.687614,105.889641 116.246857,105.889641 117.642700,105.889641 
	C118.287727,103.160347 118.807755,100.960007 119.744827,98.754181 
	C121.530151,98.541801 122.898430,98.334908 124.075699,98.429070 
	C122.328812,100.759193 120.772926,102.788277 119.217041,104.817352 
	C119.561501,105.219276 119.905960,105.621201 120.250420,106.023125 
	C125.387589,106.023125 130.526840,106.097824 135.660019,105.954559 
	C136.588531,105.928642 137.492096,105.008217 138.407181,104.500763 
	C138.407181,104.500755 138.741699,104.790543 138.910187,104.935455 
	C137.811066,106.444214 136.543457,107.808060 134.487137,110.020508 
	C138.944305,110.020508 142.826569,109.856339 146.685089,110.087936 
	C148.693237,110.208473 150.659470,111.027313 152.338379,111.953003 
	C147.023010,111.970131 142.013916,111.564980 137.004822,111.159821 
	C135.304916,111.129524 133.605011,111.099228 131.212082,110.822495 
	C128.013855,110.344612 125.508659,110.113159 123.003464,109.881706 
z"/>
<path fill="#306AA8" opacity="1.000000" stroke="none" 
	d="
M70.016464,105.526855 
	C70.030579,105.931740 69.990395,106.394547 69.962898,106.623566 
	C69.140411,106.638260 68.345413,106.423927 67.264252,106.086685 
	C68.294838,99.602905 69.611595,93.242035 71.000092,86.495720 
	C71.917580,84.136703 72.763100,82.163033 73.609161,80.189598 
	C74.067673,79.120148 74.527122,78.051109 75.278275,76.947327 
	C73.714386,86.315834 71.858368,95.718903 70.016464,105.526855 
z"/>
<path fill="#D7F4FC" opacity="1.000000" stroke="none" 
	d="
M137.264664,111.342300 
	C142.013916,111.564980 147.023010,111.970131 152.477936,112.322212 
	C152.923752,112.269142 153.143829,112.491936 153.294067,112.446999 
	C156.605515,113.008209 159.766739,113.614365 162.927963,114.220512 
	C162.877533,114.782669 162.827103,115.344826 162.776672,115.906975 
	C155.444397,115.417473 148.112137,114.927971 140.398315,114.284698 
	C139.186020,113.262222 138.355255,112.393501 137.264664,111.342300 
z"/>
<path fill="#1B64AC" opacity="1.000000" stroke="none" 
	d="
M170.444199,98.812164 
	C171.473282,91.892159 172.814148,84.808136 174.265503,77.140457 
	C172.633881,77.044090 171.251328,76.962433 169.439606,76.959793 
	C170.515274,76.524109 172.216064,75.335892 173.465332,75.699417 
	C174.540955,76.012421 175.981659,78.287552 175.745865,79.362953 
	C174.324753,85.844452 172.467377,92.230293 170.444199,98.812164 
z"/>
<path fill="#1C62A8" opacity="1.000000" stroke="none" 
	d="
M27.248417,123.830070 
	C37.285358,121.656830 47.695179,119.563202 58.553543,117.481796 
	C57.622120,118.288910 56.329639,119.493034 54.847481,119.809891 
	C47.280903,121.427467 39.675991,122.875832 32.057335,124.230675 
	C30.642427,124.482285 29.103165,124.034615 27.248417,123.830070 
z"/>
<path fill="#1A66B2" opacity="1.000000" stroke="none" 
	d="
M125.864975,83.621140 
	C124.745239,84.549988 123.563835,85.113930 121.746109,85.728867 
	C119.732956,85.675163 118.356125,85.570488 116.979301,85.465805 
	C116.979301,85.465805 116.838608,85.197006 116.761871,85.064713 
	C116.847031,84.139503 117.008919,83.346581 117.640778,82.256760 
	C122.456703,82.998566 123.617561,80.803864 123.169945,76.976280 
	C124.047737,79.069595 124.925529,81.162910 125.864975,83.621140 
z"/>
<path fill="#0E60B4" opacity="1.000000" stroke="none" 
	d="
M92.804924,85.051613 
	C92.804924,85.051613 92.411621,85.056015 92.215553,85.044205 
	C94.645561,79.720642 95.057678,79.700188 100.830154,84.867264 
	C99.867271,85.589996 98.665115,86.052368 97.021667,86.787704 
	C96.580376,87.060669 96.096657,87.102844 95.962502,86.780319 
	C94.820541,85.989067 93.812729,85.520340 92.804924,85.051613 
z"/>
<path fill="#E2F3FB" opacity="1.000000" stroke="none" 
	d="
M122.811203,76.905609 
	C123.617561,80.803864 122.456703,82.998566 117.711884,81.858459 
	C117.313011,81.757080 117.308594,81.815094 117.368492,81.450943 
	C117.677612,79.743088 117.926842,78.399384 118.176071,77.055679 
	C118.582108,76.980385 118.988136,76.905090 119.948059,76.809845 
	C120.670387,76.736183 120.838837,76.682457 121.007294,76.628738 
	C121.489014,76.697472 121.970741,76.766205 122.811203,76.905609 
z"/>
<path fill="#1C62A8" opacity="1.000000" stroke="none" 
	d="
M59.750702,117.728981 
	C64.499268,116.975075 69.762451,116.307678 75.468063,115.712952 
	C71.136139,119.859001 65.504036,117.321182 59.750702,117.728981 
z"/>
<path fill="#306AA8" opacity="1.000000" stroke="none" 
	d="
M62.235737,104.972786 
	C63.282665,105.316109 64.329590,105.659431 65.743423,106.098404 
	C61.292984,106.271019 56.475647,106.348007 51.358925,106.190445 
	C54.455650,105.376060 57.851757,104.796219 61.669643,104.358543 
	C62.091423,104.500710 62.235737,104.972786 62.235737,104.972786 
z"/>
<path fill="#1D63A9" opacity="1.000000" stroke="none" 
	d="
M22.010014,116.274506 
	C21.804089,118.724403 21.330433,121.400948 20.822880,124.473167 
	C17.833866,121.706741 20.922794,119.233223 22.010014,116.274506 
z"/>
<path fill="#1B64AC" opacity="1.000000" stroke="none" 
	d="
M164.093063,106.474052 
	C165.297195,106.081657 166.669617,105.984550 168.447205,105.821579 
	C167.869614,108.573761 166.239746,108.460854 164.093063,106.474052 
z"/>
<path fill="#1A66B2" opacity="1.000000" stroke="none" 
	d="
M117.862823,77.144707 
	C117.926842,78.399384 117.677612,79.743088 117.369873,81.421097 
	C117.390755,80.248177 117.470161,78.740959 117.862823,77.144707 
z"/>
<path fill="#1D63A9" opacity="1.000000" stroke="none" 
	d="
M21.343357,125.205940 
	C22.193594,124.698311 23.280006,124.386009 24.710024,124.099396 
	C23.895597,124.550484 22.737564,124.975876 21.343357,125.205940 
z"/>
<path fill="#E2F3FB" opacity="1.000000" stroke="none" 
	d="
M48.785240,99.173691 
	C48.964397,100.040337 48.967766,101.185745 48.948761,102.760124 
	C48.820744,101.943550 48.715099,100.698006 48.785240,99.173691 
z"/>
<path fill="#E2F3FB" opacity="1.000000" stroke="none" 
	d="
M49.994534,97.006294 
	C49.994534,97.006294 49.582088,97.005371 49.375874,97.004105 
	C49.359165,95.943909 49.548672,94.884979 49.886856,93.540268 
	C50.027248,94.250648 50.018967,95.246803 50.005356,96.621483 
	C50.000023,97.000000 49.994534,97.006294 49.994534,97.006294 
z"/>
<path fill="#E2F3FB" opacity="1.000000" stroke="none" 
	d="
M55.283337,91.955063 
	C55.223236,91.358238 55.357063,90.483986 55.665970,89.324631 
	C55.719791,89.918900 55.598530,90.798264 55.283337,91.955063 
z"/>
<path fill="#1B64AC" opacity="1.000000" stroke="none" 
	d="
M169.272583,104.689217 
	C169.157486,104.030594 169.238861,103.064552 169.551178,101.814323 
	C169.677780,102.480690 169.573410,103.431244 169.272583,104.689217 
z"/>
<path fill="#296BAD" opacity="1.000000" stroke="none" 
	d="
M78.806862,76.478622 
	C78.535782,76.697876 78.093361,76.772667 77.326981,76.739822 
	C77.547188,76.532845 78.091354,76.433510 78.806862,76.478622 
z"/>
<path fill="#E2F3FB" opacity="1.000000" stroke="none" 
	d="
M50.678154,89.664719 
	C50.771160,90.053947 50.646088,90.714096 50.356388,91.666763 
	C50.281197,91.284744 50.370640,90.610184 50.678154,89.664719 
z"/>
<path fill="#E2F3FB" opacity="1.000000" stroke="none" 
	d="
M59.656837,102.110687 
	C59.488228,102.306358 58.996349,102.479454 58.311554,102.575485 
	C58.523613,102.361641 58.928589,102.224876 59.656837,102.110687 
z"/>
<path fill="#E2F3FB" opacity="1.000000" stroke="none" 
	d="
M54.073685,97.777084 
	C53.985340,97.806900 54.018982,97.580559 54.029022,97.525581 
	C54.039059,97.470604 54.162029,97.747276 54.073685,97.777084 
z"/>
<path fill="#1B64AC" opacity="1.000000" stroke="none" 
	d="
M170.059387,100.855240 
	C169.944336,100.929359 169.868866,100.474380 169.967804,100.266907 
	C170.299240,100.273766 170.335144,100.514328 170.059387,100.855240 
z"/>
<path fill="#E2F3FB" opacity="1.000000" stroke="none" 
	d="
M55.728027,102.316368 
	C55.937656,102.437401 55.562401,102.506699 55.562401,102.506699 
	C55.562401,102.506699 55.208485,102.374313 55.121460,102.278854 
	C55.034431,102.183403 55.518402,102.195335 55.728027,102.316368 
z"/>
<path fill="#1B64AC" opacity="1.000000" stroke="none" 
	d="
M142.163177,105.178131 
	C142.321243,105.132393 142.631836,105.294365 143.055023,105.703995 
	C142.883652,105.763054 142.599670,105.574440 142.163177,105.178131 
z"/>
<path fill="#E2F3FB" opacity="1.000000" stroke="none" 
	d="
M56.197632,87.017548 
	C56.037998,86.969597 56.017155,86.801613 55.973431,86.380859 
	C56.079174,86.384567 56.207798,86.641045 56.197632,87.017548 
z"/>
<path fill="#E2F3FB" opacity="1.000000" stroke="none" 
	d="
M55.757145,85.842407 
	C55.617344,86.015732 55.365932,85.984879 54.737007,85.896545 
	C54.788174,85.772118 55.216850,85.705162 55.757145,85.842407 
z"/>
<path fill="#1A66B2" opacity="1.000000" stroke="none" 
	d="
M120.892075,76.538437 
	C120.838837,76.682457 120.670387,76.736183 120.245239,76.722343 
	C120.209038,76.416550 120.471809,76.347664 120.892075,76.538437 
z"/>
<path fill="#D7F4FC" opacity="1.000000" stroke="none" 
	d="
M129.613220,113.674721 
	C119.963692,113.924187 109.950165,113.988342 99.474319,113.978645 
	C109.091072,113.766335 119.170135,113.627869 129.613220,113.674721 
z"/>
<path fill="#D2F0FD" opacity="1.000000" stroke="none" 
	d="
M122.641037,109.940125 
	C125.508659,110.113159 128.013855,110.344612 130.900635,110.737900 
	C125.093582,110.768974 118.904938,110.638229 112.601257,110.248215 
	C112.659126,109.935005 112.832039,109.881065 113.004944,109.827133 
	C116.096169,109.884270 119.187386,109.941406 122.641037,109.940125 
z"/>
<path fill="#D2F0FD" opacity="1.000000" stroke="none" 
	d="
M73.014648,110.921448 
	C77.695656,110.559708 82.877594,110.267525 88.518555,110.044922 
	C83.823570,110.406670 78.669571,110.698837 73.014648,110.921448 
z"/>
<path fill="#D7F4FC" opacity="1.000000" stroke="none" 
	d="
M89.140945,114.111755 
	C87.027618,114.437767 84.448044,114.713402 81.437149,114.928169 
	C83.562119,114.598656 86.118408,114.330017 89.140945,114.111755 
z"/>
<path fill="#1D63A9" opacity="1.000000" stroke="none" 
	d="
M112.871933,109.549736 
	C112.832039,109.881065 112.659126,109.935005 112.228065,110.074036 
	C111.225006,110.113464 110.480095,110.067787 109.369667,109.944794 
	C110.249069,109.669098 111.493988,109.470718 112.871933,109.549736 
z"/>
<path fill="#D2F0FD" opacity="1.000000" stroke="none" 
	d="
M100.197495,110.176567 
	C100.462982,109.969376 100.900482,109.904930 101.660126,109.932907 
	C101.444687,110.123322 100.907089,110.221313 100.197495,110.176567 
z"/>
<path fill="#DFF1FA" opacity="1.000000" stroke="none" 
	d="
M116.737373,85.794853 
	C118.356125,85.570488 119.732956,85.675163 121.490128,85.953979 
	C121.688644,86.809654 121.506805,87.491188 121.190323,88.872040 
	C120.479713,92.634117 119.903740,95.696884 119.327774,98.759659 
	C118.807755,100.960007 118.287727,103.160347 117.642700,105.889641 
	C116.246857,105.889641 114.687614,105.889641 112.739594,105.805336 
	C113.732361,99.188652 115.113907,92.656281 116.737373,85.794853 
z"/>
<path fill="#E0F3FB" opacity="1.000000" stroke="none" 
	d="
M138.374573,104.159134 
	C137.492096,105.008217 136.588531,105.928642 135.660019,105.954559 
	C130.526840,106.097824 125.387589,106.023125 120.250420,106.023125 
	C119.905960,105.621201 119.561501,105.219276 119.217041,104.817352 
	C120.772926,102.788277 122.328812,100.759193 124.382599,98.305855 
	C127.818832,95.322876 130.757172,92.764168 134.564713,89.448547 
	C130.240509,89.224335 127.176712,89.065475 124.112923,88.906616 
	C125.178345,87.753372 126.171616,85.696693 127.321808,85.604828 
	C132.050842,85.227150 136.827591,85.446892 142.144318,85.446892 
	C140.480423,93.347679 132.967010,95.281487 128.771332,101.345764 
	C130.930939,101.678215 132.697830,101.823051 134.393127,102.251320 
	C135.754410,102.595207 137.028931,103.282555 138.374573,104.159134 
z"/>
<path fill="#1A66B2" opacity="1.000000" stroke="none" 
	d="
M123.643845,88.911552 
	C127.176712,89.065475 130.240509,89.224335 134.564713,89.448547 
	C130.757172,92.764168 127.818832,95.322876 124.573601,98.004807 
	C122.898430,98.334908 121.530151,98.541801 119.744827,98.754181 
	C119.903740,95.696884 120.479713,92.634117 121.176628,89.225372 
	C121.923302,88.891769 122.549026,88.904129 123.643845,88.911552 
z"/>
<path fill="#0F5EAF" opacity="1.000000" stroke="none" 
	d="
M81.145638,89.408531 
	C83.055046,89.873207 86.598495,90.302773 86.609352,90.808235 
	C86.681206,94.153099 86.569641,97.758591 85.294350,100.759262 
	C84.721275,102.107674 81.072563,103.230400 79.266937,102.755188 
	C75.121132,101.664078 77.285248,97.899597 77.348862,94.506401 
	C77.739090,93.242233 77.891678,92.631676 78.044273,92.021126 
	C78.044273,92.021126 77.994049,92.009880 78.233673,91.917648 
	C78.750740,91.605316 78.899254,91.318466 78.918831,90.964867 
	C78.918831,90.964867 78.982437,90.983109 79.262375,90.891251 
	C80.076752,90.335762 80.611191,89.872147 81.145638,89.408531 
z"/>
<path fill="#D8EEF7" opacity="1.000000" stroke="none" 
	d="
M81.090157,88.960876 
	C80.611191,89.872147 80.076752,90.335762 79.250198,90.860489 
	C78.792397,89.468300 78.626717,88.015015 78.627823,86.296631 
	C79.272881,86.309036 79.751160,86.586525 80.550308,86.790115 
	C80.925667,87.315224 80.980171,87.914223 81.090157,88.960876 
z"/>
<path fill="#D8EEF7" opacity="1.000000" stroke="none" 
	d="
M77.832954,92.261047 
	C77.891678,92.631676 77.739090,93.242233 77.367279,94.082901 
	C77.305916,93.709007 77.463776,93.104980 77.832954,92.261047 
z"/>
<path fill="#D8EEF7" opacity="1.000000" stroke="none" 
	d="
M78.717865,91.097961 
	C78.899254,91.318466 78.750740,91.605316 78.251244,91.936539 
	C78.102493,91.722145 78.265060,91.449944 78.717865,91.097961 
z"/>
<path fill="#1562B1" opacity="1.000000" stroke="none" 
	d="
M155.149048,101.053207 
	C152.235779,101.718513 149.582504,102.092735 145.714218,102.638321 
	C146.413071,98.595810 146.793396,95.662636 147.447815,92.791946 
	C148.309097,89.013809 151.342560,88.792480 154.361694,89.169769 
	C157.835236,89.603851 157.712860,92.074417 157.022781,94.678459 
	C156.485352,96.706474 155.947006,98.734245 155.149048,101.053207 
z"/>
<path fill="#E2F3FB" opacity="1.000000" stroke="none" 
	d="
M50.003231,96.997192 
	C50.386665,97.224373 50.774540,97.443466 51.137318,97.698288 
	C51.182087,97.729736 51.093086,97.951630 51.066071,98.085266 
	C50.750523,97.865898 50.434982,97.646530 50.056984,97.216728 
	C49.994534,97.006294 50.000023,97.000000 50.003231,96.997192 
z"/>
<path fill="#E2F3FB" opacity="1.000000" stroke="none" 
	d="
M62.290428,104.843292 
	C62.235737,104.972786 62.091423,104.500710 62.037373,104.260124 
	C62.251190,104.180359 62.371792,104.411781 62.290428,104.843292 
z"/>
<path fill="#015CB9" opacity="1.000000" stroke="none" 
	d="
M92.983490,85.385246 
	C93.812729,85.520340 94.820541,85.989067 95.968002,87.236328 
	C96.233490,88.925941 96.359337,89.837021 96.485176,90.748100 
	C96.485176,90.748100 96.565979,90.977547 96.467178,91.048752 
	C95.299599,89.319595 94.230827,87.519241 92.983490,85.385246 
z"/>
<path fill="#296BAD" opacity="1.000000" stroke="none" 
	d="
M96.672348,90.412216 
	C96.359337,89.837021 96.233490,88.925941 96.102158,87.558853 
	C96.096657,87.102844 96.580376,87.060669 96.822937,87.053596 
	C96.996841,88.056465 96.928177,89.066399 96.672348,90.412216 
z"/>
</svg>