<svg version="1.1" id="Layer_1" xmlns="http://www.w3.org/2000/svg" xmlns:xlink="http://www.w3.org/1999/xlink" x="0px" y="0px"
	 width="100%" viewBox="0 0 360 180" enable-background="new 0 0 360 180" xml:space="preserve">
<path fill="#FFFFFF" opacity="1.000000" stroke="none" 
	d="
M342.001709,181.000000 
	C229.334656,181.000000 117.168068,180.979980 5.001619,181.095093 
	C1.580978,181.098602 0.894587,180.429382 0.902736,177.001297 
	C1.039023,119.668335 1.038773,62.334873 0.903183,5.001912 
	C0.895092,1.580633 1.571031,0.901211 4.998404,0.904561 
	C122.331520,1.019262 239.664780,1.019118 356.997894,0.905065 
	C360.417419,0.901741 361.105499,1.569133 361.097321,4.998220 
	C360.960938,62.331177 360.961273,119.664642 361.096771,176.997604 
	C361.104828,180.417847 360.460541,181.367065 356.994720,181.094803 
	C352.191040,180.717453 347.335510,181.000000 342.001709,181.000000 
z"/>
<path fill="#2C292A" opacity="1.000000" stroke="none" 
	d="
M292.091461,83.198822 
	C291.387268,78.729141 292.744110,76.878273 297.079041,77.463699 
	C299.532074,77.794983 302.070465,77.612808 304.562866,77.497932 
	C306.784027,77.395554 307.887878,77.965256 307.900391,80.521439 
	C307.913605,83.204254 306.934052,84.160378 304.370178,83.824051 
	C303.552185,83.716743 302.707245,83.804688 301.874878,83.819321 
	C300.670502,83.840508 299.501556,83.871216 299.469177,85.569702 
	C299.437134,87.247688 300.204620,88.003227 301.870117,87.942551 
	C302.867645,87.906204 303.874573,88.021935 304.865662,87.935608 
	C307.380951,87.716522 307.352997,89.331451 307.428741,91.131248 
	C307.515808,93.200531 306.881439,93.998940 304.654938,94.174568 
	C302.811523,94.319977 299.351044,92.248177 299.502167,96.526566 
	C299.632874,100.225426 302.716278,98.466965 304.504791,98.627571 
	C306.559631,98.812088 307.904785,98.872337 307.907227,101.574936 
	C307.909851,104.428955 306.593750,104.725082 304.228058,104.793190 
	C292.089783,105.142662 292.091461,105.200745 292.091461,93.162903 
	C292.091461,89.999146 292.091461,86.835388 292.091461,83.198822 
z"/>
<path fill="#9C9EA0" opacity="1.000000" stroke="none" 
	d="
M71.594025,102.432419 
	C70.426208,105.361450 69.445297,104.979538 68.406998,102.757690 
	C66.179970,97.992088 63.925884,93.239143 61.190186,87.435867 
	C60.184345,92.977547 59.447655,97.378952 58.556210,101.748787 
	C58.271404,103.144897 57.979370,105.042709 55.924995,104.742912 
	C53.372158,104.370369 54.724506,102.560593 54.971581,101.251297 
	C56.468895,93.316750 57.988693,85.386436 60.691135,77.218597 
	C63.582367,83.747330 66.473595,90.276062 69.912834,98.042267 
	C73.244873,90.587868 76.154747,84.077927 79.456337,76.691658 
	C81.632591,81.229752 81.474808,85.516182 82.458038,89.480232 
	C83.375824,93.180412 84.076401,96.940247 84.716713,100.700371 
	C84.942177,102.024361 85.910034,104.053741 83.966278,104.559509 
	C81.342766,105.242172 81.769310,102.519272 81.446129,101.208229 
	C80.417778,97.036583 79.727524,92.781593 78.781815,87.916733 
	C75.444893,92.625610 73.931015,97.538628 71.594025,102.432419 
z"/>
<path fill="#2B2728" opacity="1.000000" stroke="none" 
	d="
M186.831955,78.084816 
	C192.899582,78.371574 195.692978,80.963905 195.915771,86.190796 
	C196.144119,91.548225 193.435730,95.286758 187.926422,95.565132 
	C183.436096,95.792023 181.290100,96.809975 182.142700,101.712685 
	C182.836899,105.704491 179.688873,104.584351 177.234039,104.555450 
	C175.079605,99.786522 176.355011,94.963310 176.024063,90.239983 
	C175.805771,87.124550 176.259674,83.982178 175.555023,80.454239 
	C174.616760,77.765564 176.112091,77.568970 177.711868,77.555237 
	C180.165314,77.534164 182.619278,77.571846 185.513275,77.718056 
	C186.054688,78.244728 186.300827,78.387192 186.831955,78.084816 
z"/>
<path fill="#110F10" opacity="1.000000" stroke="none" 
	d="
M253.617203,87.798584 
	C254.778732,81.940895 258.419067,79.022980 263.827454,77.533737 
	C266.061584,76.793571 267.950073,76.811363 270.253418,77.589188 
	C276.481232,78.568336 272.126556,82.945236 274.583771,85.954803 
	C266.256989,82.633102 264.244080,83.095169 260.504089,88.626274 
	C259.942810,90.439316 259.822327,91.955513 260.450195,93.758476 
	C264.196625,99.179291 265.720581,99.535492 273.243774,97.005531 
	C274.231842,104.552902 273.098175,105.877846 265.627563,105.075996 
	C259.255737,104.392075 255.044403,100.866013 253.334595,94.241035 
	C252.901291,91.977295 252.767059,90.078445 253.617203,87.798584 
z"/>
<path fill="#83CAAA" opacity="1.000000" stroke="none" 
	d="
M213.316040,94.143959 
	C207.269150,90.273659 206.049011,80.347847 210.929718,73.509048 
	C215.364502,67.295036 223.689087,65.353699 230.867722,69.066742 
	C237.924149,72.716560 241.317596,80.708778 238.632568,87.924759 
	C237.665359,90.524117 236.095718,92.899323 234.673615,95.731552 
	C233.523972,95.942589 233.084106,95.139870 232.470490,94.060730 
	C232.274475,93.520973 232.218323,93.295967 232.133499,92.721619 
	C232.124619,91.901207 232.192108,91.436829 232.404297,90.639557 
	C232.925140,89.221817 233.427719,88.176338 233.781891,87.072632 
	C235.389832,82.061691 233.927612,76.836578 230.171112,74.164810 
	C226.425995,71.501137 220.383392,71.642120 216.673355,74.479721 
	C212.539169,77.641724 211.299973,82.128937 213.145477,87.328430 
	C213.477234,88.263084 213.962509,89.135223 214.504669,90.388062 
	C214.697906,90.982933 214.754684,91.229912 214.825623,91.861435 
	C214.741409,93.053513 214.424789,93.732964 213.316040,94.143959 
z"/>
<path fill="#989A9D" opacity="1.000000" stroke="none" 
	d="
M156.371475,95.039108 
	C153.177429,102.782829 146.674896,106.256325 139.067490,104.862701 
	C136.970291,104.478508 136.850876,103.297974 136.852188,101.722832 
	C136.858109,94.581970 136.897385,87.440712 136.829254,80.300507 
	C136.809250,78.202766 137.626389,77.482361 139.718491,77.263222 
	C151.233627,76.057053 158.326141,83.340988 156.371475,95.039108 
z"/>
<path fill="#9B9D9F" opacity="1.000000" stroke="none" 
	d="
M113.630447,101.899574 
	C115.231392,102.151901 117.185303,101.288635 117.234505,103.233170 
	C117.279404,105.007568 115.453735,104.750328 114.161049,104.851242 
	C103.009590,105.721619 103.009674,105.724373 103.009872,94.697845 
	C103.009949,90.050812 103.108322,85.400932 102.972572,80.757881 
	C102.897560,78.192200 103.824081,77.122322 106.423256,77.257439 
	C109.071556,77.395111 111.733513,77.246964 114.387573,77.307632 
	C115.664680,77.336838 117.400291,77.166054 117.289558,79.097122 
	C117.184692,80.926025 115.489311,80.680336 114.195442,80.731422 
	C113.201187,80.770676 112.199692,80.801125 111.209221,80.728706 
	C108.391281,80.522675 106.455978,80.902489 106.537605,84.607742 
	C106.612587,88.011642 108.395271,88.122528 110.981270,88.314682 
	C112.961533,88.461823 116.600060,86.709976 116.561745,90.112755 
	C116.530128,92.920387 112.977692,91.704926 111.135056,91.543282 
	C106.486320,91.135452 106.712952,93.907845 106.545052,97.127090 
	C106.357445,100.724281 107.332375,102.546509 111.208488,101.912994 
	C111.855034,101.807327 112.533768,101.898605 113.630447,101.899574 
z"/>
<path fill="#322F30" opacity="1.000000" stroke="none" 
	d="
M232.930954,93.803558 
	C233.553146,94.379799 233.846130,95.051781 234.342682,95.905022 
	C234.892029,97.015709 235.472137,97.929672 235.534714,98.877792 
	C235.663986,100.837013 239.023865,103.329193 235.869202,104.547615 
	C232.907211,105.691635 229.132889,105.372833 228.448807,100.666016 
	C228.402496,100.347397 228.219666,100.048615 227.960693,99.391190 
	C227.735779,98.825691 227.650482,98.609627 227.684967,98.066551 
	C229.235062,96.248779 231.029755,95.213135 232.930954,93.803558 
z"/>
<path fill="#2D2A2B" opacity="1.000000" stroke="none" 
	d="
M219.335297,98.708755 
	C217.680252,101.888557 217.477417,105.970345 212.317169,104.863396 
	C210.228104,104.415253 209.250259,104.246170 210.224182,101.986649 
	C211.126511,99.893250 211.934418,97.759148 212.943863,95.322998 
	C215.200455,94.587112 216.892014,95.775558 219.002075,96.669212 
	C219.516296,97.378220 219.589203,97.863266 219.335297,98.708755 
z"/>
<path fill="#BCD8CC" opacity="1.000000" stroke="none" 
	d="
M219.600494,99.025681 
	C219.231903,98.650780 219.295792,98.256386 219.433182,97.564575 
	C219.207245,96.566147 219.023300,95.842163 219.117432,94.696770 
	C219.358887,93.683540 219.023254,94.450089 219.287247,93.841911 
	C220.363190,91.363037 220.133652,87.161560 223.324783,87.136589 
	C226.510651,87.111656 226.178299,91.405289 227.590012,94.115143 
	C228.065735,95.403046 228.377274,96.348373 228.114624,97.697281 
	C227.930756,98.195015 227.923981,98.366173 227.869141,98.789551 
	C225.225052,99.029907 222.629028,99.018051 219.600494,99.025681 
z"/>
<path fill="#110F10" opacity="1.000000" stroke="none" 
	d="
M175.267120,80.493896 
	C177.712067,80.686646 176.971649,82.632210 176.983459,84.140617 
	C177.033798,90.568642 176.981552,96.997459 176.930389,103.921066 
	C174.107849,104.194443 175.210739,102.014465 175.188980,100.660904 
	C175.083328,94.092186 175.155746,87.520615 175.267120,80.493896 
z"/>
<path fill="#110F10" opacity="1.000000" stroke="none" 
	d="
M219.810272,94.747505 
	C220.014221,95.608025 219.987366,96.222710 219.733597,97.052277 
	C217.438202,97.092834 215.297333,97.143448 213.417328,95.205940 
	C213.103821,95.003021 213.001740,94.558250 212.963547,94.334656 
	C213.260345,93.611885 213.595337,93.112709 214.095184,92.353851 
	C216.537582,91.782166 218.011627,93.245537 219.810272,94.747505 
z"/>
<path fill="#2D2A2B" opacity="1.000000" stroke="none" 
	d="
M253.460678,87.648804 
	C253.753448,89.343124 253.810074,91.293953 253.622803,93.565262 
	C252.241837,91.920280 252.783859,89.911491 253.460678,87.648804 
z"/>
<path fill="#2D2A2B" opacity="1.000000" stroke="none" 
	d="
M270.395020,77.410934 
	C268.762573,78.271774 266.812805,78.093201 264.519836,77.754852 
	C266.086029,76.275253 268.114197,76.889656 270.395020,77.410934 
z"/>
<path fill="#2D2A2B" opacity="1.000000" stroke="none" 
	d="
M260.572205,93.621124 
	C257.883362,92.890579 258.912292,91.011223 259.963074,89.052979 
	C260.353943,90.344856 260.448578,91.768303 260.572205,93.621124 
z"/>
<path fill="#110F10" opacity="1.000000" stroke="none" 
	d="
M186.720886,77.789146 
	C186.771896,78.195396 186.677963,78.766876 186.046677,78.036652 
	C186.125626,77.796883 186.297714,77.742233 186.720886,77.789146 
z"/>
<path fill="#DBDBDB" opacity="1.000000" stroke="none" 
	d="
M187.533966,88.944992 
	C185.340622,89.827591 183.047348,91.436226 182.145996,88.186363 
	C181.746124,86.744675 181.343826,84.675087 182.793396,83.553444 
	C184.007004,82.614388 185.706146,83.116806 186.979263,83.939095 
	C188.867325,85.158546 188.761459,86.882690 187.533966,88.944992 
z"/>
<path fill="#F4F6F6" opacity="1.000000" stroke="none" 
	d="
M214.530060,91.158539 
	C209.705322,85.392853 209.861969,78.924820 214.601288,74.274826 
	C219.011658,69.947578 226.691650,69.500534 231.483383,73.292122 
	C236.620453,77.356956 237.352890,83.940689 233.118622,90.929611 
	C228.913132,88.774757 229.363739,83.915359 226.669907,80.481163 
	C226.131668,79.966095 225.780579,79.733849 225.081665,79.480240 
	C221.545944,78.767487 219.931305,80.451187 218.798691,83.235420 
	C217.695648,85.946968 217.160065,88.976936 214.530060,91.158539 
z"/>
<path fill="#272525" opacity="1.000000" stroke="none" 
	d="
M227.274872,78.857468 
	C229.193314,82.811302 230.773972,86.714561 232.585968,90.888924 
	C232.884109,91.559219 232.950867,91.958405 233.020538,92.665375 
	C231.531143,94.473000 230.228012,96.381241 227.296722,95.241051 
	C225.885071,92.364235 224.798096,89.721512 223.412537,86.352898 
	C222.228256,89.510139 221.317108,91.939201 220.223511,94.680801 
	C217.974091,94.789307 216.338425,93.715492 214.540207,92.249329 
	C214.260025,92.094170 214.266968,91.649231 214.229034,91.430176 
	C215.397263,88.331772 217.012741,85.547852 217.711502,82.550240 
	C218.704117,78.292053 221.061111,76.885429 225.534515,77.749557 
	C226.223282,78.248238 226.550598,78.558746 227.274872,78.857468 
z"/>
<path fill="#110F10" opacity="1.000000" stroke="none" 
	d="
M226.927216,95.342621 
	C229.158478,95.469269 230.475937,93.566559 232.662781,93.010849 
	C233.023422,92.973160 233.239456,93.308846 233.249817,93.508331 
	C232.694977,96.170387 230.700760,97.088593 228.300751,97.992317 
	C227.041367,97.486916 226.905121,96.608131 226.927216,95.342621 
z"/>
<path fill="#FCFCFC" opacity="1.000000" stroke="none" 
	d="
M153.267014,94.045166 
	C152.476074,96.937210 151.042847,98.926888 148.763977,100.180534 
	C146.407059,101.477119 143.657059,102.700188 141.194611,101.633377 
	C138.547760,100.486671 140.156906,97.513794 140.008591,95.384941 
	C139.755920,91.758118 140.125275,88.088654 139.886429,84.459946 
	C139.669662,81.166870 141.135986,80.566780 144.027481,80.783386 
	C150.674881,81.281357 154.549088,86.490761 153.267014,94.045166 
z"/>
<path fill="#110F10" opacity="1.000000" stroke="none" 
	d="
M227.461945,78.570541 
	C227.189911,78.750198 226.767181,78.592354 226.149704,78.154999 
	C226.407059,77.994675 226.859131,78.113861 227.461945,78.570541 
z"/>
</svg>