<svg version="1.1" id="Layer_1" xmlns="http://www.w3.org/2000/svg" xmlns:xlink="http://www.w3.org/1999/xlink" x="0px" y="0px"
	 width="100%" viewBox="0 0 368 270" enable-background="new 0 0 368 270" xml:space="preserve">
<path fill="#044293" opacity="1.000000" stroke="none" 
	d="
M230.000000,271.000000 
	C154.666687,271.000000 79.833336,270.970062 5.000242,271.096252 
	C1.575961,271.102020 0.899366,270.424377 0.904134,266.999969 
	C1.025719,179.666824 1.025705,92.333443 0.904171,5.000310 
	C0.899407,1.576448 1.575625,0.901538 4.999911,0.904791 
	C124.999763,1.018784 244.999756,1.018765 364.999603,0.904859 
	C368.422821,0.901609 369.100647,1.574942 369.095886,4.999822 
	C368.974243,92.332954 368.974304,179.666336 369.095795,266.999481 
	C369.100555,270.422852 368.426544,271.109283 365.000061,271.098022 
	C320.167084,270.950470 275.333466,271.000000 230.000000,271.000000 
z"/>
<path fill="#064394" opacity="1.000000" stroke="none" 
	d="
M236.178223,32.131088 
	C236.508682,31.943432 236.490051,31.989489 236.477341,31.968128 
	C238.029160,32.642269 239.714264,32.226189 241.327057,32.364658 
	C248.916351,33.016281 254.186768,36.774033 256.578217,43.917854 
	C259.040680,51.273849 259.503052,58.586044 253.129059,65.046303 
	C250.792740,67.343079 248.302795,68.423569 245.123535,68.986900 
	C231.084747,70.791840 220.355927,57.397896 224.753433,44.113270 
	C225.384964,42.205502 226.271469,40.427990 227.536667,38.393410 
	C229.977402,35.460262 233.375427,34.535023 236.178223,32.131088 
z"/>
<path fill="#D9E4EF" opacity="1.000000" stroke="none" 
	d="
M47.322258,62.232998 
	C44.365849,52.559307 44.954655,42.879684 45.046604,33.254890 
	C45.071892,30.608225 46.892136,29.085373 49.669922,29.084274 
	C69.135139,29.076574 88.600433,29.101862 108.065483,29.044607 
	C110.231125,29.038239 110.959953,29.832211 110.996246,31.953419 
	C111.166962,41.929428 111.791084,51.925148 109.842476,61.807259 
	C106.344543,79.546539 95.985313,91.980537 80.135201,100.229607 
	C77.822517,101.433212 76.107994,100.871063 74.116394,99.794312 
	C60.673630,92.526497 51.879280,81.592896 47.929573,66.412918 
	C48.327602,65.595329 48.804855,65.331871 49.784645,65.245506 
	C53.003990,66.199989 53.595173,68.858894 54.347839,71.129936 
	C57.713879,81.286415 64.717102,88.289001 73.429253,93.946571 
	C75.901978,95.552330 78.328773,95.986725 80.914696,94.484489 
	C90.394081,88.977577 97.713509,81.629745 101.270721,70.949249 
	C104.620193,60.892460 105.633926,50.505291 105.854416,40.014809 
	C105.966324,34.690174 105.370880,34.162849 100.256477,34.124855 
	C85.441994,34.014790 70.626755,34.080807 55.812038,34.124111 
	C50.646744,34.139214 50.130829,34.661625 50.134010,39.929531 
	C50.137215,45.241558 49.703121,50.573441 50.797039,55.858482 
	C51.204021,57.824726 51.063744,59.851044 49.585033,61.929649 
	C48.781364,62.488037 48.243176,62.564560 47.322258,62.232998 
z"/>
<path fill="#EAF0F5" opacity="1.000000" stroke="none" 
	d="
M274.161560,68.496445 
	C270.624115,68.745735 267.337006,68.745735 262.770874,68.745735 
	C267.469879,66.104668 267.198090,62.534737 267.142609,58.942078 
	C267.045044,52.625977 267.129456,46.307243 267.109100,39.989704 
	C267.099426,36.986271 267.696838,33.618843 262.744812,32.757088 
	C269.562195,32.637772 275.856537,30.968380 282.055878,32.787308 
	C289.078278,34.847721 290.584747,43.205681 284.609131,48.142948 
	C282.059235,50.249775 282.325714,51.521976 284.014709,53.562397 
	C288.129669,58.533588 289.755493,65.713806 297.305878,67.885193 
	C291.920135,69.592941 289.651276,69.147560 286.738434,65.265320 
	C284.152557,61.818832 281.846924,58.141785 279.657684,54.425064 
	C278.162323,51.886410 276.088318,50.998405 273.404938,51.510082 
	C270.046509,52.150482 271.405609,54.997120 271.520752,56.789673 
	C271.732758,60.089729 269.933716,63.852997 273.639740,66.794556 
	C274.350159,67.336830 274.493774,67.756538 274.161560,68.496445 
z"/>
<path fill="#E8EEF4" opacity="1.000000" stroke="none" 
	d="
M166.264008,50.036587 
	C166.000870,52.028900 166.850494,53.730984 165.542038,55.765331 
	C163.796585,49.640968 159.053680,51.543907 155.073975,51.366203 
	C154.758133,51.352104 154.255142,51.389050 154.142212,51.580788 
	C151.789185,55.575672 153.200577,59.933353 153.226730,64.093994 
	C153.245728,67.117561 156.216980,66.664200 158.299286,66.553268 
	C162.998352,66.302925 167.505920,65.372963 171.359909,62.061745 
	C170.542206,65.875305 169.055710,68.946739 164.451904,68.977753 
	C158.305801,69.019157 152.159180,68.987991 145.181366,68.987991 
	C151.333130,63.395847 148.706314,56.661552 148.608643,50.635017 
	C148.511917,44.667709 151.749725,37.699593 144.365540,32.064354 
	C152.595245,32.064354 159.987946,31.475729 167.219086,32.301620 
	C171.093704,32.744144 167.947723,36.538422 168.409698,39.091476 
	C165.690430,32.530773 160.253372,34.736767 155.712860,34.494377 
	C154.267487,34.417221 153.091064,35.085674 153.081192,36.816929 
	C153.062210,40.146694 152.862610,43.493298 153.130615,46.801098 
	C153.339722,49.381962 161.179153,49.956867 163.852448,47.586044 
	C164.543716,46.972977 164.971207,46.062466 165.549149,45.247299 
	C166.923706,46.645390 166.106018,48.214500 166.264008,50.036587 
z"/>
<path fill="#00388C" opacity="1.000000" stroke="none" 
	d="
M316.679626,94.008820 
	C315.923706,96.598610 313.880646,95.976501 312.151001,95.977402 
	C259.800751,96.004623 207.450516,96.004196 155.100281,95.978142 
	C153.501450,95.977348 151.735413,96.488251 150.202042,94.727600 
	C150.900467,92.855209 152.402222,93.533539 153.614868,93.532906 
	C207.536423,93.504662 261.457977,93.482590 315.379547,93.518570 
	C315.710754,93.518791 316.041901,93.581230 316.679626,94.008820 
z"/>
<path fill="#E5ECF3" opacity="1.000000" stroke="none" 
	d="
M200.352341,60.153122 
	C199.527100,63.190918 198.107330,65.410973 196.159546,68.312294 
	C192.156708,60.102123 188.401489,52.399811 184.554123,44.508518 
	C180.672485,51.999828 181.596176,64.838997 186.687531,68.456177 
	C182.785706,68.456177 179.489975,68.456177 175.772720,68.456177 
	C181.088715,63.368748 179.398987,56.642223 179.903244,50.526520 
	C180.406235,44.426384 181.942657,37.878601 176.686874,32.564365 
	C181.507919,31.012228 184.121124,32.419361 185.967865,37.017197 
	C188.878769,44.264538 192.479462,51.238346 195.907242,58.269886 
	C196.310989,59.098106 196.363464,62.148327 198.800354,59.232681 
	C199.668350,58.922306 200.158112,59.163292 200.352341,60.153122 
z"/>
<path fill="#E5ECF3" opacity="1.000000" stroke="none" 
	d="
M201.655518,53.899338 
	C204.833435,47.199390 208.008072,40.976650 210.824677,34.595871 
	C212.373596,31.086983 215.027924,32.244785 217.620132,32.211399 
	C212.988342,38.163322 214.508377,64.507568 220.065979,68.239624 
	C216.271637,69.361961 212.818802,68.541458 209.401688,68.807312 
	C214.523483,60.219547 209.457962,51.680607 210.603165,43.286896 
	C210.171982,43.152863 209.740784,43.018833 209.309586,42.884800 
	C207.351288,46.750648 205.392990,50.616501 203.205505,54.736130 
	C202.337860,55.082966 201.846786,54.856342 201.655518,53.899338 
z"/>
<path fill="#DFE8F1" opacity="1.000000" stroke="none" 
	d="
M313.178284,46.488495 
	C309.061584,53.770920 309.800415,64.793060 314.850586,68.262215 
	C310.699707,69.553490 306.859680,68.415520 302.760437,68.687111 
	C307.412872,66.059814 306.081207,61.818813 306.194977,57.990921 
	C306.313721,53.996502 306.341064,50.137737 303.556458,46.699772 
	C299.963867,42.264202 298.381287,36.311405 292.818298,32.730213 
	C296.467255,31.421736 299.839355,32.477108 303.860168,31.936033 
	C302.025940,34.322277 301.466492,36.165039 303.259338,38.352467 
	C305.138031,40.644592 306.570770,43.319576 308.065643,45.904030 
	C309.585083,48.531036 310.497192,47.048817 311.746094,45.268917 
	C312.994049,44.794044 313.382904,45.286812 313.178284,46.488495 
z"/>
<path fill="#DFE8F1" opacity="1.000000" stroke="none" 
	d="
M283.041748,117.883072 
	C286.633087,121.782654 289.984070,125.412682 293.335022,129.042709 
	C293.757111,124.513702 296.787964,119.736633 290.729553,116.036613 
	C293.678314,116.036613 295.889984,116.036613 298.085175,116.036613 
	C294.567200,122.190048 297.749390,129.262405 295.716705,136.685471 
	C290.689789,131.365875 286.111359,126.520882 281.532928,121.675896 
	C281.197083,126.508682 278.103333,131.516556 283.827423,135.510742 
	C280.938629,135.510742 278.509369,135.510742 276.020538,135.510742 
	C279.585358,130.442917 279.369965,119.402939 275.518097,116.030571 
	C278.245392,115.757645 280.885620,114.883171 283.041748,117.883072 
z"/>
<path fill="#D1DEEB" opacity="1.000000" stroke="none" 
	d="
M303.982117,215.825562 
	C303.921173,218.962555 303.163757,221.847778 307.009369,223.801620 
	C303.555695,223.801620 301.093842,223.801620 298.558044,223.801620 
	C301.203522,218.948380 300.742065,207.364334 297.636871,204.145325 
	C300.257385,204.145325 302.659973,204.145325 305.173126,204.145325 
	C303.591095,206.692276 302.577423,210.402481 304.886292,211.851639 
	C307.146423,213.270172 311.632751,213.669647 313.755493,211.456192 
	C315.468140,209.670395 314.755951,206.171326 311.316315,204.084488 
	C314.463745,204.084488 316.917786,204.084488 319.195557,204.084488 
	C317.433472,210.735001 316.725922,217.295822 319.795624,223.816895 
	C317.671387,223.816895 315.207581,223.816895 312.728882,223.816895 
	C312.325989,222.316895 314.220734,222.154938 314.176880,220.958588 
	C314.099609,218.850739 315.265594,215.601120 313.460419,214.919678 
	C310.610626,213.843933 307.097076,213.448212 303.982117,215.825562 
z"/>
<path fill="#D9E4EF" opacity="1.000000" stroke="none" 
	d="
M164.072006,214.355743 
	C163.007919,214.329819 162.140625,214.177322 161.353836,214.364044 
	C159.259872,214.860977 156.125900,212.835861 155.199127,215.705978 
	C154.346893,218.345398 154.115753,221.629684 158.081421,223.782440 
	C154.760025,223.782440 152.308838,223.782440 149.797501,223.782440 
	C152.429642,218.905075 151.944809,207.430023 148.800903,204.189514 
	C151.587906,204.189514 154.137039,204.189514 156.861130,204.189514 
	C154.757980,206.740967 153.431717,210.256165 156.077545,211.904541 
	C158.301743,213.290268 162.866959,213.771103 164.901474,211.449173 
	C166.696198,209.400894 165.916199,205.914566 161.140182,204.151489 
	C165.242844,203.793671 167.872513,204.866318 170.443939,203.624161 
	C167.974777,209.876144 169.218460,215.763901 169.609558,221.893509 
	C170.305420,222.487778 170.463409,222.868942 170.181213,223.586243 
	C168.263885,223.860916 166.579361,223.892319 164.478455,223.860046 
	C163.923645,223.664276 163.785233,223.532196 163.800598,223.157806 
	C166.532654,220.876022 165.063736,218.041809 165.259552,215.199341 
	C164.808807,214.758163 164.537064,214.607117 164.072006,214.355743 
z"/>
<path fill="#E3EBF2" opacity="1.000000" stroke="none" 
	d="
M150.165543,117.664383 
	C149.499115,116.930855 147.216110,116.273209 149.507462,115.928604 
	C153.069855,115.392822 156.788986,115.672462 160.421432,115.912788 
	C162.670090,116.061569 164.554520,117.235756 165.189697,119.646278 
	C165.746384,121.758934 165.333405,123.651100 163.367752,124.868362 
	C162.217773,125.580505 161.467285,126.201714 162.602814,127.531586 
	C164.716934,130.007538 165.942993,133.325958 169.846344,134.654770 
	C166.526428,136.393616 164.251648,135.869507 162.460114,133.051285 
	C161.837631,132.072067 161.169846,131.115662 160.452698,130.203918 
	C159.091629,128.473465 157.807175,125.249481 155.275726,127.278206 
	C153.597397,128.623245 153.866287,131.815155 155.532593,134.031326 
	C155.907013,134.529312 156.381744,134.951874 157.061432,135.677124 
	C154.193008,135.677124 151.731766,135.677124 149.420685,135.677124 
	C152.191650,129.865051 151.079575,123.879410 150.165543,117.664383 
z"/>
<path fill="#E8EEF4" opacity="1.000000" stroke="none" 
	d="
M251.903748,65.320084 
	C257.724396,57.736961 257.995087,50.008354 253.764206,42.151897 
	C251.121597,37.244770 247.093277,34.084988 241.058304,33.875290 
	C239.445496,33.819256 237.413086,34.401558 236.211151,32.426277 
	C247.473206,30.723862 255.068420,34.104618 258.811310,41.893650 
	C262.642517,49.866501 260.676788,59.453815 253.582886,66.060776 
	C252.688492,66.414139 252.217102,66.259613 251.903748,65.320084 
z"/>
<path fill="#EAF0F5" opacity="1.000000" stroke="none" 
	d="
M229.185547,37.807823 
	C224.323196,46.565556 224.829910,55.982059 230.478424,62.667629 
	C234.034134,66.876175 238.580170,68.745865 244.502670,68.308754 
	C245.310074,68.570099 245.460434,68.938477 245.189972,69.624657 
	C234.757904,71.107460 227.834885,68.222908 224.039749,61.137756 
	C219.934280,53.473259 221.124435,44.209980 227.415634,36.988518 
	C228.348740,36.631294 228.856674,36.808304 229.185547,37.807823 
z"/>
<path fill="#EAF0F5" opacity="1.000000" stroke="none" 
	d="
M222.876740,172.478210 
	C226.093262,171.941772 230.805252,171.709641 230.856201,174.573761 
	C230.936310,179.076447 233.354050,182.828262 233.363281,186.943985 
	C233.370926,190.339401 229.971588,191.723602 226.836868,191.959122 
	C223.226486,192.230362 219.580109,192.022110 216.143311,192.022110 
	C218.578384,186.057770 218.307205,180.189896 216.481506,174.038055 
	C215.681259,173.540512 215.500610,173.169785 215.834854,172.476776 
	C217.428589,172.278900 218.757095,172.291214 220.483612,172.328537 
	C221.274567,172.621185 221.615631,172.942810 222.073761,173.630936 
	C223.215454,175.038467 222.555862,176.967529 224.455170,177.917313 
	C225.932098,175.977997 224.062332,175.165161 223.039337,173.780365 
	C222.795609,173.246674 222.741974,173.014404 222.876740,172.478210 
z"/>
<path fill="#FFFFFF" opacity="1.000000" stroke="none" 
	d="
M317.408081,94.300873 
	C315.994965,94.331963 315.003754,94.198723 314.012512,94.198723 
	C259.652130,94.198463 205.291733,94.209381 150.471893,94.311584 
	C149.558762,94.337875 149.105118,94.271751 148.318512,94.304832 
	C147.815903,94.490326 147.646225,94.576630 147.246567,94.493629 
	C146.433899,93.888748 146.007126,93.184013 146.918900,92.949501 
	C148.179428,92.625298 149.549286,92.655617 150.872345,92.655342 
	C206.033005,92.643929 261.193665,92.642944 316.354340,92.663620 
	C317.820251,92.664169 319.359558,92.294235 320.758301,93.158760 
	C320.238708,94.825798 318.808777,93.878868 317.408081,94.300873 
z"/>
<path fill="#E5ECF3" opacity="1.000000" stroke="none" 
	d="
M230.169846,223.475189 
	C228.109909,223.744919 226.303543,223.744919 223.892365,223.744919 
	C225.573944,221.689499 226.040985,219.642990 224.349701,217.976974 
	C222.180420,215.840088 219.266281,216.773651 216.806580,217.117325 
	C214.644867,217.419357 213.949722,219.554596 214.627411,222.021317 
	C215.291626,222.527115 215.459641,222.885025 215.165298,223.569855 
	C213.901321,223.790268 212.875931,223.788818 211.466217,223.773438 
	C210.693893,223.427994 210.502045,223.011627 210.724792,222.184113 
	C214.207031,215.956009 217.500702,210.041321 221.126053,203.531021 
	C225.128540,209.393127 226.801987,215.625900 229.945282,221.507141 
	C230.404587,222.239105 230.512939,222.701157 230.169846,223.475189 
z"/>
<path fill="#D9E4EF" opacity="1.000000" stroke="none" 
	d="
M237.145477,118.055511 
	C236.838867,121.892860 236.678513,125.374573 236.662125,128.856964 
	C236.636414,134.325562 238.572113,135.561401 243.620941,133.435501 
	C244.708603,132.977509 245.408875,131.162231 246.984848,132.411728 
	C247.176956,132.564056 247.306534,133.140991 247.184174,133.289200 
	C246.262360,134.405746 245.554993,135.888062 243.818680,135.902893 
	C239.837280,135.936905 235.855377,135.913666 231.839966,135.913666 
	C233.246887,129.175018 234.341705,122.623909 231.279663,115.771080 
	C232.948151,115.771080 235.441711,115.361084 237.715256,115.892426 
	C239.773422,116.373444 237.641022,117.088387 237.145477,118.055511 
z"/>
<path fill="#E5ECF3" opacity="1.000000" stroke="none" 
	d="
M274.752380,222.228027 
	C276.107574,217.568039 275.533020,213.116592 275.413361,208.729492 
	C275.287354,204.109131 271.785065,206.524475 269.235687,206.689346 
	C268.597229,207.330704 268.190521,207.482330 267.445923,207.191833 
	C267.050507,204.475586 268.357971,203.938339 270.621277,204.024002 
	C274.946228,204.187714 279.296356,204.290527 283.608368,204.003311 
	C287.106812,203.770294 287.569946,205.424225 287.048828,208.417343 
	C285.336029,208.262344 285.138855,205.919632 283.207367,206.002228 
	C280.731079,206.108139 278.504456,205.783859 278.921051,209.492432 
	C279.364746,213.442078 278.463806,217.467331 279.684937,221.725113 
	C280.338593,222.378952 280.483032,222.796936 280.173645,223.545639 
	C278.582764,223.803238 277.234100,223.803284 275.480957,223.789978 
	C274.682739,223.452164 274.517059,223.031418 274.752380,222.228027 
z"/>
<path fill="#E8EEF4" opacity="1.000000" stroke="none" 
	d="
M264.463318,191.500244 
	C259.553741,192.852097 254.960236,191.763718 250.174438,192.097549 
	C252.791565,186.820099 252.200058,175.788620 249.016144,172.574005 
	C251.824265,172.574005 254.322510,172.574005 256.756287,172.574005 
	C253.614899,177.738922 255.325272,183.568130 255.309891,189.154800 
	C255.304031,191.276550 257.877380,190.630585 259.461273,190.558273 
	C261.712067,190.455505 263.486053,189.186905 265.249542,187.886063 
	C266.735718,189.334641 265.486115,190.260193 264.463318,191.500244 
z"/>
<path fill="#D1DEEB" opacity="1.000000" stroke="none" 
	d="
M249.953430,222.342819 
	C253.279190,222.545197 255.833694,221.583008 258.330872,219.567383 
	C257.458710,224.717331 256.913574,224.851898 243.573746,223.730530 
	C245.416565,217.005829 244.688354,207.447617 241.784409,204.404022 
	C244.578033,204.404022 247.054398,204.404022 249.521774,204.404022 
	C247.647537,210.289200 246.799683,216.282089 249.953430,222.342819 
z"/>
<path fill="#EAF0F5" opacity="1.000000" stroke="none" 
	d="
M184.839828,222.409912 
	C186.884598,217.272537 185.486237,212.207016 185.849884,206.791183 
	C185.545059,205.860855 185.450546,205.339417 185.781555,204.449219 
	C187.074585,204.091156 188.133408,204.067169 189.582520,204.123077 
	C190.333740,204.518036 190.483368,204.913116 190.190216,205.636810 
	C189.147705,208.046906 188.124008,210.700500 190.366013,212.082321 
	C192.275742,213.259308 194.874527,212.655441 196.506485,210.111359 
	C197.271057,212.460327 197.071991,214.395935 196.791931,217.028000 
	C194.736877,214.839005 192.195282,212.992661 190.118683,214.854385 
	C188.339355,216.449646 188.813141,219.387192 190.567139,221.902344 
	C191.330750,222.392487 191.468918,222.746735 191.175812,223.400085 
	C189.272202,223.704422 187.590317,223.791382 185.487427,223.854614 
	C184.688354,223.525208 184.530685,223.131302 184.839828,222.409912 
z"/>
<path fill="#E5ECF3" opacity="1.000000" stroke="none" 
	d="
M194.529694,190.107056 
	C192.211670,193.699203 188.432098,192.406845 185.088623,191.675568 
	C181.725876,190.940079 180.823837,188.103363 180.578644,184.790222 
	C180.277252,180.717392 182.313232,176.148773 178.115692,172.464569 
	C180.761078,172.464569 183.121231,172.464569 185.623840,172.464569 
	C182.887238,177.094528 183.520508,182.253479 184.591492,187.016006 
	C185.768005,192.247787 190.463730,190.473785 194.529694,190.107056 
z"/>
<path fill="#E5ECF3" opacity="1.000000" stroke="none" 
	d="
M257.835938,117.547485 
	C256.554504,115.828484 256.553680,115.759529 256.981354,115.754471 
	C259.127563,115.729095 261.274261,115.742836 264.152588,115.742836 
	C260.892090,118.998077 261.951172,122.634506 262.120514,125.973640 
	C262.282013,129.158142 259.993439,133.142395 265.883301,135.595215 
	C261.845123,135.595215 259.326599,135.595215 257.085205,135.595215 
	C259.706879,129.777969 258.554230,123.771935 257.835938,117.547485 
z"/>
<path fill="#D9E4EF" opacity="1.000000" stroke="none" 
	d="
M282.158081,186.572861 
	C281.377167,181.641251 284.114166,176.568359 279.637115,172.393524 
	C282.439636,172.393524 284.978912,172.393524 287.536926,172.393524 
	C285.200958,176.236023 285.102875,188.650864 287.547058,191.942490 
	C285.116028,191.942490 282.849213,191.942490 280.053711,191.942490 
	C281.462006,190.441162 282.693756,189.011307 282.158081,186.572861 
z"/>
<path fill="#EAF0F5" opacity="1.000000" stroke="none" 
	d="
M206.703003,134.065567 
	C206.914276,129.629639 206.892685,125.498863 207.001083,121.371506 
	C207.058578,119.182137 206.992340,117.160019 204.576782,115.957611 
	C207.138443,115.957611 209.700089,115.957611 212.353790,115.957611 
	C208.840790,121.494270 210.862106,127.406273 210.825027,133.536728 
	C211.357147,134.269318 211.475693,134.646255 211.172882,135.318207 
	C209.906525,135.599823 208.865372,135.653915 207.435883,135.657654 
	C206.677307,135.278549 206.502838,134.866837 206.703003,134.065567 
z"/>
<path fill="#0E4997" opacity="1.000000" stroke="none" 
	d="
M240.811188,160.004059 
	C240.449554,160.007050 240.313004,160.060455 240.239777,160.057236 
	C238.112366,156.824615 236.167038,153.583664 239.327972,149.480804 
	C242.366257,146.742294 245.175064,147.170090 248.280136,149.393661 
	C251.048676,152.913956 251.056839,155.886978 247.357452,158.767334 
	C246.993866,159.182861 246.986572,159.367065 246.958313,159.827026 
	C245.013962,160.174911 243.096924,159.887192 240.811188,160.004059 
z"/>
<path fill="#0E4997" opacity="1.000000" stroke="none" 
	d="
M298.390320,158.757996 
	C297.816589,159.009018 297.599792,159.030045 297.057861,159.083130 
	C295.829895,159.986755 294.749023,159.989838 293.217468,159.627289 
	C287.303711,156.222870 287.126434,153.001480 292.534363,148.035065 
	C293.953857,147.358948 295.082886,147.534546 296.608704,147.623505 
	C302.376648,151.984818 302.798492,154.623581 298.390320,158.757996 
z"/>
<path fill="#EAF0F5" opacity="1.000000" stroke="none" 
	d="
M148.871323,173.013748 
	C150.798904,172.629028 152.518387,172.546204 154.600571,172.518951 
	C155.422073,172.915848 155.734909,173.359894 155.946625,174.318008 
	C156.251007,178.034180 156.087372,181.279068 154.389435,184.676758 
	C154.117188,186.082428 154.071899,187.148087 154.095322,188.609070 
	C154.484787,189.479691 154.486084,190.050430 154.819641,190.781982 
	C153.252609,193.398819 150.845688,191.384399 148.586243,192.322998 
	C151.854614,186.254913 150.898483,180.412811 149.337341,174.258194 
	C148.897263,173.744858 148.780258,173.530258 148.871323,173.013748 
z"/>
<path fill="#E3EBF2" opacity="1.000000" stroke="none" 
	d="
M317.919739,133.343826 
	C319.555542,128.222137 315.575623,127.944298 312.881989,126.731339 
	C307.023590,124.093239 306.300110,121.395134 310.593506,116.469757 
	C311.058929,116.598251 311.214081,116.891251 311.220490,117.658791 
	C309.600098,122.663940 313.469208,122.813713 315.956177,123.934166 
	C321.555786,126.456955 322.411255,128.567474 319.407776,133.934250 
	C318.594452,134.341888 318.171844,134.213303 317.919739,133.343826 
z"/>
<path fill="#E3EBF2" opacity="1.000000" stroke="none" 
	d="
M306.196686,175.819244 
	C303.281677,184.224121 305.093292,188.668213 312.346802,190.752350 
	C313.453583,190.513641 314.204498,190.423950 314.913971,191.383560 
	C310.165222,192.752472 305.502838,192.892685 302.725922,188.025330 
	C300.170258,183.545837 300.853027,179.166016 304.682983,175.154190 
	C305.540649,174.812149 305.975433,174.963318 306.196686,175.819244 
z"/>
<path fill="#E5ECF3" opacity="1.000000" stroke="none" 
	d="
M186.797012,115.908447 
	C193.144562,116.646484 196.160095,119.386154 196.669098,124.399170 
	C197.170639,129.338608 194.565399,133.041046 188.418396,135.640320 
	C187.875916,135.525742 187.714081,135.354507 187.457397,134.843750 
	C187.359848,134.000122 187.364182,133.432159 187.670959,133.065582 
	C192.259735,127.582336 191.365646,122.469116 186.594757,117.244270 
	C186.530930,116.665855 186.558212,116.430222 186.797012,115.908447 
z"/>
<path fill="#BED0E3" opacity="1.000000" stroke="none" 
	d="
M319.794434,151.779465 
	C319.840973,153.190445 320.830841,155.143295 318.568329,154.917175 
	C311.871063,154.247849 315.553467,157.921341 316.025360,160.500504 
	C314.627441,161.023392 313.079224,160.897400 311.417236,160.427444 
	C312.513397,156.012314 312.571960,151.688171 311.287354,147.017532 
	C314.705109,147.911011 318.279358,145.390259 321.412537,148.863770 
	C321.286133,150.307419 319.175629,149.804993 319.794434,151.779465 
z"/>
<path fill="#E8EEF4" opacity="1.000000" stroke="none" 
	d="
M181.997314,135.318207 
	C177.397827,134.357605 175.098480,131.606140 174.627060,127.479126 
	C174.078461,122.676437 175.674744,118.792297 180.624115,116.413269 
	C181.144806,116.428299 181.322800,116.595657 181.675934,117.084702 
	C181.980499,117.886307 182.182297,118.449516 181.980530,118.859390 
	C179.250168,124.405914 180.516632,129.307175 184.291718,134.199783 
	C183.857346,135.348267 183.172516,135.513916 181.997314,135.318207 
z"/>
<path fill="#EAF0F5" opacity="1.000000" stroke="none" 
	d="
M203.491974,148.966827 
	C203.462662,152.499191 203.368423,155.667389 203.664749,158.798645 
	C203.812088,160.355728 202.980133,160.352402 201.523621,160.621216 
	C201.005447,160.671112 200.707367,160.295364 200.554565,160.110535 
	C200.518661,157.792145 202.947357,154.875687 198.723633,154.149002 
	C195.871735,153.658340 193.229950,153.918457 194.115723,158.460083 
	C194.438156,159.307678 194.501678,159.769836 194.052490,160.452118 
	C193.411346,160.631226 193.078232,160.614304 192.496445,160.627533 
	C191.751251,160.428558 191.467911,160.042862 191.467804,159.126846 
	C191.581177,155.892044 191.624466,153.030960 191.664749,149.742004 
	C191.445465,148.828629 191.418823,148.332916 191.862778,147.566772 
	C192.532242,147.284622 192.920654,147.262680 193.600815,147.240189 
	C194.155960,147.343048 194.419357,147.446472 194.574890,147.960419 
	C194.214218,150.241776 192.591644,152.787567 196.212189,152.988754 
	C198.305542,153.105087 201.521652,154.244186 200.954895,149.521347 
	C200.613617,148.699982 200.499603,148.256363 200.867691,147.520493 
	C201.520386,147.273148 201.905029,147.267838 202.578125,147.268967 
	C203.318420,147.596527 203.558960,148.033875 203.491974,148.966827 
z"/>
<path fill="#D9E4EF" opacity="1.000000" stroke="none" 
	d="
M313.160583,46.546494 
	C312.759338,46.302212 312.583527,45.822330 312.209473,45.173836 
	C312.902130,43.420261 313.836365,41.857857 314.674133,40.245323 
	C316.100525,37.499851 320.011536,34.359661 313.590942,32.345963 
	C316.568909,32.345963 319.546844,32.345963 323.206482,32.345963 
	C319.061035,36.774372 316.613831,41.799759 313.160583,46.546494 
z"/>
<path fill="#DFE8F1" opacity="1.000000" stroke="none" 
	d="
M155.120438,174.186920 
	C154.980225,173.578217 154.967728,173.291489 154.957611,172.789703 
	C156.571716,171.845474 158.217133,172.065170 159.844681,172.444794 
	C162.523209,173.069550 164.462967,174.620453 164.621185,177.467773 
	C164.788742,180.483322 163.155319,182.502213 160.212814,183.282043 
	C159.104309,183.575821 157.925034,183.602631 156.391266,183.768799 
	C153.345108,183.246109 154.704803,181.522186 155.578751,181.004639 
	C159.817047,178.494858 157.571518,176.550186 155.120438,174.186920 
z"/>
<path fill="#BED0E3" opacity="1.000000" stroke="none" 
	d="
M195.031158,190.034943 
	C196.084320,186.444244 196.974091,182.823807 196.793228,178.944122 
	C196.673553,176.376648 196.612473,174.068497 193.914352,172.458710 
	C195.903534,172.458710 197.892731,172.458710 200.190903,172.458710 
	C198.108826,176.072800 198.990417,180.164017 198.433334,184.075806 
	C198.116562,186.300201 198.333344,188.763535 195.301941,189.922058 
	C194.934937,189.984909 195.028473,189.988220 195.031158,190.034943 
z"/>
<path fill="#18509B" opacity="1.000000" stroke="none" 
	d="
M154.679688,174.160706 
	C157.825974,173.883179 160.493164,174.377411 160.865723,177.812607 
	C161.270630,181.546082 158.688431,182.142288 155.746628,182.137619 
	C155.632767,182.137451 155.420883,182.336349 155.423447,182.438248 
	C155.430283,182.710983 155.529022,182.981400 155.797882,183.519592 
	C155.577042,184.150711 155.149567,184.514969 154.442276,184.947998 
	C154.087936,181.493805 153.492752,177.960602 154.679688,174.160706 
z"/>
<path fill="#BED0E3" opacity="1.000000" stroke="none" 
	d="
M264.166077,160.418335 
	C262.517883,160.540237 260.565948,161.754974 261.048309,158.451691 
	C261.576294,154.836014 262.159027,150.981522 259.974457,147.280746 
	C263.069427,146.880569 265.602356,146.344971 264.138062,151.026505 
	C263.476349,153.141983 264.026489,155.636505 264.063690,158.402054 
	C264.401337,159.238541 264.497040,159.681091 264.166077,160.418335 
z"/>
<path fill="#DFE8F1" opacity="1.000000" stroke="none" 
	d="
M150.071686,148.841614 
	C150.176712,151.757187 152.405838,152.094986 154.111496,152.821289 
	C156.947891,154.029114 158.348984,155.768661 156.554199,159.085236 
	C156.048416,159.352158 155.787521,159.407837 155.206146,159.223923 
	C156.279892,156.222076 154.117126,155.662323 152.334732,154.883942 
	C150.024628,153.875076 147.696655,152.892044 148.885193,149.313110 
	C149.265579,148.885956 149.500015,148.751038 150.071686,148.841614 
z"/>
<path fill="#D1DEEB" opacity="1.000000" stroke="none" 
	d="
M219.194626,160.267212 
	C215.908127,159.855026 213.872849,158.111084 213.668259,154.642456 
	C213.457916,151.076279 215.135010,148.806427 218.616165,147.378693 
	C219.094971,147.441193 219.252197,147.574188 219.460052,148.011993 
	C219.396439,148.989990 218.934647,149.369431 218.071960,149.735947 
	C217.771790,149.808151 217.925476,149.962555 217.862762,149.873505 
	C217.407898,151.344910 217.080002,152.919037 216.679993,154.827667 
	C216.852036,155.987457 217.139648,156.822006 217.716278,157.827454 
	C218.161499,158.159195 218.317719,158.320023 218.761902,158.654617 
	C219.049866,158.828384 218.922974,158.906860 218.944489,158.978302 
	C219.096893,159.317108 219.227783,159.584503 219.194626,160.267212 
z"/>
<path fill="#D9E4EF" opacity="1.000000" stroke="none" 
	d="
M293.397278,147.872253 
	C289.455139,151.436874 289.046295,154.950089 292.642944,158.914703 
	C293.081573,159.352921 293.216736,159.607895 293.200043,160.268250 
	C289.858582,159.916138 287.886505,158.052902 287.652527,154.658325 
	C287.408966,151.125443 289.128296,148.833755 292.597351,147.397797 
	C293.173645,147.408951 293.431396,147.497482 293.397278,147.872253 
z"/>
<path fill="#BED0E3" opacity="1.000000" stroke="none" 
	d="
M311.412170,117.999878 
	C311.043884,117.828651 311.016052,117.523956 310.945984,116.762253 
	C313.764893,114.359276 316.701172,115.496620 319.447876,116.397934 
	C322.647034,117.447701 320.300720,120.120728 320.714996,122.227455 
	C318.255249,119.419312 316.549622,115.340523 311.412170,117.999878 
z"/>
<path fill="#E3EBF2" opacity="1.000000" stroke="none" 
	d="
M223.566956,147.891144 
	C228.147568,149.107025 229.329697,152.314346 227.877533,156.491211 
	C227.362152,157.973618 226.508438,160.019196 224.304871,158.097748 
	C224.198242,155.986069 225.308197,154.339890 225.268021,152.199585 
	C225.022751,151.092819 224.680710,150.316910 224.174789,149.260620 
	C223.795578,148.756958 223.580246,148.533646 223.566956,147.891144 
z"/>
<path fill="#E3EBF2" opacity="1.000000" stroke="none" 
	d="
M298.397766,159.035400 
	C300.528198,155.295242 301.071564,151.772812 296.897034,148.356903 
	C296.895721,147.886581 297.127594,147.701187 297.769897,147.688705 
	C301.240112,148.573990 302.376343,150.802673 302.330475,153.625565 
	C302.290771,156.070129 302.030884,158.631271 298.397766,159.035400 
z"/>
<path fill="#DFE8F1" opacity="1.000000" stroke="none" 
	d="
M170.271393,160.248489 
	C165.737137,156.469299 165.456223,153.962051 169.424622,149.129532 
	C169.145630,152.976120 168.206345,156.422409 171.620239,158.915283 
	C172.172760,160.221603 171.459717,160.404236 170.271393,160.248489 
z"/>
<path fill="#D9E4EF" opacity="1.000000" stroke="none" 
	d="
M240.088440,148.859390 
	C238.159653,152.424744 239.429718,155.832703 240.168701,159.639740 
	C235.842056,156.651688 235.455002,154.443604 238.568375,149.087830 
	C239.145966,148.805496 239.430847,148.702469 240.088440,148.859390 
z"/>
<path fill="#DFE8F1" opacity="1.000000" stroke="none" 
	d="
M247.369446,159.078369 
	C248.706573,156.467743 249.441925,153.809235 247.958862,150.527649 
	C247.646332,149.599182 247.802933,149.138214 248.720581,148.853638 
	C252.488922,153.542023 252.094284,156.460724 247.369446,159.078369 
z"/>
<path fill="#D1DEEB" opacity="1.000000" stroke="none" 
	d="
M191.367371,223.734955 
	C190.918015,223.284378 190.921478,222.951706 190.973755,222.369720 
	C192.631622,221.951706 194.281235,221.792801 195.928513,221.612274 
	C197.364304,221.454941 198.204910,219.666687 200.162796,220.146240 
	C198.863358,225.074234 195.042816,223.851242 191.367371,223.734955 
z"/>
<path fill="#D1DEEB" opacity="1.000000" stroke="none" 
	d="
M315.799866,174.598694 
	C314.906708,173.793152 314.097534,172.770035 315.528778,172.924744 
	C317.051086,173.089294 319.445374,172.301834 320.024200,174.633499 
	C320.394348,176.124512 320.712494,177.816650 319.728027,179.940323 
	C318.283783,178.180939 317.826752,175.990662 315.799866,174.598694 
z"/>
<path fill="#D1DEEB" opacity="1.000000" stroke="none" 
	d="
M211.371368,135.684174 
	C210.966232,135.195908 210.984772,134.846069 211.007965,134.233170 
	C213.652985,134.245895 216.242783,134.092148 218.566345,132.674667 
	C219.450745,132.135147 220.356583,131.439835 221.045120,132.544968 
	C221.741455,133.662613 220.440628,134.379166 219.825455,134.899033 
	C217.412445,136.938141 214.515259,135.804382 211.371368,135.684174 
z"/>
<path fill="#D1DEEB" opacity="1.000000" stroke="none" 
	d="
M190.376831,205.886475 
	C189.955765,205.511444 189.952789,205.137466 189.961319,204.483246 
	C191.953278,204.106888 193.944351,204.108078 195.911789,203.892929 
	C199.226227,203.530441 199.467270,205.296417 198.684387,208.269455 
	C196.434616,205.881622 193.683487,205.597458 190.376831,205.886475 
z"/>
<path fill="#18509B" opacity="1.000000" stroke="none" 
	d="
M320.144470,151.910324 
	C318.991394,152.267883 318.083618,152.520630 317.165527,152.727905 
	C315.776215,153.041550 314.980957,152.558472 314.929138,151.044006 
	C314.884583,149.741455 315.235870,148.720764 316.741455,148.756485 
	C318.040314,148.787277 319.334503,149.014114 321.109863,149.215866 
	C322.163422,150.581772 321.242035,151.167999 320.144470,151.910324 
z"/>
<path fill="#D9E4EF" opacity="1.000000" stroke="none" 
	d="
M315.193115,135.696228 
	C311.304657,135.972168 307.393677,136.375137 307.566986,130.349594 
	C310.323517,131.153030 311.240845,134.492767 314.498962,134.402069 
	C315.259491,134.706268 315.436493,135.040619 315.193115,135.696228 
z"/>
<path fill="#D1DEEB" opacity="1.000000" stroke="none" 
	d="
M229.450394,38.085403 
	C228.849579,37.905434 228.560638,37.559509 227.990234,37.023438 
	C229.742371,34.155865 232.756943,33.145157 236.129944,32.021683 
	C238.395477,33.130753 237.206619,33.664528 236.007874,34.053371 
	C233.600174,34.834362 231.478683,36.039978 229.450394,38.085403 
z"/>
<path fill="#BED0E3" opacity="1.000000" stroke="none" 
	d="
M245.334427,69.886421 
	C244.944000,69.510902 244.923935,69.165642 244.918335,68.561295 
	C247.182800,67.521133 249.433258,66.740952 251.614777,65.034309 
	C252.206894,65.227280 252.473633,65.548424 253.010956,66.033569 
	C251.287201,68.519577 248.439407,69.102844 245.334427,69.886421 
z"/>
<path fill="#93B0CF" opacity="1.000000" stroke="none" 
	d="
M154.508789,159.027191 
	C155.120422,159.047806 155.355194,159.111282 155.949615,159.235596 
	C153.639526,162.047668 151.176697,161.654663 148.887894,158.628494 
	C150.635910,158.775681 152.383911,158.922867 154.508789,159.027191 
z"/>
<path fill="#A8C0D9" opacity="1.000000" stroke="none" 
	d="
M248.898499,148.604095 
	C248.794601,149.150101 248.465591,149.391815 247.992172,149.907654 
	C245.838608,148.446960 243.709579,147.401642 240.789978,149.065582 
	C240.194794,149.081635 239.928467,149.043930 239.261627,148.957397 
	C241.962860,145.981308 245.280106,146.527679 248.898499,148.604095 
z"/>
<path fill="#D1DEEB" opacity="1.000000" stroke="none" 
	d="
M175.783066,147.745209 
	C178.313110,147.808563 180.266357,148.584610 179.077225,151.765778 
	C177.515961,151.544617 177.713013,149.692780 176.335693,148.970734 
	C175.943970,148.574173 175.801880,148.349380 175.783066,147.745209 
z"/>
<path fill="#E3EBF2" opacity="1.000000" stroke="none" 
	d="
M201.551331,53.725533 
	C202.038986,53.845783 202.269775,54.203484 202.738449,54.775551 
	C202.223969,56.686981 201.471603,58.384045 200.468063,60.328674 
	C199.980087,60.203445 199.743271,59.830650 199.262329,59.232796 
	C199.776932,57.326149 200.535690,55.644566 201.551331,53.725533 
z"/>
<path fill="#BED0E3" opacity="1.000000" stroke="none" 
	d="
M264.835419,159.568848 
	C267.071594,159.436432 268.873535,158.814957 271.497803,157.320709 
	C270.432404,161.192596 268.140106,161.067963 265.447205,160.859161 
	C264.655273,160.567841 264.481873,160.229538 264.835419,159.568848 
z"/>
<path fill="#A8C0D9" opacity="1.000000" stroke="none" 
	d="
M181.394440,118.383438 
	C181.055283,117.790710 181.048813,117.484177 181.004593,116.719292 
	C182.692230,115.323654 184.529709,115.005409 186.740097,115.443298 
	C187.019836,115.834679 187.031158,116.047035 187.040588,116.578384 
	C185.778000,119.016136 183.924988,119.359673 181.394440,118.383438 
z"/>
<path fill="#DFE8F1" opacity="1.000000" stroke="none" 
	d="
M50.306187,65.678772 
	C49.537663,66.008003 49.080788,66.014587 48.281227,66.020302 
	C47.600437,64.916290 47.262341,63.813145 46.945251,62.360573 
	C47.436169,62.000324 47.906082,61.989502 48.728531,61.977921 
	C51.305721,62.324665 50.964916,63.838966 50.306187,65.678772 
z"/>
<path fill="#93B0CF" opacity="1.000000" stroke="none" 
	d="
M240.747025,160.285278 
	C242.332611,158.496338 244.291534,159.345428 246.587891,159.961868 
	C245.086365,161.705429 243.070175,161.195236 240.747025,160.285278 
z"/>
<path fill="#93B0CF" opacity="1.000000" stroke="none" 
	d="
M150.790176,149.016220 
	C150.179337,149.058762 149.949722,149.050400 149.375641,149.031464 
	C150.226471,146.647690 152.293304,146.688965 154.766541,147.259750 
	C155.207321,147.745819 155.358887,148.027161 155.227982,148.695770 
	C153.697128,148.734680 152.446411,148.460373 150.790176,149.016220 
z"/>
<path fill="#93B0CF" opacity="1.000000" stroke="none" 
	d="
M175.594193,147.199860 
	C175.966995,147.600830 176.027634,147.835846 176.087158,148.434906 
	C174.472885,148.634094 172.859711,148.469208 170.866913,148.265518 
	C172.218918,146.473999 173.808884,146.955612 175.594193,147.199860 
z"/>
<path fill="#93B0CF" opacity="1.000000" stroke="none" 
	d="
M308.630249,172.989044 
	C310.888794,171.495560 312.784668,171.521912 315.790497,173.251740 
	C313.116760,173.575180 311.511841,173.769333 309.449188,173.972809 
	C308.767456,173.766861 308.543518,173.551590 308.630249,172.989044 
z"/>
<path fill="#BED0E3" opacity="1.000000" stroke="none" 
	d="
M181.928604,135.454773 
	C182.230087,135.022720 182.834076,134.816315 183.695404,134.420959 
	C184.876038,132.987640 186.064377,132.981018 187.701965,133.841522 
	C188.049927,134.434311 188.061462,134.686844 188.055359,135.318176 
	C186.100128,136.419327 184.165298,136.166000 181.928604,135.454773 
z"/>
<path fill="#93B0CF" opacity="1.000000" stroke="none" 
	d="
M293.323303,160.825714 
	C293.022980,160.411545 292.997833,160.149460 292.959534,159.492645 
	C293.959351,159.158386 294.972290,159.218842 296.358948,159.197235 
	C297.360046,162.549774 294.801453,160.623245 293.323303,160.825714 
z"/>
<path fill="#93B0CF" opacity="1.000000" stroke="none" 
	d="
M219.303238,160.828461 
	C219.019577,160.410416 219.008606,160.138290 218.981812,159.457947 
	C219.724716,159.125275 220.483444,159.200836 221.614548,159.190201 
	C222.176147,158.948944 222.365387,158.793884 222.724854,158.963928 
	C223.060425,162.355362 220.834167,160.711670 219.303238,160.828461 
z"/>
<path fill="#0E4997" opacity="1.000000" stroke="none" 
	d="
M225.055496,152.186447 
	C226.347076,153.761536 225.996643,155.583862 224.776489,157.595154 
	C224.107986,156.021179 223.664429,154.224350 225.055496,152.186447 
z"/>
<path fill="#A8C0D9" opacity="1.000000" stroke="none" 
	d="
M170.232834,160.273331 
	C170.485046,159.884720 171.037094,159.723999 171.765213,159.334137 
	C172.695969,159.142502 173.450638,159.180008 174.582596,159.243866 
	C175.315643,159.545395 175.478119,159.902283 175.192780,160.578979 
	C173.456802,161.180115 171.968628,161.222366 170.232834,160.273331 
z"/>
<path fill="#A8C0D9" opacity="1.000000" stroke="none" 
	d="
M315.313965,135.961166 
	C315.011047,135.588547 314.983551,135.270767 314.886230,134.718094 
	C315.712189,134.084915 316.541107,133.692398 317.674164,133.135147 
	C318.197113,133.263031 318.415863,133.555649 318.881744,133.975708 
	C318.336090,135.403076 317.023773,135.756958 315.313965,135.961166 
z"/>
<path fill="#0E4997" opacity="1.000000" stroke="none" 
	d="
M216.870728,154.881409 
	C215.881012,153.363129 216.416428,151.744522 217.532166,149.977127 
	C217.917130,151.434860 218.302948,153.119965 216.870728,154.881409 
z"/>
<path fill="#D1DEEB" opacity="1.000000" stroke="none" 
	d="
M308.609619,172.720093 
	C308.961914,172.864685 308.982880,173.087616 308.997620,173.646332 
	C308.203217,174.615662 307.415009,175.249176 306.362946,176.036530 
	C305.877350,175.899933 305.655579,175.609512 305.211823,175.156891 
	C305.733551,173.734924 306.996155,173.252045 308.609619,172.720093 
z"/>
<path fill="#A8C0D9" opacity="1.000000" stroke="none" 
	d="
M223.476822,147.285278 
	C223.842667,147.718018 223.916306,147.964050 224.000427,148.595169 
	C223.842392,148.996597 223.673874,149.012924 223.251404,149.032440 
	C222.761002,149.124710 222.524567,149.213791 222.144821,148.952026 
	C222.001495,148.601166 221.633545,148.335800 221.406998,148.347076 
	C220.675751,148.685806 220.143509,148.826019 219.337616,148.410431 
	C219.118225,148.223785 218.952927,147.780792 218.945343,147.544495 
	C220.353378,147.238327 221.768997,147.168457 223.476822,147.285278 
z"/>
<path fill="#BED0E3" opacity="1.000000" stroke="none" 
	d="
M315.206970,191.783203 
	C314.369812,191.529022 313.817841,191.279053 312.976074,190.924942 
	C313.854889,190.426559 315.023499,190.032318 316.527649,189.480194 
	C317.024170,189.582428 317.185181,189.842529 317.161438,190.522675 
	C316.481781,191.224274 315.986969,191.505844 315.206970,191.783203 
z"/>
<path fill="#A8C0D9" opacity="1.000000" stroke="none" 
	d="
M230.219818,223.873367 
	C229.994766,223.317993 230.073242,222.891068 230.138992,222.138733 
	C231.038406,222.005035 232.189880,222.161209 232.253159,223.237183 
	C232.321716,224.403030 231.187790,223.903214 230.219818,223.873367 
z"/>
<path fill="#A8C0D9" opacity="1.000000" stroke="none" 
	d="
M274.647095,221.980759 
	C274.977142,222.339569 274.998810,222.750275 275.048523,223.468811 
	C274.228333,224.043167 273.141693,224.479965 272.803925,223.361130 
	C272.543549,222.498581 273.629883,222.276382 274.647095,221.980759 
z"/>
<path fill="#A8C0D9" opacity="1.000000" stroke="none" 
	d="
M274.231476,68.876099 
	C273.972260,68.353287 274.033295,67.960838 274.053589,67.273209 
	C275.009521,66.928963 276.225586,66.832489 276.350464,68.105072 
	C276.471619,69.339890 275.278168,68.923592 274.231476,68.876099 
z"/>
<path fill="#A8C0D9" opacity="1.000000" stroke="none" 
	d="
M280.227600,223.918228 
	C279.954346,223.410233 279.977234,223.017288 279.991211,222.329285 
	C280.963379,222.137817 282.070343,222.133102 282.153168,223.453339 
	C282.163116,223.611938 281.093170,223.838318 280.227600,223.918228 
z"/>
<path fill="#A8C0D9" opacity="1.000000" stroke="none" 
	d="
M317.276794,190.847382 
	C316.960175,190.672485 316.943695,190.402252 316.895203,189.727173 
	C317.689697,188.641998 318.305664,187.613846 319.667877,187.668900 
	C320.265656,189.582870 318.446014,189.857666 317.276794,190.847382 
z"/>
<path fill="#93B0CF" opacity="1.000000" stroke="none" 
	d="
M175.278778,160.793030 
	C174.962433,160.463608 174.957092,160.122650 174.955811,159.525940 
	C175.609344,159.001740 176.258835,158.733246 177.231598,158.325699 
	C177.728058,158.304276 177.901215,158.421890 178.123077,158.849701 
	C177.311111,159.700409 176.450439,160.240952 175.278778,160.793030 
z"/>
<path fill="#D1DEEB" opacity="1.000000" stroke="none" 
	d="
M185.705093,204.015656 
	C185.979630,204.611679 185.943497,205.108200 185.869171,205.976166 
	C185.037048,205.707779 183.735138,205.570602 183.687500,204.255157 
	C183.684158,204.162872 184.799347,204.030106 185.705093,204.015656 
z"/>
<path fill="#A8C0D9" opacity="1.000000" stroke="none" 
	d="
M297.917236,147.563263 
	C297.931122,147.922104 297.681976,147.982574 297.048340,148.057495 
	C295.715698,148.113998 294.767548,148.156036 293.462402,148.178284 
	C293.105377,148.158478 292.916138,147.760803 292.916016,147.540619 
	C294.489075,146.766022 296.069641,146.842926 297.917236,147.563263 
z"/>
<path fill="#BED0E3" opacity="1.000000" stroke="none" 
	d="
M267.053925,207.259323 
	C267.572937,206.962875 267.959351,206.965698 268.635620,206.968567 
	C268.587921,207.920914 268.692749,209.225739 267.216766,209.244263 
	C267.125397,209.245422 267.020142,208.145981 267.053925,207.259323 
z"/>
<path fill="#D1DEEB" opacity="1.000000" stroke="none" 
	d="
M155.118408,149.299103 
	C154.951904,148.812531 154.958298,148.542023 155.010223,147.867996 
	C156.733459,147.631454 157.586853,148.461990 157.163422,150.629364 
	C156.884079,151.133270 156.720840,151.234711 156.349854,151.136292 
	C155.858505,150.462662 155.574905,149.988922 155.118408,149.299103 
z"/>
<path fill="#0E4997" opacity="1.000000" stroke="none" 
	d="
M218.962555,148.444885 
	C219.639175,148.216812 220.160110,148.209839 220.930756,148.280609 
	C220.613358,149.384079 219.734207,149.863541 218.172089,149.828140 
	C218.116821,149.427414 218.461868,149.046692 218.962555,148.444885 
z"/>
<path fill="#A8C0D9" opacity="1.000000" stroke="none" 
	d="
M170.256439,223.924759 
	C169.927414,223.470535 169.906418,223.111572 169.896912,222.483124 
	C170.660889,222.413147 171.566818,222.460022 171.655609,223.471756 
	C171.668747,223.621429 170.946487,223.835648 170.256439,223.924759 
z"/>
<path fill="#A8C0D9" opacity="1.000000" stroke="none" 
	d="
M184.816437,222.228638 
	C185.092438,222.539627 185.098465,222.908630 185.085449,223.554260 
	C184.628021,223.779922 183.942947,223.882950 183.797134,223.649338 
	C183.345749,222.926239 184.048416,222.617279 184.816437,222.228638 
z"/>
<path fill="#A8C0D9" opacity="1.000000" stroke="none" 
	d="
M210.612793,221.962646 
	C210.942474,222.290741 210.971603,222.710770 211.041306,223.445175 
	C210.500900,223.699738 209.919922,223.639954 209.338943,223.580170 
	C209.663391,223.071640 209.987823,222.563126 210.612793,221.962646 
z"/>
<path fill="#A8C0D9" opacity="1.000000" stroke="none" 
	d="
M215.237579,223.897217 
	C214.893082,223.454025 214.859482,223.116348 214.862854,222.526459 
	C215.671524,222.412323 216.624023,222.347977 216.672287,223.449600 
	C216.679626,223.617249 215.941696,223.817535 215.237579,223.897217 
z"/>
<path fill="#93B0CF" opacity="1.000000" stroke="none" 
	d="
M203.668289,149.186386 
	C203.281250,148.885284 203.166733,148.424332 202.959412,147.619385 
	C203.461838,147.299347 204.057083,147.323303 204.652328,147.347260 
	C204.415146,147.907013 204.177979,148.466782 203.668289,149.186386 
z"/>
<path fill="#DFE8F1" opacity="1.000000" stroke="none" 
	d="
M148.865417,172.555389 
	C149.068756,172.919800 149.058105,173.127747 149.030869,173.647583 
	C148.476425,173.773453 147.558685,173.689697 147.475662,173.381256 
	C147.269608,172.615738 147.957993,172.388107 148.865417,172.555389 
z"/>
<path fill="#6A95BE" opacity="1.000000" stroke="none" 
	d="
M194.038116,160.796692 
	C193.878281,160.259186 194.012115,159.870224 194.171509,159.173828 
	C194.959686,159.169449 195.786789,159.493790 195.536713,160.513367 
	C195.480621,160.742081 194.751205,160.805634 194.038116,160.796692 
z"/>
<path fill="#6A95BE" opacity="1.000000" stroke="none" 
	d="
M191.251434,158.883392 
	C191.663284,159.188126 191.788712,159.623123 192.080933,160.357880 
	C191.653824,160.673264 191.059891,160.688858 190.465973,160.704453 
	C190.632309,160.140854 190.798660,159.577255 191.251434,158.883392 
z"/>
<path fill="#D1DEEB" opacity="1.000000" stroke="none" 
	d="
M206.571564,133.875336 
	C206.928284,134.168976 206.974716,134.578964 207.034363,135.298141 
	C206.425491,135.586441 205.803406,135.565552 205.181335,135.544662 
	C205.541321,135.027008 205.901306,134.509354 206.571564,133.875336 
z"/>
<path fill="#93B0CF" opacity="1.000000" stroke="none" 
	d="
M191.833572,147.174896 
	C192.030930,147.751297 191.918045,148.196060 191.733429,148.977478 
	C191.183762,148.794281 190.432068,148.338638 190.291473,147.739594 
	C190.076202,146.822281 191.030563,147.169388 191.833572,147.174896 
z"/>
<path fill="#93B0CF" opacity="1.000000" stroke="none" 
	d="
M200.853653,147.156586 
	C201.096115,147.684265 201.056473,148.090073 200.965118,148.797958 
	C200.383453,148.480438 198.037460,148.161423 200.853653,147.156586 
z"/>
<path fill="#A8C0D9" opacity="1.000000" stroke="none" 
	d="
M222.697052,172.095184 
	C223.065170,172.174316 223.067017,172.581177 223.037201,172.782410 
	C222.858902,173.647171 222.421555,174.037308 221.494781,174.228088 
	C221.111389,173.791092 221.036316,173.382065 220.921448,172.663284 
	C221.364075,172.241058 221.846512,172.128555 222.697052,172.095184 
z"/>
<path fill="#A8C0D9" opacity="1.000000" stroke="none" 
	d="
M215.785751,172.235352 
	C216.102966,172.610703 216.105835,172.954834 216.092438,173.557007 
	C214.825668,173.671829 214.722870,173.097763 215.785751,172.235352 
z"/>
<path fill="#00388C" opacity="1.000000" stroke="none" 
	d="
M147.054077,94.496384 
	C147.181610,94.295357 147.346603,94.266380 147.748581,94.320717 
	C147.776733,94.793640 147.725983,95.717758 147.054077,94.496384 
z"/>
<path fill="#93B0CF" opacity="1.000000" stroke="none" 
	d="
M194.710068,148.307114 
	C194.348160,148.194138 194.229263,148.017349 194.001465,147.540085 
	C194.854034,146.931793 195.603241,146.848221 194.710068,148.307114 
z"/>
<path fill="#18509B" opacity="1.000000" stroke="none" 
	d="
M154.978271,190.710480 
	C154.205185,190.875610 154.045380,190.294724 154.085175,189.314789 
	C154.426407,189.481049 154.688797,189.957718 154.978271,190.710480 
z"/>
<path fill="#93B0CF" opacity="1.000000" stroke="none" 
	d="
M264.853516,159.221741 
	C265.128357,159.689728 265.126862,160.006439 265.073669,160.560471 
	C264.865021,160.822372 264.669037,160.846756 264.194275,160.771027 
	C263.965271,160.265976 264.015045,159.861053 264.082703,159.150589 
	C264.272430,158.920242 264.444305,158.995438 264.853516,159.221741 
z"/>
<path fill="#0E4997" opacity="1.000000" stroke="none" 
	d="
M218.903946,158.656647 
	C218.683807,158.884293 218.388168,158.765259 218.084106,158.234818 
	C218.290314,158.107773 218.541229,158.269958 218.903946,158.656647 
z"/>
<path fill="#A8C0D9" opacity="1.000000" stroke="none" 
	d="
M163.718613,222.969757 
	C163.954376,222.915497 164.055756,223.350113 164.058914,223.573242 
	C163.493622,223.820450 163.048782,223.751816 163.718613,222.969757 
z"/>
<path fill="#93B0CF" opacity="1.000000" stroke="none" 
	d="
M204.282318,160.554077 
	C204.300156,160.313065 204.493408,160.266647 204.686676,160.220230 
	C204.610367,160.396378 204.534058,160.572540 204.282318,160.554077 
z"/>
<path fill="#93B0CF" opacity="1.000000" stroke="none" 
	d="
M200.920120,160.431641 
	C200.373611,161.017654 199.879990,161.115845 200.200897,160.018600 
	C200.546112,160.014511 200.690460,160.103348 200.920120,160.431641 
z"/>
<path fill="#0E4997" opacity="1.000000" stroke="none" 
	d="
M222.836731,159.133484 
	C222.895111,159.289017 222.437866,159.212250 222.212402,159.158127 
	C222.225891,158.761673 222.489685,158.719666 222.836731,159.133484 
z"/>
<path fill="#18509B" opacity="1.000000" stroke="none" 
	d="
M156.902451,192.051971 
	C157.057312,192.042908 156.764008,192.391327 156.764008,192.391327 
	C156.764008,192.391327 156.747589,192.061035 156.902451,192.051971 
z"/>
<path fill="#6A95BE" opacity="1.000000" stroke="none" 
	d="
M164.020767,214.480011 
	C164.182495,214.336365 164.526474,214.345062 164.995605,214.595337 
	C164.794693,214.859070 164.488785,214.790878 164.020767,214.480011 
z"/>
<path fill="#93B0CF" opacity="1.000000" stroke="none" 
	d="
M177.691467,158.441132 
	C177.946823,158.139069 178.338760,158.091507 178.730682,158.043945 
	C178.714233,158.322128 178.697784,158.600296 178.426559,159.019180 
	C178.057205,159.005142 177.942612,158.850388 177.691467,158.441132 
z"/>
<path fill="#93B0CF" opacity="1.000000" stroke="none" 
	d="
M156.169754,151.162659 
	C156.142105,150.936417 156.597702,150.955231 156.822510,150.993530 
	C156.963562,151.625763 156.739975,151.886932 156.169754,151.162659 
z"/>
<path fill="#D9E4EF" opacity="1.000000" stroke="none" 
	d="
M307.325226,129.257706 
	C307.588165,129.311127 307.613129,129.598557 307.638062,129.885971 
	C307.454468,129.754547 307.270844,129.623123 307.325226,129.257706 
z"/>
<path fill="#0E4997" opacity="1.000000" stroke="none" 
	d="
M222.057129,148.775604 
	C222.185608,148.632004 222.369736,148.662827 222.775665,148.864639 
	C222.702545,149.007095 222.407654,148.978561 222.057129,148.775604 
z"/>
<path fill="#18509B" opacity="1.000000" stroke="none" 
	d="
M156.981766,191.971100 
	C156.958405,191.945312 157.215042,191.652924 157.215042,191.652924 
	C157.215042,191.652924 157.226044,191.927902 157.141678,191.985413 
	C157.057312,192.042908 157.005127,191.996887 156.981766,191.971100 
z"/>
<path fill="#074495" opacity="1.000000" stroke="none" 
	d="
M50.160904,66.320709 
	C49.791206,64.868042 49.587879,63.734661 49.232807,62.289223 
	C47.855694,53.225044 47.797760,44.429935 47.900124,35.611786 
	C47.933441,32.741669 48.897739,31.993769 51.660789,32.011074 
	C69.120514,32.120430 86.581276,32.080181 104.041634,32.052040 
	C106.165848,32.048615 107.883118,31.918606 107.877716,35.020241 
	C107.858582,46.005363 107.994339,56.980671 104.825226,67.665321 
	C100.947067,80.740501 93.087044,90.562088 81.103638,97.155807 
	C78.649185,98.506348 76.718224,98.514023 74.248764,97.158760 
	C61.890453,90.376419 54.126560,80.084671 50.160904,66.320709 
z"/>
<path fill="#18509B" opacity="1.000000" stroke="none" 
	d="
M274.998169,49.601105 
	C273.301392,49.483711 271.553741,49.756527 271.474060,47.930031 
	C271.300262,43.944275 271.353607,39.944141 271.449554,35.953136 
	C271.492065,34.186039 272.877106,34.072643 274.320770,33.988823 
	C279.527527,33.686520 283.514282,36.650333 283.982910,41.285576 
	C284.521454,46.612633 282.057007,49.002724 274.998169,49.601105 
z"/>
<path fill="#18509B" opacity="1.000000" stroke="none" 
	d="
M160.162994,124.473412 
	C157.827850,124.588287 154.877243,126.772804 154.520172,122.772728 
	C154.357651,120.952377 153.445801,118.470947 155.719116,117.360748 
	C157.433395,116.523567 159.417084,117.264931 160.737045,118.652489 
	C162.474365,120.478783 162.571442,122.476295 160.162994,124.473412 
z"/>
<path fill="#18509B" opacity="1.000000" stroke="none" 
	d="
M222.332977,190.545624 
	C219.861084,183.903214 220.733276,181.714752 225.250992,182.175354 
	C227.711044,182.426163 229.841080,183.123306 229.966522,186.187119 
	C230.089493,189.190948 228.133499,190.216614 225.673874,190.671448 
	C224.717453,190.848312 223.702408,190.708145 222.332977,190.545624 
z"/>
<path fill="#18509B" opacity="1.000000" stroke="none" 
	d="
M221.139938,174.604370 
	C221.659225,173.921234 222.131973,173.642349 222.806061,173.173553 
	C223.956726,173.248505 224.931870,173.444977 225.850250,173.791824 
	C228.055740,174.624832 228.946320,176.337006 228.206268,178.498642 
	C227.393478,180.872787 225.092606,180.634705 223.170090,180.608826 
	C220.669525,180.575180 221.091980,178.587280 221.064194,176.984009 
	C221.052780,176.325912 221.082428,175.667099 221.139938,174.604370 
z"/>
<path fill="#18509B" opacity="1.000000" stroke="none" 
	d="
M219.922577,210.057343 
	C221.669617,211.130127 222.329224,212.711823 222.646866,214.707703 
	C220.984161,214.707703 219.426270,214.707703 217.854492,214.707703 
	C217.576828,212.791092 218.862228,211.614304 219.922577,210.057343 
z"/>
<path fill="#074495" opacity="1.000000" stroke="none" 
	d="
M188.367249,134.040466 
	C186.949097,134.183594 185.859833,134.185410 184.361633,134.209625 
	C177.519760,130.809570 176.374542,125.447456 180.844772,118.380669 
	C182.726822,117.394112 184.421066,116.830460 186.654495,116.952576 
	C194.339294,120.565147 195.130920,128.685638 188.367249,134.040466 
z"/>
<path fill="#E8EEF4" opacity="1.000000" stroke="none" 
	d="
M67.734512,42.758781 
	C68.735451,46.330662 70.191269,49.316544 72.631332,52.194885 
	C72.749626,52.757568 72.681831,53.018013 72.271622,53.492588 
	C68.283035,53.741585 66.283295,51.322166 64.314224,48.298252 
	C63.674107,47.727028 63.153706,47.536125 62.349663,47.404747 
	C61.905506,47.304325 61.744987,47.144379 61.489571,46.658493 
	C61.412167,46.107849 61.429653,45.883141 61.576748,45.347961 
	C62.365120,44.139950 63.447098,43.688335 64.279808,42.512737 
	C64.591202,42.074543 64.713348,41.898296 65.054726,41.488918 
	C65.415260,41.097210 65.556572,40.938633 66.001129,40.685623 
	C67.402847,40.771729 67.454170,41.653175 67.734512,42.758781 
z"/>
<path fill="#E3EBF2" opacity="1.000000" stroke="none" 
	d="
M78.437881,58.290329 
	C80.062195,54.057854 84.088104,51.397022 85.643517,46.144112 
	C86.619072,45.618954 86.849495,45.679256 87.392105,45.912941 
	C88.425514,46.711971 89.000595,47.450909 89.517578,48.639816 
	C89.697929,51.125652 88.240265,52.123512 86.322220,53.127140 
	C85.643242,53.401466 85.261307,53.564453 84.723259,54.011803 
	C84.515480,54.466660 84.476570,54.666695 84.285248,55.132812 
	C84.000740,55.556152 83.868660,55.713409 83.546257,56.116955 
	C83.205414,56.509655 83.054886,56.656063 82.640854,56.980354 
	C81.389908,58.016869 80.451294,58.985470 78.437881,58.290329 
z"/>
<path fill="#BED0E3" opacity="1.000000" stroke="none" 
	d="
M96.054955,39.708141 
	C100.675644,43.907417 98.111549,47.113953 94.916840,50.596474 
	C94.404739,51.123699 93.974113,51.107178 93.247635,50.759735 
	C92.768753,50.449154 92.587891,50.306873 91.997208,49.603062 
	C91.513039,48.819809 91.438683,48.598080 91.339104,48.028343 
	C91.355522,47.453857 91.397163,47.227371 91.581497,46.690849 
	C93.788322,44.723675 92.890724,41.789375 94.788300,39.769436 
	C95.294426,39.608021 95.515022,39.614460 96.054955,39.708141 
z"/>
<path fill="#6A95BE" opacity="1.000000" stroke="none" 
	d="
M67.164474,70.124947 
	C67.936569,66.211166 71.817436,65.302498 73.989807,62.278046 
	C75.202812,61.284241 76.238075,61.097496 77.081711,62.708290 
	C75.478279,65.851196 72.894836,67.598221 70.461914,69.894356 
	C69.337196,70.533531 68.471069,70.776047 67.164474,70.124947 
z"/>
<path fill="#A8C0D9" opacity="1.000000" stroke="none" 
	d="
M66.488632,69.904968 
	C67.651360,69.869644 68.486366,69.922531 69.740631,69.995514 
	C66.769150,73.137077 63.378410,76.258553 59.987671,79.380020 
	C60.807659,75.202400 64.052773,73.020477 66.488632,69.904968 
z"/>
<path fill="#4272AF" opacity="1.000000" stroke="none" 
	d="
M94.906555,39.650124 
	C95.140793,41.641899 95.138023,43.308022 95.415901,44.925945 
	C95.890472,47.689095 94.318954,47.061733 92.431030,46.554878 
	C91.215240,46.638973 90.512512,46.337326 89.637207,45.496750 
	C89.184647,44.699017 89.088791,44.192932 89.210083,43.296181 
	C90.264221,41.777576 90.791222,40.359886 91.826675,38.825924 
	C91.998901,38.500664 91.967796,38.153847 92.055946,38.003708 
	C93.766388,36.985569 94.288162,38.131248 94.906555,39.650124 
z"/>
<path fill="#A8C0D9" opacity="1.000000" stroke="none" 
	d="
M90.367508,75.207161 
	C87.350700,72.583008 84.813461,70.107437 82.128571,67.335602 
	C81.626015,66.551476 81.487358,66.008423 81.826454,65.064430 
	C86.475845,66.585030 88.204460,71.071030 91.522797,74.464767 
	C91.399284,74.977386 91.123177,75.166573 90.367508,75.207161 
z"/>
<path fill="#18509B" opacity="1.000000" stroke="none" 
	d="
M63.978485,48.137672 
	C66.988281,48.560978 68.438889,50.976582 70.728973,52.825737 
	C71.529633,53.583473 71.940567,54.222775 71.912888,55.418774 
	C71.716751,56.021622 71.587448,56.244137 71.191925,56.746216 
	C68.089188,54.507172 64.244675,52.821537 63.978485,48.137672 
z"/>
<path fill="#D1DEEB" opacity="1.000000" stroke="none" 
	d="
M71.361572,56.269806 
	C71.169876,55.214977 71.105080,54.478561 71.025452,53.368793 
	C71.313354,52.918285 71.616089,52.841129 72.368118,52.630550 
	C72.817413,52.497124 72.795013,52.524391 72.810837,52.524628 
	C72.826653,52.524860 72.529564,52.918591 72.529564,52.918591 
	C72.529564,52.918591 72.823730,53.314610 72.931259,53.092751 
	C74.482231,54.446606 75.925674,56.022316 77.648689,57.748665 
	C77.928253,57.899307 77.966805,57.915092 77.959259,57.934299 
	C78.359810,58.401215 78.524162,58.925434 78.243858,59.905819 
	C77.276237,60.819263 76.460335,60.902264 75.241600,60.312847 
	C74.321739,59.583389 73.757278,59.096722 73.065399,58.358177 
	C72.754913,57.825554 72.545624,57.565945 72.075684,57.238411 
	C71.841286,57.149311 71.994629,57.028717 71.925491,57.097713 
	C71.733719,56.973877 71.611099,56.781048 71.361572,56.269806 
z"/>
<path fill="#EAF0F5" opacity="1.000000" stroke="none" 
	d="
M58.291733,48.358414 
	C56.716000,48.165043 54.874565,48.425915 55.900341,46.253155 
	C57.039322,43.840614 58.830074,41.807304 61.157604,40.580807 
	C62.186489,40.038635 61.642426,41.643829 62.041695,42.526512 
	C62.788456,43.588928 62.759895,44.413647 62.210915,45.646690 
	C61.983673,46.015453 62.002934,46.004768 62.004681,45.993893 
	C61.001305,46.938480 60.365540,48.414124 58.291733,48.358414 
z"/>
<path fill="#93B0CF" opacity="1.000000" stroke="none" 
	d="
M74.796143,60.320969 
	C75.748039,60.074799 76.609871,60.079540 77.902023,60.056732 
	C79.225311,59.633514 79.915771,59.950539 80.599930,60.937668 
	C81.150101,62.182968 81.599358,63.135475 82.068268,64.403351 
	C82.066017,65.234535 82.044106,65.750366 82.001556,66.652756 
	C80.534973,65.801056 79.089020,64.562790 77.340744,63.230598 
	C76.562645,62.216743 75.725571,62.004356 74.451874,61.970818 
	C74.312195,61.493202 74.509140,61.032539 74.796143,60.320969 
z"/>
<path fill="#4272AF" opacity="1.000000" stroke="none" 
	d="
M80.847351,60.930862 
	C80.032867,60.969090 79.364891,60.707714 78.514626,60.237762 
	C78.301559,59.558815 78.270775,59.088444 78.095856,58.285789 
	C80.012123,58.387844 80.599945,56.228436 82.411087,55.710033 
	C83.292068,56.146835 83.521042,56.635101 83.221657,57.642906 
	C82.331909,58.889198 81.662888,59.760227 80.847351,60.930862 
z"/>
<path fill="#BED0E3" opacity="1.000000" stroke="none" 
	d="
M90.408432,42.882557 
	C90.817841,43.580521 90.770767,43.972397 90.650864,44.651451 
	C89.760979,46.266769 91.094856,47.771439 89.936172,49.295174 
	C89.395485,49.494984 89.155434,49.495838 88.676537,49.227226 
	C88.027542,48.518066 87.617393,48.078365 87.096878,47.439156 
	C86.821609,46.923691 86.617844,46.635174 86.175034,46.198669 
	C85.974823,46.023258 85.982742,46.041031 85.971695,46.043385 
	C85.814011,45.914898 85.667374,45.784061 85.529953,45.358574 
	C86.125603,44.404285 86.712013,43.744644 87.555443,42.995285 
	C88.496452,42.606239 89.209625,42.496548 90.408432,42.882557 
z"/>
<path fill="#93B0CF" opacity="1.000000" stroke="none" 
	d="
M57.998238,48.675209 
	C58.554073,46.841026 59.900978,46.289543 61.649498,45.889931 
	C62.019707,46.229755 62.032982,46.476490 62.056137,47.093750 
	C61.727779,50.573463 60.166637,50.495739 57.998238,48.675209 
z"/>
<path fill="#18509B" opacity="1.000000" stroke="none" 
	d="
M88.512215,49.258713 
	C88.716850,49.015362 88.996010,49.072956 89.688950,49.238140 
	C90.296455,49.209793 90.490181,49.073853 90.979248,49.136917 
	C91.820457,50.307739 91.577690,51.156246 90.586060,52.145798 
	C89.283104,52.950474 88.137939,53.262196 86.763016,53.917439 
	C86.192238,54.112087 85.945854,54.138176 85.509583,54.090408 
	C85.065254,53.942581 84.805740,53.820824 84.762894,53.327667 
	C86.181961,51.824062 87.384354,50.691860 88.512215,49.258713 
z"/>
<path fill="#A8C0D9" opacity="1.000000" stroke="none" 
	d="
M91.156448,42.998657 
	C90.185951,43.116837 89.506996,43.045033 88.320244,42.939400 
	C88.966400,41.503922 89.329826,39.430744 91.668594,38.627831 
	C92.216820,39.988018 92.129013,41.436275 91.156448,42.998657 
z"/>
<path fill="#93B0CF" opacity="1.000000" stroke="none" 
	d="
M90.069412,75.353287 
	C90.186813,75.020386 90.485672,74.982193 91.229965,74.866104 
	C92.771591,76.004845 95.835663,77.274910 94.386101,78.505524 
	C92.299667,80.276825 91.946159,76.316460 90.069412,75.353287 
z"/>
<path fill="#A8C0D9" opacity="1.000000" stroke="none" 
	d="
M89.922745,52.165138 
	C90.068985,51.281792 91.096916,50.979160 90.416374,49.838264 
	C90.316345,49.390450 90.385963,49.161545 90.747681,48.725113 
	C91.515663,48.460896 91.987869,48.479637 92.751907,48.784172 
	C93.048073,48.981506 92.998016,49.002556 93.001961,48.975693 
	C93.208679,49.194798 93.420174,49.433033 93.816727,49.824795 
	C94.113968,50.251995 94.278877,50.487057 94.662888,50.818230 
	C94.514023,52.860088 92.338264,51.523876 91.302666,52.839710 
	C90.640564,52.764198 90.318344,52.601616 89.922745,52.165138 
z"/>
<path fill="#A8C0D9" opacity="1.000000" stroke="none" 
	d="
M67.951294,42.666222 
	C67.474220,42.574547 67.053780,42.120071 66.481369,41.489094 
	C65.346436,41.053406 65.561668,40.149796 65.006416,39.298065 
	C64.183350,38.956261 63.003208,38.800549 63.737099,38.276031 
	C64.521439,37.715462 66.190079,36.689018 66.981483,38.605663 
	C67.466133,39.779404 67.675133,41.066971 67.951294,42.666222 
z"/>
<path fill="#93B0CF" opacity="1.000000" stroke="none" 
	d="
M62.305931,45.928486 
	C62.009056,45.230911 62.034443,44.446373 62.085796,43.260612 
	C62.536987,42.610157 62.962208,42.360924 63.627495,42.037430 
	C64.042343,41.830463 64.217117,41.697762 64.641525,41.779625 
	C65.002258,43.785667 63.788395,44.797810 62.305931,45.928486 
z"/>
<path fill="#A8C0D9" opacity="1.000000" stroke="none" 
	d="
M95.356720,39.948059 
	C94.326546,39.257496 94.083023,38.019978 92.455772,37.914345 
	C95.492126,32.730225 94.540741,39.075855 96.136505,39.528236 
	C96.148232,39.829811 95.922180,39.864235 95.356720,39.948059 
z"/>
<path fill="#BED0E3" opacity="1.000000" stroke="none" 
	d="
M89.515442,52.000603 
	C90.122719,52.099041 90.403801,52.291443 90.828293,52.696426 
	C89.767494,53.418079 88.653893,54.238258 86.832542,54.018166 
	C87.352127,53.390324 88.270691,52.742443 89.515442,52.000603 
z"/>
<path fill="#93B0CF" opacity="1.000000" stroke="none" 
	d="
M64.774033,39.408669 
	C65.155251,39.614311 65.641106,40.111813 66.228180,40.960953 
	C66.329414,41.312592 66.195786,41.393867 66.123337,41.364433 
	C65.809494,41.387722 65.568115,41.440449 65.088257,41.209480 
	C64.859413,40.517365 64.869049,40.108944 64.774033,39.408669 
z"/>
<path fill="#A8C0D9" opacity="1.000000" stroke="none" 
	d="
M64.610962,41.011833 
	C65.052338,40.986290 65.254883,41.046799 65.754158,41.221153 
	C65.845146,41.560249 65.599464,41.726482 65.102493,41.913944 
	C64.720581,41.988121 64.550018,41.982048 64.123505,41.969574 
	C64.035759,41.674744 64.203949,41.386314 64.610962,41.011833 
z"/>
<path fill="#4272AF" opacity="1.000000" stroke="none" 
	d="
M84.688744,53.074032 
	C85.006706,53.149490 85.033836,53.342712 85.192856,53.800137 
	C85.324760,54.064335 85.233086,54.312378 85.176796,54.432022 
	C84.927933,54.807301 84.735352,55.062931 84.168365,55.018059 
	C83.359901,53.957466 84.017654,53.629555 84.688744,53.074032 
z"/>
<path fill="#93B0CF" opacity="1.000000" stroke="none" 
	d="
M83.775513,54.775932 
	C84.024536,54.765869 84.255096,54.814186 84.803085,54.707085 
	C86.696259,55.120010 85.830788,55.721695 84.877502,56.513405 
	C84.378189,56.770092 84.146042,56.834309 83.749977,56.580971 
	C83.585701,56.026630 83.585335,55.789845 83.723114,55.225842 
	C83.861259,54.898624 83.757057,54.834312 83.775513,54.775932 
z"/>
<path fill="#93B0CF" opacity="1.000000" stroke="none" 
	d="
M83.234627,57.896973 
	C82.969765,57.522892 82.938599,57.027611 82.831436,56.167587 
	C82.755432,55.802849 82.862480,55.797985 82.878487,55.849117 
	C83.082863,55.799625 83.271240,55.698997 83.718338,55.787292 
	C83.977058,55.976223 84.314110,56.320915 84.462219,56.513397 
	C84.229668,57.062508 83.848999,57.419140 83.234627,57.896973 
z"/>
<path fill="#A8C0D9" opacity="1.000000" stroke="none" 
	d="
M85.345451,45.271797 
	C85.737999,45.224533 85.864014,45.429825 85.938950,45.862778 
	C85.960655,46.045738 85.540154,46.054367 85.329887,46.050713 
	C85.130325,45.857929 85.141022,45.668797 85.345451,45.271797 
z"/>
<path fill="#E8EEF4" opacity="1.000000" stroke="none" 
	d="
M73.030029,52.757236 
	C73.038780,52.870892 72.662170,53.043587 72.662170,53.043587 
	C72.662170,53.043587 72.618217,52.756535 72.722435,52.640697 
	C72.826653,52.524860 73.021286,52.643581 73.030029,52.757236 
z"/>
<path fill="#93B0CF" opacity="1.000000" stroke="none" 
	d="
M71.077766,56.197075 
	C71.460602,56.171459 71.644821,56.422173 71.821838,56.935120 
	C71.856346,57.166710 71.383453,57.146313 71.154587,57.086044 
	C70.924095,56.831436 70.922478,56.637100 71.077766,56.197075 
z"/>
<path fill="#93B0CF" opacity="1.000000" stroke="none" 
	d="
M71.916534,57.409576 
	C72.126816,57.319370 72.412346,57.489429 72.817932,57.882893 
	C72.622589,57.960812 72.307190,57.815327 71.916534,57.409576 
z"/>
<path fill="#A8C0D9" opacity="1.000000" stroke="none" 
	d="
M86.067772,46.279587 
	C86.245468,46.257347 86.516121,46.491432 86.886650,46.982582 
	C86.711258,47.005066 86.435989,46.770489 86.067772,46.279587 
z"/>
<path fill="#4272AF" opacity="1.000000" stroke="none" 
	d="
M84.006538,55.700546 
	C83.795235,55.983944 83.613411,55.991665 83.163040,55.949818 
	C82.528717,55.397285 82.608879,54.980083 83.498222,54.773651 
	C83.919510,55.074036 83.977768,55.249451 84.006538,55.700546 
z"/>
<path fill="#A8C0D9" opacity="1.000000" stroke="none" 
	d="
M90.446686,49.477058 
	C90.246735,49.619350 90.095757,49.522167 90.099243,49.433952 
	C90.154953,47.902817 86.499741,46.646828 90.231735,44.987228 
	C90.994743,45.330223 91.411446,45.721821 91.944260,46.291138 
	C92.054283,46.699032 92.048203,46.929203 92.037132,47.504715 
	C92.015938,48.251648 91.827248,48.524616 91.220245,48.822464 
	C91.003075,48.997337 90.646637,49.334763 90.446686,49.477058 
z"/>
<path fill="#4272AF" opacity="1.000000" stroke="none" 
	d="
M91.354065,49.071953 
	C91.146889,48.645409 91.290703,48.293480 91.733322,47.895805 
	C92.294540,48.072884 92.556953,48.295712 92.933716,48.750023 
	C92.600403,49.036526 92.152725,49.091549 91.354065,49.071953 
z"/>
<path fill="#4272AF" opacity="1.000000" stroke="none" 
	d="
M93.962044,49.715004 
	C93.614868,49.844994 93.236656,49.703934 92.932175,49.255852 
	C93.314278,49.113869 93.622643,49.278912 93.962044,49.715004 
z"/>
</svg>